<svg id="svg" version="1.1" xmlns="http://www.w3.org/2000/svg" xmlns:xlink="http://www.w3.org/1999/xlink" width="400" height="345.5252918287938" viewBox="0, 0, 400,345.5252918287938"><g id="svgg"><path id="path0" d="M272.068 64.242 C 271.086 64.675,261.768 73.708,258.609 77.290 C 256.719 79.433,252.274 84.812,251.513 85.879 C 251.132 86.411,250.522 87.240,250.157 87.720 C 247.592 91.088,246.677 96.412,248.180 99.227 C 248.533 99.890,248.939 100.821,249.082 101.296 C 249.914 104.076,252.962 109.691,254.869 111.958 C 257.509 115.095,263.429 114.149,268.133 109.840 C 273.811 104.636,275.390 94.908,274.237 72.223 C 273.809 63.817,273.726 63.512,272.068 64.242 M226.870 72.691 C 225.275 74.961,224.436 76.353,224.187 77.147 C 224.046 77.594,223.642 78.502,223.288 79.165 C 222.934 79.828,222.645 80.564,222.645 80.800 C 222.645 81.037,222.342 82.206,221.972 83.398 C 219.491 91.400,218.226 109.965,219.799 115.298 C 220.023 116.059,220.486 117.692,220.828 118.928 C 223.377 128.157,231.676 132.849,240.277 129.926 C 242.340 129.224,245.806 127.135,245.809 126.591 C 245.810 126.465,246.154 125.817,246.575 125.151 C 246.995 124.486,247.524 123.163,247.752 122.213 C 247.979 121.262,248.349 119.784,248.573 118.928 C 249.078 117.006,248.834 113.573,248.094 112.187 C 247.790 111.616,247.540 110.892,247.539 110.576 C 247.538 110.261,245.977 108.415,244.072 106.474 C 240.630 102.969,239.084 100.892,237.133 97.148 C 236.407 95.757,235.091 92.655,235.091 92.338 C 235.091 92.142,234.790 91.315,234.423 90.502 C 233.561 88.593,232.724 86.055,232.168 83.665 C 231.924 82.619,231.494 81.216,231.212 80.547 C 230.930 79.879,230.589 78.596,230.454 77.698 C 230.098 75.323,228.742 71.754,228.159 71.656 C 227.884 71.609,227.303 72.075,226.870 72.691 M211.529 110.859 C 209.862 113.456,209.168 114.630,208.803 115.471 C 208.597 115.946,208.192 116.802,207.903 117.373 C 204.509 124.084,202.742 144.524,204.847 152.733 C 205.649 155.860,205.000 158.075,204.149 155.117 C 203.959 154.456,203.547 153.628,203.235 153.276 C 202.678 152.649,200.294 148.464,199.326 146.413 C 199.056 145.843,198.381 144.838,197.826 144.180 L 196.815 142.985 195.836 144.526 C 195.297 145.374,194.681 146.534,194.466 147.105 C 194.251 147.675,193.911 148.531,193.710 149.006 C 190.362 156.909,188.727 171.751,190.434 178.738 C 190.643 179.594,191.054 181.446,191.348 182.854 C 191.641 184.263,192.019 185.585,192.189 185.793 C 192.358 186.001,192.729 186.949,193.013 187.900 C 193.715 190.251,194.924 192.268,196.348 193.468 C 197.994 194.854,204.369 195.146,207.444 193.977 C 208.484 193.582,209.546 193.259,209.804 193.259 C 210.342 193.258,212.859 192.175,215.826 190.666 C 219.045 189.029,219.318 188.312,218.261 184.271 C 217.789 182.466,217.280 180.832,217.130 180.641 C 216.980 180.450,216.657 179.672,216.412 178.911 C 215.905 177.340,213.082 171.571,212.436 170.787 C 212.201 170.501,211.895 169.879,211.755 169.404 C 211.614 168.928,211.303 168.306,211.063 168.021 C 210.823 167.736,210.129 166.491,209.521 165.255 C 208.913 164.019,208.270 162.774,208.093 162.489 C 207.915 162.204,207.474 161.327,207.112 160.539 C 206.749 159.752,206.285 159.004,206.079 158.877 C 205.615 158.590,205.580 156.958,206.038 156.958 C 206.221 156.958,206.556 157.308,206.782 157.736 C 207.140 158.414,207.961 159.241,210.251 161.233 C 210.565 161.506,211.187 161.839,211.634 161.972 C 212.081 162.106,212.835 162.466,213.310 162.772 C 216.230 164.653,223.350 163.389,224.333 160.816 C 224.831 159.513,226.131 158.181,227.820 157.245 C 234.438 153.575,235.793 152.464,235.440 150.994 C 234.918 148.820,233.975 147.969,232.086 147.969 C 227.190 147.969,220.577 139.435,217.753 129.473 C 217.112 127.212,216.849 126.046,215.569 119.793 C 215.296 118.462,214.897 115.740,214.682 113.746 C 214.467 111.751,214.110 110.003,213.887 109.862 C 213.046 109.326,212.315 109.635,211.529 110.859 M293.834 112.344 C 293.342 112.493,292.564 112.847,292.105 113.131 C 290.858 113.902,285.204 115.080,280.899 115.465 C 278.807 115.653,275.540 116.036,273.639 116.317 C 271.737 116.599,269.347 116.835,268.327 116.841 C 264.434 116.868,258.517 118.688,254.362 121.139 C 248.536 124.575,246.825 136.721,251.897 138.649 C 252.314 138.808,252.752 139.094,252.871 139.286 C 254.406 141.770,267.021 141.832,270.683 139.374 C 271.168 139.048,271.993 138.567,272.516 138.304 C 273.940 137.587,279.356 132.011,285.139 125.305 C 285.949 124.365,286.895 123.284,287.241 122.904 C 287.587 122.524,288.479 121.435,289.224 120.484 C 289.969 119.533,290.657 118.678,290.752 118.583 C 290.847 118.487,291.692 117.476,292.630 116.335 C 293.567 115.194,294.642 114.009,295.017 113.700 C 295.432 113.359,295.615 112.919,295.484 112.577 C 295.247 111.960,295.147 111.946,293.834 112.344 M130.189 114.286 C 129.890 114.585,129.643 115.012,129.639 115.236 C 129.627 115.974,128.661 122.161,128.145 124.806 C 126.784 131.785,126.488 138.287,127.429 140.580 C 128.006 141.988,130.549 144.857,131.220 144.857 C 131.436 144.857,131.882 145.155,132.210 145.518 C 132.539 145.881,133.224 146.282,133.733 146.409 C 134.242 146.536,134.910 146.866,135.217 147.143 C 137.126 148.863,141.529 148.866,143.423 147.150 C 148.689 142.376,146.006 131.575,136.733 120.216 C 136.543 119.983,135.925 119.170,135.360 118.410 C 134.212 116.863,134.128 116.755,132.924 115.298 C 132.452 114.728,132.066 114.144,132.066 114.002 C 132.065 113.532,130.743 113.732,130.189 114.286 M162.118 133.286 C 161.847 133.558,161.080 134.364,160.415 135.077 C 158.492 137.138,154.035 141.432,152.059 143.129 C 144.654 149.486,141.743 153.594,141.749 157.683 C 141.759 164.351,146.917 167.111,153.378 163.906 C 155.212 162.996,158.686 159.980,158.686 159.299 C 158.686 159.148,158.997 158.363,159.377 157.555 C 159.757 156.747,160.289 154.610,160.559 152.805 C 160.830 151.001,161.209 148.513,161.403 147.277 C 161.596 146.041,161.926 143.319,162.135 141.227 C 162.344 139.136,162.637 136.444,162.786 135.246 C 163.074 132.938,162.919 132.483,162.118 133.286 M107.750 136.099 C 107.188 136.661,107.536 142.613,108.218 144.117 C 108.595 144.946,108.902 145.900,108.902 146.236 C 108.902 147.198,112.701 155.575,113.137 155.575 C 113.280 155.575,113.400 155.769,113.403 156.007 C 113.406 156.245,113.867 157.139,114.427 157.995 C 120.493 167.273,127.447 171.357,132.816 168.797 C 138.259 166.201,140.036 162.830,138.791 157.461 C 138.115 154.545,135.885 151.085,134.677 151.078 C 134.477 151.077,133.846 150.828,133.276 150.525 C 132.705 150.222,131.150 149.840,129.818 149.676 C 128.487 149.512,126.776 149.076,126.016 148.707 C 125.255 148.338,124.244 147.858,123.768 147.640 C 122.468 147.044,118.745 144.710,118.237 144.172 C 118.142 144.071,117.315 143.445,116.400 142.781 C 114.643 141.506,112.574 139.769,109.918 137.338 C 108.229 135.793,108.119 135.730,107.750 136.099 M280.581 142.738 C 280.479 142.903,279.731 143.144,278.919 143.274 C 278.106 143.403,277.091 143.739,276.663 144.019 C 276.234 144.300,274.756 144.686,273.378 144.877 C 272.000 145.068,270.095 145.389,269.144 145.588 C 268.194 145.788,262.803 146.079,257.165 146.234 C 251.527 146.390,246.549 146.616,246.102 146.737 C 241.675 147.932,240.587 148.483,238.292 150.693 C 237.676 151.286,236.937 151.772,236.650 151.772 C 236.305 151.772,236.128 152.110,236.128 152.767 C 236.128 153.314,235.895 153.955,235.609 154.192 C 235.324 154.429,235.090 154.875,235.089 155.185 C 235.089 155.494,234.739 156.292,234.312 156.958 C 233.184 158.715,233.156 166.749,234.271 168.885 C 234.668 169.646,235.099 170.709,235.229 171.248 C 235.358 171.787,235.616 172.410,235.802 172.631 C 235.988 172.853,236.492 173.576,236.922 174.239 C 238.130 176.099,238.944 176.376,242.697 176.203 C 251.136 175.813,259.441 170.962,266.398 162.359 C 267.148 161.432,267.917 160.498,268.107 160.284 C 268.297 160.070,269.072 159.118,269.828 158.167 C 270.584 157.217,271.382 156.283,271.602 156.093 C 271.821 155.903,272.907 154.659,274.014 153.328 C 275.122 151.997,276.210 150.752,276.432 150.562 C 276.655 150.372,276.973 149.962,277.139 149.652 C 277.494 148.990,279.867 146.138,280.985 145.030 C 281.413 144.606,281.763 144.013,281.763 143.711 C 281.763 143.410,282.035 143.005,282.368 142.811 C 282.871 142.518,282.787 142.457,281.870 142.448 C 281.263 142.442,280.683 142.572,280.581 142.738 M164.701 157.705 C 163.476 159.646,159.764 163.258,156.231 165.948 C 146.674 173.225,146.764 173.144,145.507 175.528 C 141.843 182.478,148.835 193.678,155.823 192.052 C 157.008 191.777,161.798 186.996,161.798 186.090 C 161.798 185.908,162.095 185.491,162.458 185.162 C 162.821 184.833,163.222 184.154,163.348 183.651 C 163.474 183.149,163.858 182.110,164.201 181.343 C 164.563 180.533,164.928 178.582,165.071 176.693 C 165.206 174.902,165.459 173.060,165.635 172.598 C 165.905 171.887,167.328 158.678,167.329 156.871 C 167.330 155.629,165.682 156.151,164.701 157.705 M113.883 164.351 C 113.449 165.482,113.949 172.720,114.579 174.417 C 115.583 177.123,117.676 181.289,119.101 183.414 C 119.481 183.981,119.948 184.699,120.138 185.009 C 120.900 186.250,123.237 189.660,123.660 190.147 C 124.980 191.667,125.843 192.882,125.843 193.222 C 125.843 193.432,126.067 193.604,126.341 193.604 C 126.615 193.604,126.949 193.782,127.084 194.000 C 127.258 194.283,127.041 194.325,126.326 194.148 C 125.775 194.011,125.272 193.755,125.209 193.579 C 125.145 193.402,124.739 193.258,124.305 193.258 C 123.871 193.258,123.145 192.969,122.691 192.615 C 122.238 192.260,121.478 191.852,121.003 191.708 C 120.527 191.563,119.951 191.296,119.723 191.113 C 118.549 190.176,117.263 191.780,117.882 193.408 C 118.077 193.921,118.240 194.914,118.244 195.615 C 118.249 196.315,118.543 197.529,118.898 198.311 C 119.254 199.094,119.658 200.261,119.798 200.904 C 119.937 201.548,120.343 202.487,120.700 202.992 C 121.057 203.497,121.348 204.128,121.348 204.394 C 121.348 204.661,121.737 205.406,122.213 206.050 C 122.688 206.694,123.077 207.362,123.077 207.534 C 123.077 208.032,128.776 214.779,130.001 215.730 C 130.613 216.206,131.500 216.940,131.974 217.361 C 132.447 217.783,133.128 218.222,133.487 218.335 C 133.846 218.449,134.140 218.766,134.140 219.038 C 134.140 220.056,138.799 219.689,140.840 218.510 C 142.477 217.564,145.396 214.403,146.492 212.389 C 146.734 211.945,147.168 211.154,147.457 210.631 C 148.569 208.617,147.419 206.074,144.512 204.122 C 143.846 203.675,142.635 202.837,141.820 202.260 C 141.005 201.682,140.262 201.210,140.168 201.210 C 139.946 201.210,135.160 198.873,134.486 198.435 C 134.201 198.250,133.539 197.946,133.016 197.761 C 130.937 197.024,131.725 195.824,134.727 195.156 C 139.205 194.160,140.146 192.960,141.388 186.663 C 141.597 185.603,142.054 184.202,142.404 183.550 C 144.494 179.650,143.749 178.482,139.540 179.060 C 134.720 179.722,131.607 178.979,127.755 176.247 C 126.988 175.703,125.972 175.005,125.497 174.696 C 125.022 174.386,122.343 171.824,119.544 169.002 C 114.195 163.610,114.174 163.592,113.883 164.351 M264.038 174.716 C 261.729 176.209,260.099 177.069,257.393 178.219 C 255.664 178.955,251.816 179.307,242.351 179.596 C 228.562 180.018,224.065 181.609,221.322 187.035 C 220.890 187.891,219.977 189.602,219.294 190.838 L 218.053 193.086 218.015 198.846 L 217.978 204.607 219.028 206.106 C 220.352 207.998,222.185 208.480,225.522 207.817 C 226.708 207.581,229.308 207.255,231.299 207.092 C 233.289 206.929,236.007 206.550,237.338 206.250 C 238.669 205.950,240.240 205.704,240.830 205.704 C 243.401 205.704,246.803 202.909,251.342 197.066 C 252.009 196.208,253.176 194.812,253.935 193.965 C 254.694 193.118,255.948 191.718,256.722 190.854 C 258.398 188.982,262.777 183.612,263.267 182.829 C 263.457 182.524,264.165 181.441,264.839 180.420 C 268.932 174.230,268.586 171.773,264.038 174.716 M180.926 176.022 C 180.719 176.280,180.469 177.813,180.372 179.430 C 179.944 186.524,178.679 199.209,178.130 201.901 C 177.639 204.309,177.531 206.751,177.530 215.414 L 177.528 225.987 178.483 227.366 C 181.039 231.054,184.611 231.506,194.468 229.387 C 197.519 228.731,199.710 227.308,200.742 225.313 C 201.049 224.720,201.507 224.027,201.760 223.774 C 202.013 223.521,202.325 222.736,202.453 222.029 C 202.581 221.322,202.886 220.345,203.132 219.859 C 204.792 216.575,204.660 210.485,202.868 207.606 C 202.631 207.226,202.106 206.370,201.701 205.704 C 200.853 204.311,195.647 196.368,195.243 195.851 C 195.094 195.661,193.797 193.717,192.360 191.530 C 190.923 189.343,189.530 187.243,189.265 186.863 C 189.000 186.482,187.895 184.849,186.810 183.232 C 182.029 176.111,181.438 175.387,180.926 176.022 M169.682 180.007 C 169.449 180.545,168.980 181.356,168.640 181.810 C 168.299 182.263,168.021 182.901,168.021 183.226 C 168.021 183.552,167.710 184.177,167.329 184.615 C 166.949 185.054,166.638 185.588,166.638 185.803 C 166.638 186.571,159.016 193.258,158.140 193.258 C 158.035 193.258,157.064 193.953,155.984 194.802 C 154.903 195.651,153.585 196.679,153.054 197.087 C 152.524 197.495,151.456 198.782,150.682 199.948 L 149.274 202.068 149.416 206.220 C 149.560 210.440,150.195 212.408,152.019 214.286 C 152.264 214.537,152.463 214.848,152.464 214.977 C 152.464 215.180,153.070 215.978,154.544 217.718 C 154.746 217.956,155.589 218.150,156.417 218.150 C 158.067 218.150,158.149 218.091,164.216 212.503 C 165.833 211.013,167.278 209.691,167.427 209.565 C 168.651 208.524,169.783 205.888,170.285 202.912 C 170.965 198.880,171.725 181.480,171.277 180.212 C 170.829 178.945,170.178 178.862,169.682 180.007 M131.374 195.546 C 131.374 195.619,130.869 195.676,130.251 195.673 C 129.487 195.670,129.278 195.572,129.597 195.370 C 130.027 195.098,131.374 195.232,131.374 195.546 M174.420 209.155 C 173.632 210.678,164.711 219.532,163.963 219.534 C 163.818 219.534,163.247 219.923,162.695 220.398 C 162.142 220.873,161.547 221.262,161.372 221.262 C 160.640 221.262,156.246 226.188,155.419 227.936 C 153.183 232.663,154.926 238.368,159.296 240.627 C 161.044 241.530,165.311 241.526,166.439 240.619 C 168.581 238.897,170.552 236.626,171.279 235.040 C 171.571 234.402,171.953 233.647,172.128 233.362 C 172.723 232.391,174.183 227.318,174.416 225.411 C 174.543 224.365,174.953 222.498,175.327 221.262 C 177.036 215.606,176.283 205.553,174.420 209.155 M248.574 211.438 C 248.099 211.701,247.352 211.919,246.915 211.922 C 246.477 211.925,245.624 212.183,245.019 212.496 C 243.985 213.031,239.487 213.962,234.399 214.693 C 233.163 214.871,229.196 215.021,225.583 215.026 C 214.157 215.044,208.127 217.685,205.343 223.889 C 204.026 226.825,203.867 231.633,205.013 233.881 C 205.393 234.627,205.704 235.412,205.704 235.625 C 205.704 236.406,208.968 239.295,210.974 240.291 C 219.099 244.322,231.209 236.877,245.169 219.267 C 250.166 212.964,250.648 212.307,250.648 211.804 C 250.648 211.523,250.843 211.215,251.080 211.119 C 251.318 211.023,251.046 210.948,250.475 210.951 C 249.905 210.955,249.049 211.174,248.574 211.438 M121.799 216.648 C 121.681 216.955,121.765 217.458,121.987 217.765 C 122.209 218.072,122.575 218.712,122.801 219.188 C 123.026 219.663,123.410 220.293,123.654 220.588 C 124.125 221.158,125.816 224.283,128.413 229.386 C 131.317 235.090,132.632 237.421,135.140 241.314 C 138.144 245.977,140.557 247.798,143.151 247.360 C 143.899 247.234,144.512 246.999,144.512 246.838 C 144.512 246.678,144.862 246.435,145.290 246.300 C 146.414 245.945,150.940 241.449,151.763 239.871 C 153.719 236.118,150.291 225.756,147.094 225.756 C 146.866 225.756,146.284 225.445,145.800 225.065 C 145.317 224.685,144.711 224.373,144.454 224.373 C 144.198 224.373,143.257 223.984,142.364 223.509 C 141.471 223.034,140.383 222.640,139.947 222.634 C 139.510 222.628,138.856 222.398,138.494 222.124 C 138.132 221.850,137.004 221.384,135.987 221.088 C 134.971 220.793,134.140 220.407,134.140 220.231 C 134.140 220.055,133.557 219.815,132.844 219.698 C 132.131 219.581,130.981 219.185,130.290 218.818 C 129.599 218.451,128.772 218.150,128.454 218.150 C 128.135 218.150,127.067 217.779,126.081 217.326 C 123.573 216.174,122.072 215.936,121.799 216.648 M188.845 234.140 C 188.653 234.378,188.383 235.428,188.246 236.474 C 188.108 237.519,187.803 238.844,187.567 239.418 C 187.331 239.992,187.024 241.236,186.884 242.184 C 186.744 243.131,186.418 244.373,186.160 244.944 C 185.901 245.514,185.456 246.837,185.170 247.882 C 184.311 251.024,183.146 254.271,182.834 254.394 C 182.673 254.457,182.541 254.733,182.541 255.006 C 182.541 255.754,179.300 263.901,178.202 265.913 C 177.926 266.418,177.701 267.030,177.701 267.273 C 177.701 267.699,177.411 268.380,175.288 272.947 C 172.827 278.242,172.429 279.398,172.794 280.198 C 173.141 280.961,173.322 281.020,177.268 281.657 C 179.371 281.997,181.120 281.023,182.353 278.825 C 182.673 278.254,183.306 277.165,183.761 276.404 C 184.216 275.644,184.849 274.555,185.169 273.984 C 185.488 273.414,185.853 272.869,185.980 272.774 C 186.108 272.679,186.812 271.513,187.546 270.182 C 188.279 268.850,189.013 267.708,189.176 267.643 C 189.339 267.578,189.708 266.962,189.996 266.273 C 190.284 265.584,190.644 264.937,190.797 264.835 C 190.949 264.733,192.071 262.893,193.290 260.745 C 194.509 258.598,195.855 256.264,196.281 255.560 C 196.707 254.855,197.295 253.812,197.586 253.241 C 197.877 252.671,198.540 251.482,199.058 250.601 C 204.428 241.462,204.943 239.931,202.645 239.931 C 202.369 239.931,201.350 239.557,200.380 239.101 C 199.411 238.645,198.228 238.098,197.753 237.887 C 197.277 237.675,196.266 237.140,195.506 236.697 C 190.129 233.569,189.502 233.328,188.845 234.140 M155.056 244.979 C 153.725 245.241,152.092 245.556,151.426 245.680 C 148.731 246.180,148.614 246.629,150.255 250.195 C 150.709 251.181,151.080 252.274,151.080 252.624 C 151.080 252.974,151.301 253.576,151.572 253.961 C 151.842 254.347,152.242 255.652,152.461 256.861 C 152.681 258.070,153.073 259.617,153.334 260.299 C 153.595 260.981,154.048 262.783,154.340 264.304 C 154.633 265.825,155.022 267.692,155.205 268.453 C 155.388 269.213,155.786 271.158,156.088 272.774 C 157.620 280.972,157.459 280.503,158.632 280.210 C 159.137 280.084,159.784 279.783,160.069 279.542 C 160.354 279.300,160.867 279.003,161.208 278.882 C 162.368 278.470,162.936 276.342,162.698 273.296 C 162.025 264.661,161.832 261.051,161.810 256.698 C 161.784 251.588,161.082 245.748,160.394 244.919 C 159.899 244.322,158.306 244.340,155.056 244.979 " stroke="none" fill="#f9faf9" fill-rule="evenodd"></path><path id="path1" d="M98.876 0.346 C 98.876 0.536,98.582 0.691,98.222 0.691 C 97.477 0.691,97.148 1.335,97.148 2.794 C 97.148 3.572,96.990 3.803,96.456 3.803 C 95.870 3.803,95.765 4.033,95.765 5.321 C 95.765 6.652,95.658 6.866,94.901 7.056 C 94.365 7.191,94.036 7.519,94.036 7.918 C 94.036 8.272,93.725 8.644,93.345 8.743 C 92.798 8.886,92.653 9.215,92.653 10.315 C 92.653 11.495,92.535 11.723,91.876 11.817 C 91.229 11.909,91.080 12.175,90.991 13.397 C 90.905 14.585,90.756 14.866,90.213 14.866 C 89.762 14.866,89.542 15.104,89.542 15.590 C 89.542 16.014,89.266 16.386,88.875 16.488 C 88.420 16.607,88.137 17.086,87.983 17.997 C 87.833 18.883,87.534 19.402,87.094 19.542 C 86.588 19.703,86.430 20.075,86.430 21.112 C 86.430 22.241,86.313 22.472,85.739 22.472 C 85.359 22.472,85.028 22.627,85.004 22.818 C 84.981 23.008,84.922 23.319,84.875 23.509 C 84.827 23.699,84.769 24.233,84.745 24.696 C 84.719 25.209,84.432 25.622,84.010 25.756 C 83.630 25.877,83.319 26.276,83.319 26.644 C 83.319 27.082,83.080 27.312,82.627 27.312 C 82.142 27.312,81.935 27.544,81.931 28.090 C 81.922 29.552,81.522 30.424,80.859 30.424 C 80.319 30.424,80.207 30.686,80.207 31.955 C 80.207 33.280,80.103 33.502,79.430 33.597 C 78.783 33.689,78.634 33.956,78.545 35.177 C 78.459 36.365,78.310 36.646,77.768 36.646 C 77.282 36.646,77.096 36.886,77.096 37.511 C 77.096 38.131,76.910 38.375,76.435 38.375 C 75.936 38.375,75.718 38.706,75.546 39.724 C 75.390 40.648,75.108 41.128,74.651 41.248 C 74.132 41.383,73.984 41.730,73.984 42.813 C 73.984 43.993,73.866 44.221,73.207 44.315 C 72.564 44.406,72.411 44.674,72.324 45.859 C 72.245 46.937,72.053 47.336,71.546 47.469 C 71.149 47.573,70.873 47.942,70.873 48.369 C 70.873 48.848,70.652 49.092,70.218 49.092 C 69.473 49.092,69.144 49.736,69.144 51.195 C 69.144 51.973,68.986 52.204,68.453 52.204 C 67.865 52.204,67.761 52.434,67.761 53.736 C 67.761 55.061,67.657 55.282,66.984 55.378 C 66.484 55.449,66.166 55.766,66.095 56.266 C 65.996 56.968,65.655 57.203,64.909 57.085 C 64.767 57.063,64.650 57.733,64.650 58.576 C 64.650 59.901,64.545 60.122,63.872 60.218 C 63.242 60.307,63.073 60.583,62.985 61.663 C 62.905 62.637,62.694 63.045,62.207 63.173 C 61.692 63.308,61.538 63.654,61.538 64.684 C 61.538 65.820,61.410 66.052,60.674 66.237 C 60.158 66.366,59.810 66.701,59.810 67.067 C 59.810 67.405,59.499 67.762,59.118 67.862 C 58.569 68.005,58.427 68.333,58.427 69.458 C 58.427 70.616,58.308 70.873,57.773 70.873 C 57.027 70.873,56.698 71.517,56.698 72.976 C 56.698 73.754,56.540 73.984,56.007 73.984 C 55.418 73.984,55.315 74.215,55.315 75.540 C 55.315 76.860,55.212 77.096,54.631 77.096 C 54.188 77.096,53.869 77.402,53.729 77.960 C 53.532 78.744,53.199 78.982,52.463 78.865 C 52.321 78.843,52.204 79.514,52.204 80.356 C 52.204 81.681,52.099 81.903,51.426 81.998 C 50.779 82.090,50.630 82.357,50.542 83.578 C 50.456 84.766,50.307 85.048,49.764 85.048 C 49.323 85.048,49.092 85.285,49.092 85.739 C 49.092 86.119,48.865 86.430,48.586 86.430 C 47.954 86.430,47.364 87.493,47.364 88.632 C 47.364 89.192,47.121 89.572,46.672 89.715 C 46.138 89.884,45.981 90.238,45.981 91.270 C 45.981 92.392,45.856 92.623,45.203 92.716 C 44.414 92.828,44.372 92.918,44.296 94.687 C 44.266 95.372,44.036 95.741,43.561 95.865 C 43.147 95.973,42.869 96.337,42.869 96.770 C 42.869 97.248,42.649 97.494,42.218 97.494 C 41.555 97.494,41.154 98.365,41.146 99.827 C 41.142 100.373,40.935 100.605,40.449 100.605 C 39.862 100.605,39.758 100.835,39.758 102.137 C 39.758 103.462,39.653 103.683,38.980 103.779 C 38.333 103.871,38.184 104.137,38.096 105.359 C 38.010 106.547,37.861 106.828,37.318 106.828 C 36.834 106.828,36.646 107.067,36.646 107.681 C 36.646 108.278,36.498 108.478,36.154 108.346 C 35.568 108.121,34.918 109.199,34.918 110.395 C 34.918 110.951,34.680 111.304,34.226 111.423 C 33.680 111.566,33.535 111.894,33.535 112.995 C 33.535 114.174,33.417 114.403,32.757 114.496 C 32.110 114.588,31.961 114.855,31.873 116.076 C 31.787 117.264,31.638 117.545,31.095 117.545 C 30.609 117.545,30.424 117.784,30.424 118.410 C 30.424 119.044,30.239 119.274,29.732 119.274 C 29.352 119.274,29.021 119.507,28.997 119.793 C 28.974 120.078,28.915 120.467,28.868 120.657 C 28.820 120.847,28.762 121.314,28.738 121.694 C 28.710 122.141,28.450 122.385,28.003 122.385 C 27.414 122.385,27.312 122.616,27.312 123.941 C 27.312 125.370,27.242 125.497,26.448 125.497 C 25.824 125.497,25.583 125.683,25.583 126.165 C 25.583 126.533,25.272 126.932,24.892 127.053 C 24.355 127.223,24.201 127.576,24.201 128.632 C 24.201 129.735,24.077 129.991,23.546 129.991 C 22.801 129.991,22.472 130.635,22.472 132.094 C 22.472 132.872,22.314 133.103,21.780 133.103 C 21.191 133.103,21.089 133.333,21.089 134.659 C 21.089 135.979,20.985 136.214,20.404 136.214 C 19.969 136.214,19.643 136.518,19.511 137.046 C 19.396 137.503,19.004 137.956,18.640 138.051 C 18.126 138.185,17.978 138.535,17.978 139.615 C 17.978 140.795,17.859 141.023,17.200 141.117 C 16.429 141.226,16.366 141.371,16.289 143.215 C 16.259 143.922,16.072 144.166,15.557 144.166 C 14.968 144.166,14.866 144.396,14.866 145.722 C 14.866 147.151,14.796 147.277,14.002 147.277 C 13.378 147.277,13.137 147.463,13.137 147.946 C 13.137 148.313,12.826 148.712,12.446 148.833 C 11.912 149.003,11.755 149.356,11.755 150.388 C 11.755 151.510,11.630 151.741,10.977 151.834 C 10.330 151.926,10.181 152.193,10.092 153.414 C 10.007 154.602,9.858 154.883,9.315 154.883 C 8.751 154.883,8.643 155.129,8.643 156.415 C 8.643 157.740,8.538 157.962,7.865 158.057 C 7.365 158.128,7.048 158.446,6.977 158.946 C 6.906 159.445,6.628 159.723,6.199 159.723 C 5.638 159.723,5.532 159.973,5.532 161.279 C 5.532 162.575,5.422 162.835,4.877 162.835 C 4.132 162.835,3.803 163.479,3.803 164.938 C 3.803 165.716,3.645 165.946,3.111 165.946 C 2.651 165.946,2.420 166.177,2.420 166.638 C 2.420 167.018,2.276 167.329,2.099 167.329 C 1.442 167.329,0.691 168.448,0.691 169.428 C 0.691 169.985,0.536 170.441,0.346 170.441 C 0.148 170.441,0.000 171.478,0.000 172.861 C 0.000 174.192,0.146 175.281,0.325 175.281 C 0.504 175.281,0.698 175.864,0.757 176.577 C 0.836 177.530,1.070 177.964,1.642 178.215 C 2.247 178.480,2.420 178.841,2.420 179.834 C 2.420 180.808,2.584 181.164,3.111 181.331 C 3.492 181.452,3.803 181.851,3.803 182.219 C 3.803 182.701,4.043 182.887,4.667 182.887 C 5.461 182.887,5.532 183.014,5.532 184.443 C 5.532 185.768,5.634 185.998,6.223 185.998 C 6.698 185.998,6.927 186.242,6.954 186.776 C 6.976 187.204,7.030 187.710,7.075 187.900 C 7.119 188.090,7.179 188.440,7.207 188.678 C 7.236 188.915,7.571 189.110,7.952 189.110 C 8.459 189.110,8.643 189.340,8.643 189.974 C 8.643 190.599,8.829 190.838,9.315 190.838 C 9.858 190.838,10.007 191.120,10.092 192.308 C 10.181 193.529,10.330 193.796,10.977 193.887 C 11.636 193.981,11.755 194.210,11.755 195.389 C 11.755 196.490,11.899 196.818,12.446 196.961 C 12.900 197.080,13.137 197.433,13.137 197.989 C 13.137 199.112,13.731 200.173,14.360 200.173 C 14.638 200.173,14.866 200.484,14.866 200.864 C 14.866 201.318,15.097 201.556,15.538 201.556 C 16.081 201.556,16.230 201.837,16.315 203.025 C 16.404 204.247,16.553 204.513,17.200 204.605 C 17.873 204.700,17.978 204.922,17.978 206.247 C 17.978 207.548,18.082 207.779,18.669 207.779 C 19.154 207.779,19.362 208.011,19.365 208.557 C 19.374 210.019,19.775 210.890,20.438 210.890 C 20.902 210.890,21.089 211.139,21.089 211.755 C 21.089 212.380,21.275 212.619,21.761 212.619 C 22.304 212.619,22.453 212.900,22.538 214.088 C 22.627 215.310,22.776 215.576,23.423 215.668 C 24.082 215.762,24.201 215.990,24.201 217.170 C 24.201 218.270,24.345 218.599,24.892 218.742 C 25.346 218.860,25.583 219.213,25.583 219.769 C 25.583 220.893,26.177 221.953,26.806 221.953 C 27.084 221.953,27.312 222.264,27.312 222.645 C 27.312 223.106,27.542 223.336,28.003 223.336 C 28.532 223.336,28.705 223.581,28.738 224.373 C 28.814 226.186,28.853 226.273,29.646 226.385 C 30.305 226.479,30.424 226.707,30.424 227.887 C 30.424 228.974,30.570 229.317,31.096 229.454 C 31.465 229.551,31.815 229.964,31.873 230.372 C 31.940 230.837,32.270 231.156,32.757 231.225 C 33.430 231.321,33.535 231.542,33.535 232.868 C 33.535 234.169,33.639 234.399,34.226 234.399 C 34.701 234.399,34.930 234.643,34.958 235.177 C 34.980 235.605,35.034 236.111,35.078 236.301 C 35.122 236.491,35.182 236.841,35.211 237.079 C 35.240 237.316,35.575 237.511,35.955 237.511 C 36.534 237.511,36.646 237.741,36.646 238.926 C 36.646 240.051,36.789 240.378,37.338 240.522 C 37.721 240.622,38.029 240.994,38.029 241.354 C 38.029 241.818,38.278 242.005,38.894 242.005 C 39.688 242.005,39.758 242.132,39.758 243.561 C 39.758 244.871,39.864 245.117,40.430 245.117 C 40.972 245.117,41.121 245.398,41.207 246.586 C 41.296 247.807,41.445 248.074,42.092 248.166 C 42.765 248.261,42.869 248.483,42.869 249.808 C 42.869 251.080,42.980 251.340,43.523 251.340 C 43.933 251.340,44.259 251.663,44.394 252.204 C 44.534 252.762,44.854 253.068,45.296 253.068 C 45.877 253.068,45.981 253.304,45.981 254.624 C 45.981 255.949,46.083 256.180,46.672 256.180 C 47.147 256.180,47.376 256.424,47.404 256.958 C 47.426 257.385,47.480 257.891,47.524 258.081 C 47.568 258.271,47.628 258.621,47.657 258.859 C 47.686 259.097,48.021 259.291,48.401 259.291 C 48.908 259.291,49.092 259.522,49.092 260.156 C 49.092 260.781,49.278 261.020,49.764 261.020 C 50.307 261.020,50.456 261.301,50.542 262.489 C 50.630 263.711,50.779 263.977,51.426 264.069 C 52.079 264.162,52.204 264.393,52.204 265.515 C 52.204 266.518,52.366 266.902,52.853 267.056 C 53.285 267.194,53.575 267.721,53.721 268.636 C 53.892 269.702,54.094 270.009,54.628 270.009 C 55.131 270.009,55.315 270.241,55.315 270.873 C 55.315 271.507,55.500 271.737,56.007 271.737 C 56.535 271.737,56.709 271.982,56.742 272.774 C 56.817 274.587,56.856 274.674,57.649 274.786 C 58.322 274.882,58.427 275.103,58.427 276.429 C 58.427 277.695,58.539 277.960,59.074 277.960 C 59.565 277.960,59.776 278.304,59.948 279.378 C 60.109 280.385,60.373 280.847,60.857 280.974 C 61.245 281.076,61.538 281.446,61.538 281.836 C 61.538 282.229,61.833 282.596,62.230 282.700 C 62.714 282.827,62.921 283.172,62.921 283.850 C 62.921 285.269,63.256 285.912,63.996 285.912 C 64.527 285.912,64.650 286.168,64.650 287.271 C 64.650 288.308,64.807 288.681,65.313 288.842 C 65.758 288.983,66.053 289.504,66.208 290.421 C 66.383 291.457,66.600 291.789,67.100 291.789 C 67.575 291.789,67.761 292.033,67.761 292.653 C 67.761 293.279,67.947 293.518,68.433 293.518 C 68.976 293.518,69.125 293.799,69.211 294.987 C 69.299 296.208,69.448 296.475,70.095 296.567 C 70.755 296.660,70.873 296.889,70.873 298.069 C 70.873 299.156,71.020 299.498,71.545 299.635 C 71.915 299.732,72.265 300.145,72.323 300.554 C 72.389 301.019,72.720 301.338,73.207 301.407 C 73.866 301.501,73.984 301.729,73.984 302.909 C 73.984 304.009,74.129 304.338,74.676 304.481 C 75.075 304.585,75.384 304.973,75.407 305.399 C 75.429 305.805,75.468 306.370,75.494 306.655 C 75.519 306.940,75.890 307.327,76.318 307.515 C 76.926 307.782,77.096 308.140,77.096 309.157 C 77.096 310.212,77.222 310.458,77.763 310.458 C 78.192 310.458,78.470 310.736,78.541 311.236 C 78.612 311.736,78.930 312.053,79.430 312.124 C 80.103 312.220,80.207 312.441,80.207 313.766 C 80.207 315.068,80.311 315.298,80.899 315.298 C 81.432 315.298,81.590 315.529,81.590 316.307 C 81.590 317.766,81.919 318.410,82.664 318.410 C 83.200 318.410,83.319 318.667,83.319 319.825 C 83.319 320.949,83.461 321.277,84.010 321.421 C 84.391 321.520,84.721 321.739,84.745 321.907 C 84.769 322.075,84.808 322.407,84.831 322.645 C 84.855 322.882,85.225 323.127,85.653 323.187 C 86.312 323.281,86.430 323.510,86.430 324.689 C 86.430 325.790,86.575 326.118,87.122 326.261 C 87.576 326.380,87.813 326.733,87.813 327.289 C 87.813 328.412,88.407 329.473,89.036 329.473 C 89.396 329.473,89.542 329.872,89.542 330.856 C 89.542 331.864,89.685 332.239,90.069 332.239 C 90.359 332.239,90.744 332.627,90.925 333.103 C 91.126 333.632,91.525 333.967,91.953 333.967 C 92.553 333.967,92.653 334.191,92.653 335.523 C 92.653 336.832,92.760 337.079,93.324 337.079 C 93.853 337.079,94.043 337.406,94.227 338.634 C 94.409 339.846,94.605 340.190,95.113 340.190 C 95.578 340.190,95.765 340.438,95.765 341.054 C 95.765 341.680,95.951 341.919,96.436 341.919 C 96.979 341.919,97.128 342.200,97.214 343.388 C 97.303 344.610,97.452 344.876,98.099 344.968 C 98.526 345.029,98.876 345.223,98.876 345.400 C 98.876 345.598,137.854 345.722,200.000 345.722 C 262.146 345.722,301.124 345.598,301.124 345.400 C 301.124 345.223,301.474 345.029,301.901 344.968 C 302.548 344.876,302.697 344.610,302.786 343.388 C 302.872 342.200,303.021 341.919,303.564 341.919 C 304.049 341.919,304.235 341.680,304.235 341.054 C 304.235 340.430,304.421 340.190,304.905 340.190 C 305.435 340.190,305.625 339.863,305.809 338.634 C 305.991 337.423,306.186 337.079,306.694 337.079 C 307.237 337.079,307.347 336.817,307.347 335.523 C 307.347 334.094,307.417 333.967,308.211 333.967 C 308.858 333.967,309.075 333.785,309.075 333.243 C 309.075 332.810,309.353 332.447,309.767 332.339 C 310.299 332.200,310.458 331.867,310.458 330.897 C 310.458 329.922,310.634 329.560,311.236 329.295 C 311.802 329.047,312.043 328.610,312.119 327.693 C 312.195 326.788,312.414 326.383,312.897 326.256 C 313.423 326.119,313.570 325.777,313.570 324.689 C 313.570 323.510,313.688 323.281,314.347 323.187 C 314.834 323.118,315.165 322.799,315.231 322.334 C 315.289 321.926,315.639 321.513,316.009 321.416 C 316.537 321.278,316.681 320.936,316.681 319.825 C 316.681 318.667,316.800 318.410,317.336 318.410 C 318.081 318.410,318.410 317.766,318.410 316.307 C 318.410 315.529,318.568 315.298,319.101 315.298 C 319.690 315.298,319.793 315.068,319.793 313.742 C 319.793 312.313,319.863 312.187,320.657 312.187 C 321.348 312.187,321.521 312.014,321.521 311.322 C 321.521 310.689,321.706 310.458,322.213 310.458 C 322.782 310.458,322.904 310.228,322.904 309.157 C 322.904 308.140,323.074 307.782,323.682 307.515 C 324.248 307.267,324.489 306.830,324.565 305.913 C 324.641 305.007,324.860 304.602,325.343 304.476 C 325.869 304.338,326.016 303.996,326.016 302.909 C 326.016 301.729,326.134 301.501,326.793 301.407 C 327.280 301.338,327.611 301.019,327.677 300.554 C 327.735 300.145,328.085 299.732,328.455 299.635 C 328.980 299.498,329.127 299.156,329.127 298.069 C 329.127 296.889,329.245 296.660,329.905 296.567 C 330.552 296.475,330.701 296.208,330.789 294.987 C 330.875 293.799,331.024 293.518,331.567 293.518 C 332.053 293.518,332.239 293.279,332.239 292.653 C 332.239 292.021,332.423 291.789,332.926 291.789 C 333.460 291.789,333.662 291.482,333.833 290.416 C 333.979 289.501,334.269 288.974,334.701 288.837 C 335.188 288.682,335.350 288.298,335.350 287.295 C 335.350 286.174,335.475 285.942,336.128 285.849 C 336.775 285.758,336.924 285.491,337.012 284.270 C 337.098 283.082,337.247 282.800,337.790 282.800 C 338.267 282.800,338.462 282.562,338.462 281.976 C 338.462 281.447,338.705 281.089,339.143 280.974 C 339.627 280.847,339.891 280.385,340.052 279.378 C 340.224 278.304,340.435 277.960,340.926 277.960 C 341.461 277.960,341.573 277.695,341.573 276.429 C 341.573 275.103,341.678 274.882,342.351 274.786 C 342.998 274.695,343.147 274.428,343.235 273.207 C 343.321 272.019,343.470 271.737,344.013 271.737 C 344.499 271.737,344.685 271.498,344.685 270.873 C 344.685 270.241,344.869 270.009,345.372 270.009 C 345.904 270.009,346.108 269.703,346.276 268.656 C 346.423 267.734,346.700 267.249,347.144 267.132 C 347.647 267.001,347.796 266.643,347.796 265.571 C 347.796 264.391,347.914 264.163,348.574 264.069 C 349.221 263.977,349.370 263.711,349.458 262.489 C 349.544 261.301,349.693 261.020,350.236 261.020 C 350.722 261.020,350.908 260.781,350.908 260.156 C 350.908 259.538,351.094 259.291,351.562 259.291 C 352.307 259.291,352.636 258.647,352.636 257.189 C 352.636 256.410,352.794 256.180,353.328 256.180 C 353.915 256.180,354.019 255.949,354.019 254.648 C 354.019 253.323,354.124 253.101,354.797 253.006 C 355.297 252.935,355.614 252.617,355.685 252.118 C 355.756 251.618,356.034 251.340,356.463 251.340 C 357.022 251.340,357.131 251.091,357.131 249.808 C 357.131 248.483,357.235 248.261,357.908 248.166 C 358.555 248.074,358.704 247.807,358.793 246.586 C 358.879 245.398,359.028 245.117,359.570 245.117 C 360.136 245.117,360.242 244.871,360.242 243.561 C 360.242 242.132,360.312 242.005,361.106 242.005 C 361.722 242.005,361.971 241.818,361.971 241.354 C 361.971 240.994,362.279 240.622,362.662 240.522 C 363.211 240.378,363.354 240.051,363.354 238.926 C 363.354 237.768,363.472 237.511,364.008 237.511 C 364.753 237.511,365.082 236.867,365.082 235.408 C 365.082 234.630,365.240 234.399,365.774 234.399 C 366.363 234.399,366.465 234.169,366.465 232.844 C 366.465 231.415,366.535 231.288,367.329 231.288 C 368.009 231.288,368.194 231.112,368.194 230.464 C 368.194 229.931,368.438 229.576,368.885 229.459 C 369.432 229.316,369.576 228.987,369.576 227.887 C 369.576 226.707,369.695 226.479,370.354 226.385 C 371.001 226.293,371.150 226.027,371.239 224.806 C 371.324 223.618,371.474 223.336,372.016 223.336 C 372.458 223.336,372.688 223.099,372.688 222.645 C 372.688 222.264,372.916 221.953,373.194 221.953 C 373.823 221.953,374.417 220.893,374.417 219.769 C 374.417 219.213,374.654 218.860,375.108 218.742 C 375.655 218.599,375.799 218.270,375.799 217.170 C 375.799 215.990,375.918 215.762,376.577 215.668 C 377.224 215.576,377.373 215.310,377.462 214.088 C 377.547 212.900,377.696 212.619,378.239 212.619 C 378.725 212.619,378.911 212.380,378.911 211.755 C 378.911 211.139,379.098 210.890,379.562 210.890 C 380.225 210.890,380.626 210.019,380.635 208.557 C 380.638 208.011,380.846 207.779,381.331 207.779 C 381.918 207.779,382.022 207.548,382.022 206.247 C 382.022 204.922,382.127 204.700,382.800 204.605 C 383.447 204.513,383.596 204.247,383.685 203.025 C 383.770 201.837,383.919 201.556,384.462 201.556 C 384.903 201.556,385.134 201.318,385.134 200.864 C 385.134 200.484,385.362 200.173,385.640 200.173 C 386.269 200.173,386.863 199.112,386.863 197.989 C 386.863 197.433,387.100 197.080,387.554 196.961 C 388.101 196.818,388.245 196.490,388.245 195.389 C 388.245 194.210,388.364 193.981,389.023 193.887 C 389.670 193.796,389.819 193.529,389.908 192.308 C 389.993 191.120,390.142 190.838,390.685 190.838 C 391.171 190.838,391.357 190.599,391.357 189.974 C 391.357 189.357,391.544 189.110,392.011 189.110 C 392.757 189.110,393.086 188.466,393.086 187.007 C 393.086 186.229,393.244 185.998,393.777 185.998 C 394.366 185.998,394.468 185.768,394.468 184.443 C 394.468 183.014,394.539 182.887,395.333 182.887 C 395.957 182.887,396.197 182.701,396.197 182.219 C 396.197 181.851,396.508 181.452,396.889 181.331 C 397.416 181.164,397.580 180.808,397.580 179.834 C 397.580 178.841,397.753 178.480,398.358 178.215 C 398.930 177.964,399.164 177.530,399.243 176.577 C 399.302 175.864,399.496 175.281,399.675 175.281 C 399.854 175.281,400.000 174.192,400.000 172.861 C 400.000 171.478,399.852 170.441,399.654 170.441 C 399.464 170.441,399.309 169.985,399.309 169.428 C 399.309 168.448,398.558 167.329,397.901 167.329 C 397.724 167.329,397.580 167.018,397.580 166.638 C 397.580 166.184,397.349 165.946,396.908 165.946 C 396.365 165.946,396.216 165.665,396.131 164.477 C 396.042 163.256,395.893 162.989,395.246 162.897 C 394.587 162.804,394.468 162.575,394.468 161.396 C 394.468 160.309,394.322 159.966,393.796 159.829 C 393.427 159.732,393.077 159.319,393.019 158.910 C 392.952 158.445,392.622 158.126,392.135 158.057 C 391.462 157.962,391.357 157.740,391.357 156.415 C 391.357 155.129,391.249 154.883,390.685 154.883 C 390.142 154.883,389.993 154.602,389.908 153.414 C 389.819 152.193,389.670 151.926,389.023 151.834 C 388.370 151.741,388.245 151.510,388.245 150.388 C 388.245 149.356,388.088 149.003,387.554 148.833 C 387.174 148.712,386.863 148.313,386.863 147.946 C 386.863 147.463,386.622 147.277,385.998 147.277 C 385.204 147.277,385.134 147.151,385.134 145.722 C 385.134 144.412,385.028 144.166,384.462 144.166 C 383.919 144.166,383.770 143.884,383.685 142.697 C 383.596 141.475,383.447 141.209,382.800 141.117 C 382.141 141.023,382.022 140.795,382.022 139.615 C 382.022 138.528,381.876 138.186,381.350 138.048 C 380.981 137.952,380.631 137.538,380.573 137.130 C 380.506 136.665,380.176 136.346,379.689 136.277 C 379.016 136.181,378.911 135.960,378.911 134.635 C 378.911 133.333,378.807 133.103,378.220 133.103 C 377.686 133.103,377.528 132.872,377.528 132.094 C 377.528 130.635,377.199 129.991,376.454 129.991 C 375.923 129.991,375.799 129.735,375.799 128.632 C 375.799 127.576,375.645 127.223,375.108 127.053 C 374.728 126.932,374.417 126.533,374.417 126.165 C 374.417 125.683,374.176 125.497,373.552 125.497 C 372.758 125.497,372.688 125.370,372.688 123.941 C 372.688 122.616,372.586 122.385,371.997 122.385 C 371.511 122.385,371.304 122.153,371.300 121.608 C 371.292 120.145,370.891 119.274,370.228 119.274 C 369.764 119.274,369.576 119.026,369.576 118.410 C 369.576 117.784,369.391 117.545,368.905 117.545 C 368.362 117.545,368.213 117.264,368.127 116.076 C 368.039 114.855,367.890 114.588,367.243 114.496 C 366.583 114.403,366.465 114.174,366.465 112.995 C 366.465 111.894,366.320 111.566,365.774 111.423 C 365.320 111.304,365.082 110.951,365.082 110.395 C 365.082 109.199,364.432 108.121,363.846 108.346 C 363.502 108.478,363.354 108.278,363.354 107.681 C 363.354 107.058,363.167 106.828,362.662 106.828 C 362.073 106.828,361.971 106.598,361.971 105.272 C 361.971 103.843,361.900 103.717,361.106 103.717 C 360.312 103.717,360.242 103.590,360.242 102.161 C 360.242 100.835,360.140 100.605,359.551 100.605 C 359.065 100.605,358.858 100.373,358.854 99.827 C 358.846 98.365,358.445 97.494,357.782 97.494 C 357.318 97.494,357.131 97.245,357.131 96.629 C 357.131 96.004,356.945 95.765,356.459 95.765 C 355.916 95.765,355.767 95.483,355.681 94.296 C 355.593 93.074,355.444 92.808,354.797 92.716 C 354.137 92.622,354.019 92.394,354.019 91.214 C 354.019 90.114,353.875 89.785,353.328 89.642 C 352.874 89.523,352.636 89.171,352.636 88.615 C 352.636 87.491,352.043 86.430,351.414 86.430 C 351.135 86.430,350.908 86.119,350.908 85.739 C 350.908 85.285,350.677 85.048,350.236 85.048 C 349.693 85.048,349.544 84.766,349.458 83.578 C 349.370 82.357,349.221 82.090,348.574 81.998 C 347.901 81.903,347.796 81.681,347.796 80.356 C 347.796 79.073,347.688 78.825,347.129 78.825 C 346.700 78.825,346.422 78.547,346.351 78.047 C 346.280 77.547,345.962 77.229,345.462 77.158 C 344.789 77.063,344.685 76.841,344.685 75.516 C 344.685 74.215,344.580 73.984,343.993 73.984 C 343.460 73.984,343.302 73.754,343.302 72.976 C 343.302 71.517,342.973 70.873,342.227 70.873 C 341.692 70.873,341.573 70.616,341.573 69.458 C 341.573 68.333,341.431 68.005,340.882 67.862 C 340.501 67.762,340.190 67.405,340.190 67.067 C 340.190 66.701,339.842 66.366,339.326 66.237 C 338.590 66.052,338.462 65.820,338.462 64.684 C 338.462 63.654,338.308 63.308,337.793 63.173 C 337.306 63.045,337.095 62.637,337.015 61.663 C 336.927 60.583,336.758 60.307,336.128 60.218 C 335.455 60.122,335.350 59.901,335.350 58.576 C 335.350 57.293,335.242 57.044,334.683 57.044 C 334.254 57.044,333.976 56.766,333.905 56.266 C 333.834 55.766,333.516 55.449,333.016 55.378 C 332.343 55.282,332.239 55.061,332.239 53.736 C 332.239 52.434,332.135 52.204,331.547 52.204 C 331.014 52.204,330.856 51.973,330.856 51.195 C 330.856 49.736,330.527 49.092,329.782 49.092 C 329.348 49.092,329.127 48.848,329.127 48.369 C 329.127 47.942,328.851 47.573,328.454 47.469 C 327.947 47.336,327.755 46.937,327.676 45.859 C 327.589 44.674,327.436 44.406,326.793 44.315 C 326.134 44.221,326.016 43.993,326.016 42.813 C 326.016 41.730,325.868 41.383,325.349 41.248 C 324.892 41.128,324.610 40.648,324.454 39.724 C 324.282 38.706,324.064 38.375,323.565 38.375 C 323.090 38.375,322.904 38.131,322.904 37.511 C 322.904 36.886,322.718 36.646,322.232 36.646 C 321.690 36.646,321.541 36.365,321.455 35.177 C 321.366 33.956,321.217 33.689,320.570 33.597 C 319.897 33.502,319.793 33.280,319.793 31.955 C 319.793 30.685,319.681 30.424,319.140 30.424 C 318.632 30.424,318.437 30.079,318.255 28.868 C 318.071 27.639,317.881 27.312,317.351 27.312 C 316.919 27.312,316.681 27.074,316.681 26.644 C 316.681 26.276,316.378 25.880,316.009 25.762 C 315.509 25.604,315.309 25.176,315.231 24.097 C 315.143 22.893,314.992 22.626,314.347 22.534 C 313.694 22.442,313.570 22.210,313.570 21.088 C 313.570 20.075,313.409 19.702,312.906 19.542 C 312.466 19.402,312.167 18.883,312.017 17.997 C 311.863 17.086,311.580 16.607,311.125 16.488 C 310.734 16.386,310.458 16.014,310.458 15.590 C 310.458 15.104,310.238 14.866,309.787 14.866 C 309.244 14.866,309.095 14.585,309.009 13.397 C 308.920 12.175,308.771 11.909,308.124 11.817 C 307.465 11.723,307.347 11.495,307.347 10.315 C 307.347 9.215,307.202 8.886,306.655 8.743 C 306.275 8.644,305.964 8.272,305.964 7.918 C 305.964 7.519,305.635 7.191,305.099 7.056 C 304.342 6.866,304.235 6.652,304.235 5.321 C 304.235 4.033,304.130 3.803,303.544 3.803 C 303.032 3.803,302.852 3.572,302.852 2.916 C 302.852 1.757,302.267 0.691,301.630 0.691 C 301.351 0.691,301.124 0.536,301.124 0.346 C 301.124 0.116,267.185 0.000,200.000 0.000 C 132.815 0.000,98.876 0.116,98.876 0.346 M273.656 64.704 C 273.960 65.661,274.579 77.803,274.587 82.973 C 274.613 98.413,272.922 105.451,268.133 109.840 C 263.429 114.149,257.509 115.095,254.869 111.958 C 252.962 109.691,249.914 104.076,249.082 101.296 C 248.939 100.821,248.533 99.890,248.180 99.227 C 246.677 96.412,247.592 91.088,250.157 87.720 C 250.522 87.240,251.132 86.411,251.513 85.879 C 252.274 84.812,256.719 79.433,258.609 77.290 C 260.069 75.635,268.320 67.367,270.189 65.687 C 272.291 63.797,273.279 63.517,273.656 64.704 M229.435 73.902 C 229.861 75.091,230.319 76.799,230.454 77.698 C 230.589 78.596,230.930 79.879,231.212 80.547 C 231.494 81.216,231.924 82.619,232.168 83.665 C 232.724 86.055,233.561 88.593,234.423 90.502 C 234.790 91.315,235.091 92.142,235.091 92.338 C 235.091 92.655,236.407 95.757,237.133 97.148 C 239.084 100.892,240.630 102.969,244.072 106.474 C 245.977 108.415,247.538 110.261,247.539 110.576 C 247.540 110.892,247.790 111.616,248.094 112.187 C 248.834 113.573,249.078 117.006,248.573 118.928 C 248.349 119.784,247.979 121.262,247.752 122.213 C 247.524 123.163,246.995 124.486,246.575 125.151 C 246.154 125.817,245.810 126.465,245.809 126.591 C 245.806 127.135,242.340 129.224,240.277 129.926 C 231.676 132.849,223.377 128.157,220.828 118.928 C 220.486 117.692,220.023 116.059,219.799 115.298 C 218.226 109.965,219.491 91.400,221.972 83.398 C 222.342 82.206,222.645 81.037,222.645 80.800 C 222.645 80.564,222.934 79.828,223.288 79.165 C 223.642 78.502,224.046 77.594,224.187 77.147 C 224.327 76.699,224.812 75.766,225.263 75.072 C 228.002 70.862,228.315 70.774,229.435 73.902 M213.887 109.862 C 214.110 110.003,214.467 111.751,214.682 113.746 C 214.897 115.740,215.296 118.462,215.569 119.793 C 216.849 126.046,217.112 127.212,217.753 129.473 C 220.577 139.435,227.190 147.969,232.086 147.969 C 233.975 147.969,234.918 148.820,235.440 150.994 C 235.793 152.464,234.438 153.575,227.820 157.245 C 226.131 158.181,224.831 159.513,224.333 160.816 C 223.350 163.389,216.230 164.653,213.310 162.772 C 212.835 162.466,212.081 162.106,211.634 161.972 C 211.187 161.839,210.565 161.506,210.251 161.233 C 207.961 159.241,207.140 158.414,206.782 157.736 C 206.556 157.308,206.221 156.958,206.038 156.958 C 205.580 156.958,205.615 158.590,206.079 158.877 C 206.285 159.004,206.749 159.752,207.112 160.539 C 207.474 161.327,207.915 162.204,208.093 162.489 C 208.270 162.774,208.913 164.019,209.521 165.255 C 210.129 166.491,210.823 167.736,211.063 168.021 C 211.303 168.306,211.614 168.928,211.755 169.404 C 211.895 169.879,212.201 170.501,212.436 170.787 C 213.082 171.571,215.905 177.340,216.412 178.911 C 216.657 179.672,216.980 180.450,217.130 180.641 C 217.280 180.832,217.789 182.466,218.261 184.271 C 219.318 188.312,219.045 189.029,215.826 190.666 C 212.859 192.175,210.342 193.258,209.804 193.259 C 209.546 193.259,208.484 193.582,207.444 193.977 C 204.369 195.146,197.994 194.854,196.348 193.468 C 194.924 192.268,193.715 190.251,193.013 187.900 C 192.729 186.949,192.358 186.001,192.189 185.793 C 192.019 185.585,191.641 184.263,191.348 182.854 C 191.054 181.446,190.643 179.594,190.434 178.738 C 188.727 171.751,190.362 156.909,193.710 149.006 C 193.911 148.531,194.251 147.675,194.466 147.105 C 194.681 146.534,195.297 145.374,195.836 144.526 L 196.815 142.985 197.826 144.180 C 198.381 144.838,199.056 145.843,199.326 146.413 C 200.294 148.464,202.678 152.649,203.235 153.276 C 203.547 153.628,203.959 154.456,204.149 155.117 C 205.000 158.075,205.649 155.860,204.847 152.733 C 202.742 144.524,204.509 124.084,207.903 117.373 C 208.192 116.802,208.597 115.946,208.803 115.471 C 209.168 114.630,209.862 113.456,211.529 110.859 C 212.315 109.635,213.046 109.326,213.887 109.862 M295.484 112.577 C 295.615 112.919,295.432 113.359,295.017 113.700 C 294.642 114.009,293.567 115.194,292.630 116.335 C 291.692 117.476,290.847 118.487,290.752 118.583 C 290.657 118.678,289.969 119.533,289.224 120.484 C 288.479 121.435,287.587 122.524,287.241 122.904 C 286.895 123.284,285.949 124.365,285.139 125.305 C 279.356 132.011,273.940 137.587,272.516 138.304 C 271.993 138.567,271.168 139.048,270.683 139.374 C 267.021 141.832,254.406 141.770,252.871 139.286 C 252.752 139.094,252.314 138.808,251.897 138.649 C 246.825 136.721,248.536 124.575,254.362 121.139 C 258.517 118.688,264.434 116.868,268.327 116.841 C 269.347 116.835,271.737 116.599,273.639 116.317 C 275.540 116.036,278.807 115.653,280.899 115.465 C 285.204 115.080,290.858 113.902,292.105 113.131 C 292.861 112.663,294.309 112.119,294.998 112.044 C 295.146 112.027,295.365 112.267,295.484 112.577 M132.066 114.002 C 132.066 114.144,132.452 114.728,132.924 115.298 C 134.128 116.755,134.212 116.863,135.360 118.410 C 135.925 119.170,136.543 119.983,136.733 120.216 C 146.006 131.575,148.689 142.376,143.423 147.150 C 141.529 148.866,137.126 148.863,135.217 147.143 C 134.910 146.866,134.242 146.536,133.733 146.409 C 133.224 146.282,132.539 145.881,132.210 145.518 C 131.882 145.155,131.436 144.857,131.220 144.857 C 130.549 144.857,128.006 141.988,127.429 140.580 C 126.488 138.287,126.784 131.785,128.145 124.806 C 128.661 122.161,129.627 115.974,129.639 115.236 C 129.655 114.288,132.065 113.062,132.066 114.002 M162.786 135.246 C 162.637 136.444,162.344 139.136,162.135 141.227 C 161.926 143.319,161.596 146.041,161.403 147.277 C 161.209 148.513,160.830 151.001,160.559 152.805 C 160.289 154.610,159.757 156.747,159.377 157.555 C 158.997 158.363,158.686 159.148,158.686 159.299 C 158.686 159.980,155.212 162.996,153.378 163.906 C 146.917 167.111,141.759 164.351,141.749 157.683 C 141.743 153.594,144.654 149.486,152.059 143.129 C 154.035 141.432,158.492 137.138,160.415 135.077 C 163.095 132.205,163.165 132.210,162.786 135.246 M109.918 137.338 C 112.574 139.769,114.643 141.506,116.400 142.781 C 117.315 143.445,118.142 144.071,118.237 144.172 C 118.745 144.710,122.468 147.044,123.768 147.640 C 124.244 147.858,125.255 148.338,126.016 148.707 C 126.776 149.076,128.487 149.512,129.818 149.676 C 131.150 149.840,132.705 150.222,133.276 150.525 C 133.846 150.828,134.477 151.077,134.677 151.078 C 135.885 151.085,138.115 154.545,138.791 157.461 C 140.036 162.830,138.259 166.201,132.816 168.797 C 128.046 171.071,121.314 167.701,116.062 160.409 C 114.598 158.376,113.409 156.408,113.403 156.007 C 113.400 155.769,113.280 155.575,113.137 155.575 C 112.701 155.575,108.902 147.198,108.902 146.236 C 108.902 145.900,108.595 144.946,108.218 144.117 C 107.266 142.017,107.212 135.869,108.146 135.869 C 108.237 135.869,109.035 136.530,109.918 137.338 M282.368 142.811 C 282.035 143.005,281.763 143.410,281.763 143.711 C 281.763 144.013,281.413 144.606,280.985 145.030 C 279.867 146.138,277.494 148.990,277.139 149.652 C 276.973 149.962,276.655 150.372,276.432 150.562 C 276.210 150.752,275.122 151.997,274.014 153.328 C 272.907 154.659,271.821 155.903,271.602 156.093 C 271.382 156.283,270.584 157.217,269.828 158.167 C 269.072 159.118,268.297 160.070,268.107 160.284 C 267.917 160.498,267.148 161.432,266.398 162.359 C 259.441 170.962,251.136 175.813,242.697 176.203 C 238.944 176.376,238.130 176.099,236.922 174.239 C 236.492 173.576,235.988 172.853,235.802 172.631 C 235.616 172.410,235.358 171.787,235.229 171.248 C 235.099 170.709,234.668 169.646,234.271 168.885 C 233.156 166.749,233.184 158.715,234.312 156.958 C 234.739 156.292,235.089 155.494,235.089 155.185 C 235.090 154.875,235.324 154.429,235.609 154.192 C 235.895 153.955,236.128 153.314,236.128 152.767 C 236.128 152.110,236.305 151.772,236.650 151.772 C 236.937 151.772,237.676 151.286,238.292 150.693 C 240.587 148.483,241.675 147.932,246.102 146.737 C 246.549 146.616,251.527 146.390,257.165 146.234 C 262.803 146.079,268.194 145.788,269.144 145.588 C 270.095 145.389,272.000 145.068,273.378 144.877 C 274.756 144.686,276.234 144.300,276.663 144.019 C 277.091 143.739,278.106 143.403,278.919 143.274 C 279.731 143.144,280.479 142.903,280.581 142.738 C 280.683 142.572,281.263 142.442,281.870 142.448 C 282.787 142.457,282.871 142.518,282.368 142.811 M167.329 156.871 C 167.328 158.678,165.905 171.887,165.635 172.598 C 165.459 173.060,165.206 174.902,165.071 176.693 C 164.928 178.582,164.563 180.533,164.201 181.343 C 163.858 182.110,163.474 183.149,163.348 183.651 C 163.222 184.154,162.821 184.833,162.458 185.162 C 162.095 185.491,161.798 185.908,161.798 186.090 C 161.798 186.996,157.008 191.777,155.823 192.052 C 148.835 193.678,141.843 182.478,145.507 175.528 C 146.764 173.144,146.674 173.225,156.231 165.948 C 159.764 163.258,163.476 159.646,164.701 157.705 C 165.682 156.151,167.330 155.629,167.329 156.871 M119.544 169.002 C 122.343 171.824,125.022 174.386,125.497 174.696 C 125.972 175.005,126.988 175.703,127.755 176.247 C 131.607 178.979,134.720 179.722,139.540 179.060 C 143.749 178.482,144.494 179.650,142.404 183.550 C 142.054 184.202,141.597 185.603,141.388 186.663 C 140.146 192.960,139.205 194.160,134.727 195.156 C 131.725 195.824,130.937 197.024,133.016 197.761 C 133.539 197.946,134.201 198.250,134.486 198.435 C 135.160 198.873,139.946 201.210,140.168 201.210 C 140.262 201.210,141.005 201.682,141.820 202.260 C 142.635 202.837,143.846 203.675,144.512 204.122 C 147.419 206.074,148.569 208.617,147.457 210.631 C 147.168 211.154,146.734 211.945,146.492 212.389 C 145.396 214.403,142.477 217.564,140.840 218.510 C 138.799 219.689,134.140 220.056,134.140 219.038 C 134.140 218.766,133.846 218.449,133.487 218.335 C 133.128 218.222,132.447 217.783,131.974 217.361 C 131.500 216.940,130.613 216.206,130.001 215.730 C 128.776 214.779,123.077 208.032,123.077 207.534 C 123.077 207.362,122.688 206.694,122.213 206.050 C 121.737 205.406,121.348 204.661,121.348 204.394 C 121.348 204.128,121.057 203.497,120.700 202.992 C 120.343 202.487,119.937 201.548,119.798 200.904 C 119.658 200.261,119.254 199.094,118.898 198.311 C 118.543 197.529,118.249 196.315,118.244 195.615 C 118.240 194.914,118.077 193.921,117.882 193.408 C 117.263 191.780,118.549 190.176,119.723 191.113 C 119.951 191.296,120.527 191.563,121.003 191.708 C 121.478 191.852,122.238 192.260,122.691 192.615 C 123.145 192.969,123.871 193.258,124.305 193.258 C 124.739 193.258,125.145 193.402,125.209 193.579 C 125.272 193.755,125.775 194.011,126.326 194.148 C 127.041 194.325,127.258 194.283,127.084 194.000 C 126.949 193.782,126.615 193.604,126.341 193.604 C 126.067 193.604,125.843 193.432,125.843 193.222 C 125.843 192.882,124.980 191.667,123.660 190.147 C 123.237 189.660,120.900 186.250,120.138 185.009 C 119.948 184.699,119.481 183.981,119.101 183.414 C 117.676 181.289,115.583 177.123,114.579 174.417 C 113.670 171.969,113.427 163.872,114.261 163.872 C 114.368 163.872,116.745 166.181,119.544 169.002 M267.524 174.506 C 267.639 175.699,266.936 177.249,264.839 180.420 C 264.165 181.441,263.457 182.524,263.267 182.829 C 262.777 183.612,258.398 188.982,256.722 190.854 C 255.948 191.718,254.694 193.118,253.935 193.965 C 253.176 194.812,252.009 196.208,251.342 197.066 C 246.803 202.909,243.401 205.704,240.830 205.704 C 240.240 205.704,238.669 205.950,237.338 206.250 C 236.007 206.550,233.289 206.929,231.299 207.092 C 229.308 207.255,226.708 207.581,225.522 207.817 C 222.185 208.480,220.352 207.998,219.028 206.106 L 217.978 204.607 218.015 198.846 L 218.053 193.086 219.294 190.838 C 219.977 189.602,220.890 187.891,221.322 187.035 C 224.065 181.609,228.562 180.018,242.351 179.596 C 251.816 179.307,255.664 178.955,257.393 178.219 C 260.099 177.069,261.729 176.209,264.038 174.716 C 266.739 172.968,267.372 172.930,267.524 174.506 M183.877 178.911 C 184.405 179.672,185.724 181.616,186.810 183.232 C 187.895 184.849,189.000 186.482,189.265 186.863 C 189.530 187.243,190.923 189.343,192.360 191.530 C 193.797 193.717,195.094 195.661,195.243 195.851 C 195.647 196.368,200.853 204.311,201.701 205.704 C 202.106 206.370,202.631 207.226,202.868 207.606 C 204.660 210.485,204.792 216.575,203.132 219.859 C 202.886 220.345,202.581 221.322,202.453 222.029 C 202.325 222.736,202.013 223.521,201.760 223.774 C 201.507 224.027,201.049 224.720,200.742 225.313 C 199.710 227.308,197.519 228.731,194.468 229.387 C 184.611 231.506,181.039 231.054,178.483 227.366 L 177.528 225.987 177.530 215.414 C 177.531 206.751,177.639 204.309,178.130 201.901 C 178.679 199.209,179.944 186.524,180.372 179.430 C 180.647 174.858,181.027 174.802,183.877 178.911 M171.277 180.212 C 171.725 181.480,170.965 198.880,170.285 202.912 C 169.783 205.888,168.651 208.524,167.427 209.565 C 167.278 209.691,165.833 211.013,164.216 212.503 C 158.149 218.091,158.067 218.150,156.417 218.150 C 155.589 218.150,154.746 217.956,154.544 217.718 C 153.070 215.978,152.464 215.180,152.464 214.977 C 152.463 214.848,152.264 214.537,152.019 214.286 C 150.195 212.408,149.560 210.440,149.416 206.220 L 149.274 202.068 150.682 199.948 C 151.456 198.782,152.524 197.495,153.054 197.087 C 153.585 196.679,154.903 195.651,155.984 194.802 C 157.064 193.953,158.035 193.258,158.140 193.258 C 159.016 193.258,166.638 186.571,166.638 185.803 C 166.638 185.588,166.949 185.054,167.329 184.615 C 167.710 184.177,168.021 183.552,168.021 183.226 C 168.021 182.901,168.299 182.263,168.640 181.810 C 168.980 181.356,169.449 180.545,169.682 180.007 C 170.178 178.862,170.829 178.945,171.277 180.212 M129.597 195.370 C 129.278 195.572,129.487 195.670,130.251 195.673 C 130.869 195.676,131.374 195.619,131.374 195.546 C 131.374 195.232,130.027 195.098,129.597 195.370 M175.945 209.097 C 176.567 210.596,176.165 218.486,175.327 221.262 C 174.953 222.498,174.543 224.365,174.416 225.411 C 174.183 227.318,172.723 232.391,172.128 233.362 C 171.953 233.647,171.571 234.402,171.279 235.040 C 170.552 236.626,168.581 238.897,166.439 240.619 C 165.311 241.526,161.044 241.530,159.296 240.627 C 154.926 238.368,153.183 232.663,155.419 227.936 C 156.246 226.188,160.640 221.262,161.372 221.262 C 161.547 221.262,162.142 220.873,162.695 220.398 C 163.247 219.923,163.818 219.534,163.963 219.534 C 164.711 219.532,173.632 210.678,174.420 209.155 C 175.084 207.870,175.432 207.857,175.945 209.097 M251.080 211.119 C 250.843 211.215,250.648 211.523,250.648 211.804 C 250.648 212.307,250.166 212.964,245.169 219.267 C 231.209 236.877,219.099 244.322,210.974 240.291 C 208.968 239.295,205.704 236.406,205.704 235.625 C 205.704 235.412,205.393 234.627,205.013 233.881 C 203.867 231.633,204.026 226.825,205.343 223.889 C 208.127 217.685,214.157 215.044,225.583 215.026 C 229.196 215.021,233.163 214.871,234.399 214.693 C 239.487 213.962,243.985 213.031,245.019 212.496 C 245.624 212.183,246.477 211.925,246.915 211.922 C 247.352 211.919,248.099 211.701,248.574 211.438 C 249.049 211.174,249.905 210.955,250.475 210.951 C 251.046 210.948,251.318 211.023,251.080 211.119 M126.081 217.326 C 127.067 217.779,128.135 218.150,128.454 218.150 C 128.772 218.150,129.599 218.451,130.290 218.818 C 130.981 219.185,132.131 219.581,132.844 219.698 C 133.557 219.815,134.140 220.055,134.140 220.231 C 134.140 220.407,134.971 220.793,135.987 221.088 C 137.004 221.384,138.132 221.850,138.494 222.124 C 138.856 222.398,139.510 222.628,139.947 222.634 C 140.383 222.640,141.471 223.034,142.364 223.509 C 143.257 223.984,144.198 224.373,144.454 224.373 C 144.711 224.373,145.317 224.685,145.800 225.065 C 146.284 225.445,146.866 225.756,147.094 225.756 C 150.291 225.756,153.719 236.118,151.763 239.871 C 150.940 241.449,146.414 245.945,145.290 246.300 C 144.862 246.435,144.512 246.678,144.512 246.838 C 144.512 246.999,143.899 247.234,143.151 247.360 C 140.557 247.798,138.144 245.977,135.140 241.314 C 132.632 237.421,131.317 235.090,128.413 229.386 C 125.816 224.283,124.125 221.158,123.654 220.588 C 123.410 220.293,123.026 219.663,122.801 219.188 C 122.575 218.712,122.209 218.072,121.987 217.765 C 120.721 216.013,122.750 215.795,126.081 217.326 M192.168 234.800 C 193.243 235.401,194.745 236.255,195.506 236.697 C 196.266 237.140,197.277 237.675,197.753 237.887 C 198.228 238.098,199.411 238.645,200.380 239.101 C 201.350 239.557,202.369 239.931,202.645 239.931 C 204.943 239.931,204.428 241.462,199.058 250.601 C 198.540 251.482,197.877 252.671,197.586 253.241 C 197.295 253.812,196.707 254.855,196.281 255.560 C 195.855 256.264,194.509 258.598,193.290 260.745 C 192.071 262.893,190.949 264.733,190.797 264.835 C 190.644 264.937,190.284 265.584,189.996 266.273 C 189.708 266.962,189.339 267.578,189.176 267.643 C 189.013 267.708,188.279 268.850,187.546 270.182 C 186.812 271.513,186.108 272.679,185.980 272.774 C 185.853 272.869,185.488 273.414,185.169 273.984 C 184.849 274.555,184.216 275.644,183.761 276.404 C 183.306 277.165,182.673 278.254,182.353 278.825 C 181.120 281.023,179.371 281.997,177.268 281.657 C 171.502 280.726,171.558 280.972,175.288 272.947 C 177.411 268.380,177.701 267.699,177.701 267.273 C 177.701 267.030,177.926 266.418,178.202 265.913 C 179.300 263.901,182.541 255.754,182.541 255.006 C 182.541 254.733,182.673 254.457,182.834 254.394 C 183.146 254.271,184.311 251.024,185.170 247.882 C 185.456 246.837,185.901 245.514,186.160 244.944 C 186.418 244.373,186.744 243.131,186.884 242.184 C 187.024 241.236,187.331 239.992,187.567 239.418 C 187.803 238.844,188.108 237.519,188.246 236.474 C 188.659 233.332,189.159 233.119,192.168 234.800 M160.394 244.919 C 161.082 245.748,161.784 251.588,161.810 256.698 C 161.832 261.051,162.025 264.661,162.698 273.296 C 162.936 276.342,162.368 278.470,161.208 278.882 C 160.867 279.003,160.354 279.300,160.069 279.542 C 159.784 279.783,159.137 280.084,158.632 280.210 C 157.459 280.503,157.620 280.972,156.088 272.774 C 155.786 271.158,155.388 269.213,155.205 268.453 C 155.022 267.692,154.633 265.825,154.340 264.304 C 154.048 262.783,153.595 260.981,153.334 260.299 C 153.073 259.617,152.681 258.070,152.461 256.861 C 152.242 255.652,151.842 254.347,151.572 253.961 C 151.301 253.576,151.080 252.974,151.080 252.624 C 151.080 252.274,150.709 251.181,150.255 250.195 C 148.614 246.629,148.731 246.180,151.426 245.680 C 152.092 245.556,153.725 245.241,155.056 244.979 C 158.306 244.340,159.899 244.322,160.394 244.919 " stroke="none" fill="#6cac7c" fill-rule="evenodd"></path></g></svg>