<svg id="svg" version="1.1" xmlns="http://www.w3.org/2000/svg" xmlns:xlink="http://www.w3.org/1999/xlink" width="400" height="346.875" viewBox="0, 0, 400,346.875"><g id="svgg"><path id="path0" d="M298.577 36.284 C 292.387 42.117,283.332 44.746,275.427 43.004 C 265.435 40.802,258.961 43.518,255.547 51.344 C 254.595 53.525,253.410 56.170,252.904 57.242 C 252.706 57.663,251.563 57.796,246.943 57.936 C 237.140 58.233,236.913 58.658,236.244 78.001 C 236.022 84.424,235.613 93.894,235.334 99.046 C 235.055 104.198,234.690 113.565,234.523 119.861 C 234.356 126.158,234.058 132.402,233.861 133.738 C 233.664 135.074,233.240 142.723,232.919 150.737 C 232.291 166.436,232.100 167.880,230.583 168.414 C 228.399 169.182,228.466 169.640,228.274 152.434 C 228.123 138.873,228.026 136.703,227.524 135.646 C 227.207 134.978,226.847 133.807,226.725 133.044 C 226.275 130.238,225.869 129.971,223.268 130.769 C 222.682 130.949,220.613 131.585,218.669 132.182 C 216.725 132.779,214.950 133.490,214.724 133.763 C 214.497 134.035,214.145 134.258,213.940 134.258 C 213.735 134.258,212.973 134.649,212.248 135.126 C 209.105 137.191,208.231 137.726,206.628 138.569 C 205.694 139.059,204.716 139.638,204.456 139.854 C 203.910 140.307,202.232 141.266,200.631 142.040 C 200.024 142.334,199.428 142.735,199.306 142.931 C 199.185 143.128,198.589 143.529,197.981 143.823 C 196.329 144.622,194.697 145.561,194.102 146.054 C 193.508 146.547,191.876 147.486,190.223 148.285 C 189.616 148.578,189.020 148.979,188.899 149.176 C 188.777 149.373,188.181 149.766,187.574 150.050 C 186.967 150.334,185.768 151.028,184.909 151.593 C 184.050 152.157,182.879 152.860,182.307 153.154 C 181.735 153.448,180.564 154.150,179.705 154.715 C 178.846 155.280,177.676 155.982,177.103 156.276 C 176.531 156.570,175.360 157.272,174.501 157.837 C 173.643 158.402,172.399 159.110,171.738 159.411 C 171.077 159.711,170.452 160.079,170.350 160.227 C 170.248 160.375,169.228 161.018,168.083 161.655 C 166.938 162.292,165.725 163.051,165.386 163.341 C 164.023 164.510,163.929 163.711,163.745 149.419 C 163.587 137.191,163.501 135.618,162.899 133.820 C 161.538 129.757,157.785 129.106,152.951 132.095 C 152.261 132.521,151.538 132.871,151.346 132.871 C 151.153 132.871,150.794 133.114,150.547 133.411 C 150.300 133.708,149.618 134.174,149.030 134.445 C 147.625 135.095,145.796 136.164,145.072 136.759 C 144.753 137.020,143.946 137.504,143.278 137.832 C 142.611 138.161,141.596 138.736,141.023 139.110 C 139.754 139.939,137.699 141.164,136.223 141.970 C 135.620 142.301,134.892 142.728,134.605 142.920 C 131.662 144.893,130.908 145.348,130.572 145.354 C 130.356 145.357,129.975 145.607,129.724 145.910 C 129.473 146.212,128.673 146.698,127.947 146.988 C 127.220 147.279,126.626 147.641,126.626 147.792 C 126.626 147.944,126.197 148.240,125.672 148.451 C 125.147 148.662,124.016 149.299,123.157 149.867 C 122.298 150.434,121.049 151.175,120.382 151.512 C 119.714 151.849,119.011 152.246,118.820 152.394 C 118.630 152.542,117.693 153.149,116.739 153.741 C 115.785 154.334,114.611 155.089,114.130 155.418 C 113.650 155.747,112.909 156.127,112.485 156.262 C 112.060 156.397,111.517 156.703,111.277 156.942 C 111.037 157.181,109.124 158.353,107.025 159.546 C 104.926 160.740,101.960 162.478,100.434 163.409 C 98.907 164.341,97.190 165.347,96.618 165.646 C 91.038 168.560,88.331 171.475,87.590 175.369 C 87.112 177.882,87.301 249.237,87.791 251.173 C 88.369 253.457,89.712 254.562,92.628 255.153 C 96.615 255.961,283.332 255.952,287.251 255.143 C 290.713 254.429,291.971 253.251,292.649 250.091 C 293.361 246.770,293.370 177.574,292.658 173.844 C 291.810 169.395,287.798 167.140,282.684 168.237 C 280.331 168.741,277.297 168.706,276.952 168.170 C 276.799 167.931,276.569 165.317,276.441 162.359 C 276.313 159.402,275.975 152.220,275.690 146.401 C 275.404 140.581,274.996 130.668,274.782 124.371 C 274.568 118.075,274.235 111.986,274.041 110.841 C 273.848 109.696,273.546 102.905,273.370 95.750 C 272.439 57.932,272.565 58.399,263.140 57.894 C 257.919 57.614,258.456 57.698,258.456 57.169 C 258.456 56.448,261.657 53.755,263.819 52.658 C 266.136 51.481,269.190 51.411,271.639 52.477 C 276.100 54.418,289.034 55.619,290.753 54.252 C 291.021 54.039,292.048 53.601,293.035 53.279 C 294.022 52.957,295.017 52.468,295.246 52.193 C 295.474 51.917,295.838 51.690,296.053 51.689 C 296.268 51.689,296.955 51.181,297.580 50.562 C 301.366 46.808,302.515 43.936,302.515 38.226 C 302.515 33.662,301.756 33.288,298.577 36.284 M260.012 70.423 C 260.865 70.747,260.913 70.888,260.815 72.765 L 260.711 74.761 255.334 74.861 C 248.381 74.989,248.395 74.993,248.395 72.997 C 248.395 70.092,248.423 70.078,254.109 70.078 C 256.857 70.078,259.513 70.233,260.012 70.423 M261.123 88.044 C 261.387 88.211,261.596 89.801,261.704 92.462 C 261.797 94.747,262.036 100.052,262.236 104.250 C 263.996 141.229,264.757 166.578,264.129 167.273 C 263.338 168.146,244.958 168.264,244.241 167.400 C 243.908 166.999,243.941 164.700,244.396 156.559 C 244.713 150.877,245.106 141.075,245.268 134.779 C 245.431 128.482,245.733 122.082,245.939 120.555 C 246.145 119.029,246.469 113.408,246.660 108.066 C 247.190 93.178,247.415 88.315,247.586 88.031 C 247.791 87.691,260.587 87.702,261.123 88.044 M151.650 148.337 C 151.771 148.894,151.888 154.437,151.910 160.656 C 151.942 169.425,152.064 172.337,152.453 173.630 C 152.729 174.547,153.060 176.141,153.189 177.172 C 153.464 179.373,154.023 180.057,155.532 180.040 C 157.376 180.019,163.419 178.327,164.320 177.580 C 164.582 177.362,165.258 176.932,165.822 176.624 C 167.036 175.960,172.276 172.920,174.094 171.826 C 176.006 170.674,177.639 169.693,179.185 168.767 C 179.948 168.310,181.119 167.607,181.787 167.206 C 185.001 165.274,185.705 164.855,188.180 163.400 C 189.640 162.541,191.336 161.569,191.948 161.239 C 192.561 160.909,193.301 160.469,193.594 160.261 C 194.161 159.861,197.053 158.116,201.041 155.770 C 202.376 154.984,204.172 153.882,205.030 153.321 C 205.889 152.760,207.138 152.048,207.806 151.740 C 208.474 151.432,209.098 151.073,209.193 150.942 C 209.289 150.811,210.147 150.245,211.101 149.684 C 212.056 149.123,213.148 148.474,213.530 148.240 C 216.988 146.126,216.772 145.315,216.894 160.867 L 216.999 174.328 217.865 176.024 C 218.341 176.956,219.122 177.969,219.600 178.274 C 220.077 178.579,220.675 179.026,220.927 179.267 C 221.179 179.508,221.413 179.718,221.447 179.733 C 221.697 179.848,230.435 180.431,231.396 180.397 C 243.745 179.969,279.973 180.109,280.452 180.588 C 281.292 181.428,281.301 242.154,280.461 242.993 C 279.725 243.730,171.268 243.840,170.792 243.105 C 170.638 242.866,170.434 234.705,170.338 224.969 L 170.165 207.268 169.355 206.236 C 168.909 205.668,167.978 204.735,167.286 204.163 L 166.026 203.122 140.862 203.122 L 115.698 203.122 114.385 204.163 C 113.662 204.735,112.687 205.887,112.217 206.722 L 111.362 208.240 111.362 224.659 C 111.362 236.380,111.246 241.330,110.959 241.961 L 110.556 242.845 105.386 242.845 C 102.484 242.845,99.920 242.687,99.544 242.486 C 98.888 242.135,98.873 241.424,98.873 211.498 L 98.873 180.869 99.908 178.958 C 100.493 177.877,101.328 176.871,101.829 176.642 C 102.316 176.421,102.904 176.080,103.135 175.886 C 103.683 175.425,105.920 173.962,107.121 173.277 C 107.641 172.981,108.690 172.366,109.454 171.909 C 110.217 171.452,111.388 170.756,112.056 170.363 C 112.723 169.970,113.894 169.261,114.657 168.787 C 115.421 168.314,116.592 167.604,117.259 167.209 C 117.927 166.815,119.722 165.720,121.249 164.777 C 122.775 163.833,124.493 162.819,125.065 162.524 C 125.637 162.228,126.808 161.524,127.667 160.959 C 128.526 160.395,129.696 159.692,130.269 159.398 C 130.841 159.104,132.012 158.410,132.871 157.856 C 133.729 157.301,135.573 156.175,136.968 155.353 C 138.363 154.532,140.080 153.514,140.784 153.092 C 143.132 151.684,144.481 150.872,145.880 150.023 C 146.644 149.560,147.798 148.934,148.446 148.632 C 149.094 148.331,149.854 147.854,150.134 147.574 C 150.842 146.866,151.392 147.143,151.650 148.337 M188.884 188.810 C 184.094 189.408,183.390 191.085,183.322 202.059 C 183.260 212.145,184.243 215.785,187.028 215.785 C 187.366 215.785,187.740 215.941,187.858 216.132 C 188.175 216.645,221.373 216.599,223.096 216.083 C 223.822 215.866,224.933 215.154,225.565 214.503 L 226.713 213.318 226.713 202.773 L 226.713 192.228 225.334 190.816 C 224.518 189.980,223.404 189.255,222.606 189.040 C 221.022 188.614,192.040 188.416,188.884 188.810 M238.860 188.807 C 234.386 189.368,233.724 190.970,233.554 201.638 C 233.310 216.975,232.771 216.578,253.599 216.370 C 276.408 216.143,277.537 215.444,277.537 201.561 C 277.537 193.325,276.322 190.032,272.945 189.107 C 271.244 188.641,242.221 188.386,238.860 188.807 M215.246 202.022 C 215.869 204.547,216.056 204.498,205.278 204.602 C 194.458 204.706,194.992 204.855,195.493 201.888 L 195.726 200.510 205.322 200.602 L 214.918 200.694 215.246 202.022 M264.931 201.642 C 265.407 202.119,265.462 202.444,265.195 203.204 L 264.858 204.163 255.579 204.255 L 246.301 204.348 245.970 203.478 C 245.070 201.110,245.984 200.880,255.929 200.967 C 263.378 201.032,264.398 201.109,264.931 201.642 M134.189 215.507 C 134.803 216.121,134.784 242.121,134.169 242.962 C 133.785 243.487,133.129 243.547,128.708 243.462 L 123.683 243.365 123.461 242.324 C 123.039 240.346,123.126 216.926,123.560 215.975 L 123.962 215.091 128.867 215.091 C 132.220 215.091,133.905 215.223,134.189 215.507 M157.909 215.665 C 158.823 216.492,158.893 241.497,157.985 242.793 C 157.406 243.620,148.344 243.866,147.556 243.076 C 146.918 242.437,147.010 216.454,147.653 215.743 C 148.486 214.822,156.907 214.759,157.909 215.665 " stroke="none" fill="#fcfbfa" fill-rule="evenodd"></path><path id="path1" d="M97.832 1.214 C 97.832 2.278,97.724 2.428,96.964 2.428 C 96.487 2.428,96.116 2.546,96.138 2.689 C 96.379 4.216,96.036 5.551,95.403 5.551 C 94.868 5.551,94.709 5.782,94.709 6.563 C 94.709 8.027,94.379 8.673,93.632 8.673 C 93.214 8.673,92.975 8.917,92.975 9.343 C 92.975 9.712,92.663 10.113,92.281 10.234 C 91.846 10.372,91.587 10.759,91.587 11.270 C 91.587 12.421,91.242 13.183,90.720 13.183 C 90.171 13.183,89.853 13.957,89.853 15.293 C 89.853 16.074,89.694 16.305,89.159 16.305 C 88.693 16.305,88.465 16.537,88.465 17.008 C 88.465 17.438,88.129 17.838,87.598 18.040 C 86.871 18.316,86.730 18.596,86.730 19.766 C 86.730 20.903,86.609 21.162,86.076 21.162 C 85.566 21.162,85.370 21.508,85.187 22.723 C 85.002 23.956,84.812 24.284,84.281 24.284 C 83.715 24.284,83.608 24.532,83.608 25.846 C 83.608 27.170,83.504 27.407,82.921 27.407 C 82.484 27.407,82.157 27.711,82.024 28.241 C 81.909 28.700,81.516 29.154,81.150 29.250 C 80.654 29.379,80.486 29.733,80.486 30.647 C 80.486 31.565,80.313 31.925,79.792 32.090 C 79.342 32.233,79.084 32.637,79.058 33.241 C 78.980 35.060,78.917 35.210,78.231 35.211 C 77.663 35.212,77.518 35.480,77.430 36.687 C 77.346 37.847,77.188 38.161,76.687 38.161 C 76.306 38.161,75.968 38.493,75.844 38.987 C 75.730 39.441,75.322 39.895,74.939 39.995 C 74.383 40.141,74.241 40.467,74.241 41.598 C 74.241 42.758,74.121 43.018,73.588 43.018 C 72.922 43.018,72.520 43.893,72.511 45.360 C 72.508 45.908,72.300 46.141,71.813 46.141 C 71.222 46.141,71.119 46.372,71.119 47.702 C 71.119 49.032,71.016 49.263,70.425 49.263 C 69.802 49.263,69.567 49.626,69.693 50.398 C 69.717 50.545,69.345 50.815,68.866 50.996 C 68.165 51.263,67.997 51.564,67.997 52.550 C 67.997 53.223,67.852 53.773,67.674 53.773 C 66.983 53.773,66.262 54.918,66.262 56.014 C 66.262 56.897,66.121 57.154,65.655 57.117 C 65.279 57.087,65.008 57.352,64.942 57.814 C 64.883 58.224,64.549 58.634,64.199 58.725 C 63.772 58.837,63.484 59.352,63.326 60.288 C 63.163 61.254,62.884 61.738,62.421 61.859 C 61.898 61.996,61.752 62.343,61.752 63.454 C 61.752 64.643,61.639 64.874,61.058 64.874 C 60.676 64.874,60.340 65.069,60.311 65.308 C 60.282 65.546,60.222 65.898,60.178 66.088 C 60.134 66.279,60.079 66.768,60.057 67.175 C 60.034 67.603,59.724 67.992,59.324 68.097 C 58.908 68.206,58.630 68.570,58.630 69.005 C 58.630 69.492,58.408 69.731,57.957 69.731 C 57.426 69.731,57.235 70.059,57.050 71.292 C 56.868 72.508,56.672 72.853,56.162 72.853 C 55.619 72.853,55.507 73.116,55.507 74.390 C 55.507 75.720,55.402 75.942,54.727 76.038 C 53.953 76.148,53.890 76.293,53.813 78.144 C 53.783 78.853,53.595 79.098,53.079 79.098 C 52.631 79.098,52.385 79.329,52.385 79.751 C 52.385 80.111,52.090 80.482,51.729 80.576 C 51.277 80.695,50.998 81.193,50.831 82.178 C 50.646 83.271,50.433 83.608,49.926 83.608 C 49.373 83.608,49.263 83.863,49.263 85.145 C 49.263 86.475,49.158 86.697,48.482 86.793 C 47.833 86.885,47.684 87.152,47.595 88.378 C 47.509 89.570,47.359 89.853,46.814 89.853 C 46.327 89.853,46.141 90.092,46.141 90.720 C 46.141 91.356,45.955 91.587,45.447 91.587 C 45.065 91.587,44.729 91.782,44.700 92.021 C 44.671 92.259,44.611 92.611,44.567 92.801 C 44.522 92.992,44.468 93.500,44.446 93.929 C 44.418 94.465,44.188 94.709,43.712 94.709 C 43.121 94.709,43.018 94.941,43.018 96.271 C 43.018 97.705,42.948 97.832,42.151 97.832 C 41.674 97.832,41.302 97.949,41.325 98.092 C 41.436 98.797,41.222 99.155,40.590 99.320 C 40.038 99.464,39.896 99.793,39.896 100.922 C 39.896 102.194,39.750 102.415,38.981 102.312 C 38.558 102.256,38.172 103.215,38.167 104.337 C 38.162 105.231,38.018 105.464,37.467 105.464 C 36.878 105.464,36.774 105.695,36.774 107.001 C 36.774 108.331,36.668 108.553,35.993 108.649 C 35.504 108.718,35.173 109.038,35.106 109.505 C 35.048 109.915,34.697 110.330,34.326 110.427 C 33.796 110.565,33.651 110.908,33.651 112.023 C 33.651 113.185,33.532 113.443,32.995 113.443 C 32.247 113.443,31.917 114.089,31.917 115.553 C 31.917 116.334,31.758 116.565,31.223 116.565 C 30.632 116.565,30.529 116.797,30.529 118.127 C 30.529 119.561,30.458 119.688,29.662 119.688 C 29.044 119.688,28.794 119.875,28.794 120.341 C 28.794 120.703,28.485 121.076,28.101 121.176 C 27.552 121.319,27.407 121.649,27.407 122.753 C 27.407 123.937,27.288 124.166,26.626 124.260 C 25.853 124.370,25.790 124.515,25.712 126.366 C 25.682 127.075,25.494 127.320,24.978 127.320 C 24.469 127.320,24.284 127.551,24.284 128.187 C 24.284 128.805,24.097 129.055,23.631 129.055 C 22.965 129.055,22.564 129.929,22.555 131.396 C 22.551 131.944,22.343 132.177,21.856 132.177 C 21.267 132.177,21.162 132.408,21.162 133.714 C 21.162 135.044,21.057 135.266,20.382 135.362 C 19.733 135.454,19.583 135.721,19.494 136.947 C 19.408 138.139,19.259 138.422,18.714 138.422 C 18.271 138.422,18.040 138.660,18.040 139.115 C 18.040 139.497,17.811 139.809,17.532 139.809 C 16.901 139.809,16.305 140.874,16.305 142.001 C 16.305 142.559,16.067 142.913,15.611 143.032 C 15.063 143.176,14.918 143.505,14.918 144.609 C 14.918 145.793,14.799 146.022,14.137 146.116 C 13.341 146.229,13.302 146.316,13.226 148.135 C 13.193 148.930,13.019 149.176,12.489 149.176 C 11.980 149.176,11.795 149.407,11.795 150.043 C 11.795 150.661,11.608 150.911,11.142 150.911 C 10.476 150.911,10.074 151.785,10.065 153.252 C 10.062 153.800,9.854 154.033,9.367 154.033 C 8.776 154.033,8.673 154.264,8.673 155.594 C 8.673 157.028,8.602 157.155,7.806 157.155 C 7.009 157.155,6.938 157.282,6.938 158.716 C 6.938 160.046,6.836 160.278,6.245 160.278 C 5.782 160.278,5.551 160.509,5.551 160.971 C 5.551 161.353,5.406 161.665,5.229 161.665 C 4.569 161.665,3.816 162.788,3.816 163.772 C 3.816 164.556,3.658 164.788,3.122 164.788 C 2.534 164.788,2.428 165.019,2.428 166.308 C 2.428 167.555,2.299 167.863,1.709 168.017 C 1.313 168.121,0.905 168.529,0.801 168.925 C 0.698 169.321,0.475 169.644,0.306 169.644 C 0.138 169.644,0.000 171.362,0.000 173.461 C 0.000 175.773,0.137 177.277,0.347 177.277 C 0.538 177.277,0.694 177.732,0.694 178.289 C 0.694 179.753,1.024 180.399,1.772 180.399 C 2.241 180.399,2.428 180.647,2.428 181.266 C 2.428 181.894,2.615 182.134,3.102 182.134 C 3.647 182.134,3.797 182.416,3.883 183.608 C 3.972 184.834,4.121 185.101,4.770 185.193 C 5.426 185.286,5.551 185.519,5.551 186.644 C 5.551 187.680,5.708 188.035,6.245 188.205 C 6.626 188.326,6.938 188.727,6.938 189.095 C 6.938 189.579,7.180 189.766,7.806 189.766 C 8.602 189.766,8.673 189.893,8.673 191.327 C 8.673 192.657,8.776 192.888,9.367 192.888 C 9.883 192.888,10.071 193.133,10.101 193.842 C 10.178 195.693,10.241 195.838,11.015 195.948 C 11.677 196.042,11.795 196.271,11.795 197.455 C 11.795 198.546,11.943 198.889,12.470 199.027 C 12.841 199.124,13.192 199.539,13.250 199.949 C 13.317 200.415,13.648 200.735,14.137 200.805 C 14.812 200.901,14.918 201.123,14.918 202.453 C 14.918 203.758,15.022 203.990,15.611 203.990 C 16.088 203.990,16.318 204.234,16.345 204.770 C 16.367 205.199,16.422 205.707,16.466 205.898 C 16.510 206.088,16.570 206.440,16.599 206.678 C 16.628 206.917,16.964 207.112,17.346 207.112 C 17.922 207.112,18.040 207.343,18.040 208.476 C 18.040 209.536,18.195 209.890,18.734 210.061 C 19.115 210.182,19.428 210.583,19.428 210.951 C 19.428 211.435,19.669 211.622,20.295 211.622 C 21.092 211.622,21.162 211.749,21.162 213.183 C 21.162 214.497,21.269 214.744,21.836 214.744 C 22.381 214.744,22.530 215.027,22.617 216.219 C 22.705 217.444,22.855 217.712,23.504 217.804 C 24.069 217.884,24.284 218.148,24.284 218.758 C 24.284 219.361,24.476 219.601,24.958 219.601 C 25.503 219.601,25.653 219.883,25.739 221.075 C 25.828 222.301,25.977 222.569,26.626 222.661 C 27.302 222.757,27.407 222.979,27.407 224.309 C 27.407 225.579,27.519 225.846,28.056 225.846 C 28.548 225.846,28.761 226.190,28.933 227.268 C 29.095 228.279,29.359 228.743,29.845 228.870 C 30.221 228.968,30.529 229.343,30.529 229.702 C 30.529 230.124,30.775 230.356,31.223 230.356 C 31.753 230.356,31.927 230.601,31.960 231.396 C 32.036 233.215,32.075 233.302,32.871 233.415 C 33.546 233.511,33.651 233.733,33.651 235.063 C 33.651 236.338,33.763 236.600,34.306 236.600 C 34.815 236.600,35.012 236.946,35.194 238.161 C 35.379 239.394,35.570 239.722,36.101 239.722 C 36.587 239.722,36.774 239.963,36.774 240.590 C 36.774 241.217,36.960 241.457,37.448 241.457 C 37.992 241.457,38.142 241.740,38.228 242.931 C 38.317 244.157,38.466 244.425,39.115 244.517 C 39.777 244.611,39.896 244.840,39.896 246.024 C 39.896 247.111,40.044 247.458,40.565 247.595 C 41.028 247.716,41.307 248.200,41.470 249.166 C 41.631 250.120,41.913 250.616,42.362 250.733 C 42.723 250.828,43.018 251.199,43.018 251.558 C 43.018 251.974,43.263 252.212,43.692 252.212 C 44.237 252.212,44.386 252.494,44.473 253.686 C 44.561 254.912,44.711 255.179,45.360 255.271 C 46.022 255.365,46.141 255.595,46.141 256.778 C 46.141 257.869,46.288 258.213,46.815 258.351 C 47.186 258.448,47.537 258.862,47.595 259.272 C 47.662 259.739,47.994 260.059,48.482 260.128 C 49.158 260.224,49.263 260.446,49.263 261.776 C 49.263 263.082,49.367 263.313,49.957 263.313 C 50.492 263.313,50.650 263.544,50.650 264.325 C 50.650 265.789,50.981 266.435,51.728 266.435 C 52.266 266.435,52.385 266.693,52.385 267.856 C 52.385 268.970,52.530 269.314,53.059 269.452 C 53.430 269.549,53.782 269.964,53.840 270.374 C 53.907 270.840,54.238 271.160,54.727 271.230 C 55.389 271.324,55.507 271.553,55.507 272.737 C 55.507 273.813,55.657 274.172,56.162 274.304 C 56.605 274.420,56.885 274.905,57.029 275.809 C 57.176 276.723,57.461 277.213,57.936 277.364 C 58.457 277.529,58.630 277.889,58.630 278.807 C 58.630 279.727,58.797 280.074,59.304 280.207 C 59.675 280.304,60.026 280.718,60.085 281.128 C 60.151 281.595,60.483 281.915,60.971 281.984 C 61.647 282.080,61.752 282.302,61.752 283.632 C 61.752 284.907,61.864 285.169,62.406 285.169 C 62.916 285.169,63.113 285.514,63.295 286.730 C 63.480 287.963,63.670 288.291,64.202 288.291 C 64.758 288.291,64.874 288.538,64.874 289.712 C 64.874 290.819,65.021 291.170,65.539 291.305 C 65.904 291.401,66.297 291.855,66.413 292.314 C 66.546 292.844,66.873 293.148,67.309 293.148 C 67.878 293.148,67.997 293.384,67.997 294.513 C 67.997 295.553,68.155 295.927,68.662 296.088 C 69.108 296.230,69.405 296.753,69.560 297.673 C 69.736 298.713,69.953 299.046,70.455 299.046 C 70.932 299.046,71.119 299.291,71.119 299.913 C 71.119 300.549,71.304 300.781,71.813 300.781 C 72.348 300.781,72.507 301.012,72.507 301.793 C 72.507 303.257,72.837 303.903,73.584 303.903 C 74.122 303.903,74.241 304.161,74.241 305.323 C 74.241 306.440,74.386 306.781,74.919 306.920 C 75.411 307.049,75.660 307.516,75.826 308.623 C 76.003 309.805,76.202 310.147,76.709 310.147 C 77.142 310.147,77.363 310.393,77.363 310.874 C 77.363 311.294,77.639 311.672,78.018 311.771 C 78.467 311.889,78.742 312.378,78.895 313.335 C 79.052 314.317,79.319 314.780,79.802 314.906 C 80.332 315.045,80.486 315.383,80.486 316.409 C 80.486 317.428,80.645 317.784,81.179 317.953 C 81.654 318.104,81.940 318.593,82.086 319.507 C 82.230 320.411,82.511 320.897,82.954 321.013 C 83.332 321.112,83.608 321.490,83.608 321.910 C 83.608 322.440,83.827 322.637,84.416 322.637 C 84.955 322.637,85.223 322.839,85.222 323.244 C 85.213 325.303,85.360 325.759,86.036 325.759 C 86.670 325.759,87.012 327.094,86.771 328.621 C 86.749 328.764,87.033 328.881,87.403 328.881 C 87.934 328.881,88.125 329.209,88.310 330.442 C 88.492 331.658,88.688 332.003,89.198 332.003 C 89.625 332.003,89.853 332.249,89.853 332.708 C 89.853 333.096,90.126 333.514,90.460 333.637 C 91.316 333.953,91.576 334.438,91.582 335.733 C 91.586 336.627,91.731 336.860,92.281 336.860 C 92.843 336.860,92.975 337.092,92.975 338.082 C 92.975 339.048,93.156 339.386,93.842 339.699 C 94.319 339.916,94.709 340.381,94.709 340.732 C 94.709 341.139,94.961 341.370,95.403 341.370 C 95.994 341.370,96.097 341.602,96.097 342.931 C 96.097 344.365,96.168 344.493,96.964 344.493 C 97.724 344.493,97.832 344.643,97.832 345.707 L 97.832 346.921 200.173 346.921 L 302.515 346.921 302.515 345.707 C 302.515 344.724,302.647 344.493,303.209 344.493 C 303.664 344.493,303.903 344.261,303.903 343.822 C 303.903 343.453,304.215 343.053,304.596 342.932 C 305.072 342.781,305.357 342.292,305.503 341.377 C 305.648 340.474,305.928 339.988,306.371 339.872 C 306.875 339.740,307.025 339.381,307.025 338.305 C 307.025 337.121,307.144 336.892,307.806 336.798 C 308.294 336.728,308.626 336.408,308.693 335.942 C 308.751 335.532,309.102 335.117,309.473 335.020 C 310.002 334.882,310.147 334.538,310.147 333.424 C 310.147 332.262,310.267 332.003,310.804 332.003 C 311.552 332.003,311.882 331.357,311.882 329.894 C 311.882 329.112,312.041 328.881,312.576 328.881 C 313.167 328.881,313.270 328.650,313.270 327.320 C 313.270 325.886,313.340 325.759,314.137 325.759 C 314.768 325.759,315.004 325.573,315.004 325.077 C 315.004 324.702,315.317 324.229,315.698 324.024 C 316.172 323.771,316.392 323.298,316.392 322.533 C 316.392 321.705,316.595 321.324,317.173 321.071 C 317.740 320.822,317.982 320.383,318.059 319.463 C 318.135 318.554,318.355 318.148,318.839 318.021 C 319.367 317.883,319.514 317.540,319.514 316.449 C 319.514 315.265,319.633 315.036,320.295 314.942 C 320.784 314.872,321.115 314.552,321.182 314.086 C 321.240 313.676,321.591 313.261,321.962 313.164 C 322.489 313.026,322.637 312.683,322.637 311.592 C 322.637 310.408,322.755 310.179,323.417 310.085 C 324.066 309.993,324.216 309.725,324.304 308.500 C 324.391 307.308,324.540 307.025,325.085 307.025 C 325.652 307.025,325.759 306.778,325.759 305.464 C 325.759 304.030,325.830 303.903,326.626 303.903 C 327.252 303.903,327.493 303.716,327.493 303.232 C 327.493 302.864,327.806 302.463,328.187 302.342 C 328.723 302.172,328.881 301.817,328.881 300.781 C 328.881 299.656,329.006 299.423,329.662 299.330 C 330.311 299.238,330.460 298.971,330.549 297.745 C 330.635 296.553,330.785 296.271,331.330 296.271 C 331.808 296.271,332.003 296.031,332.003 295.444 C 332.003 294.913,332.248 294.553,332.688 294.438 C 333.173 294.311,333.438 293.847,333.599 292.836 C 333.772 291.758,333.984 291.414,334.476 291.414 C 335.013 291.414,335.126 291.147,335.126 289.877 C 335.126 288.547,335.231 288.325,335.906 288.229 C 336.555 288.137,336.705 287.869,336.794 286.644 C 336.880 285.452,337.029 285.169,337.574 285.169 C 338.062 285.169,338.248 284.929,338.248 284.302 C 338.248 283.679,338.435 283.435,338.911 283.435 C 339.414 283.435,339.631 283.101,339.807 282.061 C 339.962 281.142,340.259 280.618,340.705 280.477 C 341.210 280.316,341.370 279.942,341.370 278.925 C 341.370 277.800,341.495 277.567,342.151 277.474 C 342.800 277.382,342.949 277.115,343.038 275.889 C 343.124 274.697,343.274 274.415,343.819 274.415 C 344.297 274.415,344.493 274.175,344.493 273.588 C 344.493 273.057,344.737 272.697,345.177 272.582 C 345.663 272.455,345.927 271.991,346.088 270.980 C 346.261 269.902,346.473 269.558,346.965 269.558 C 347.502 269.558,347.615 269.291,347.615 268.021 C 347.615 266.691,347.720 266.469,348.395 266.373 C 348.884 266.303,349.216 265.983,349.282 265.517 C 349.341 265.107,349.692 264.692,350.063 264.595 C 350.562 264.465,350.737 264.116,350.737 263.254 C 350.737 262.380,350.931 262.005,351.518 261.747 C 352.120 261.483,352.323 261.069,352.405 259.931 C 352.491 258.739,352.641 258.456,353.186 258.456 C 353.753 258.456,353.859 258.210,353.859 256.895 C 353.859 255.461,353.930 255.334,354.727 255.334 C 355.345 255.334,355.594 255.146,355.594 254.681 C 355.594 254.319,355.904 253.946,356.288 253.846 C 356.839 253.702,356.982 253.373,356.982 252.244 C 356.982 251.082,357.101 250.824,357.639 250.824 C 358.386 250.824,358.716 250.178,358.716 248.714 C 358.716 247.933,358.875 247.702,359.410 247.702 C 360.000 247.702,360.104 247.470,360.104 246.165 C 360.104 244.835,360.209 244.613,360.885 244.517 C 361.373 244.447,361.705 244.127,361.771 243.661 C 361.830 243.251,362.181 242.836,362.552 242.739 C 363.081 242.601,363.226 242.257,363.226 241.143 C 363.226 239.980,363.346 239.722,363.883 239.722 C 364.631 239.722,364.961 239.076,364.961 237.613 C 364.961 236.831,365.119 236.600,365.655 236.600 C 366.246 236.600,366.349 236.369,366.349 235.039 C 366.349 233.605,366.419 233.478,367.216 233.478 C 367.834 233.478,368.083 233.290,368.083 232.825 C 368.083 232.463,368.393 232.090,368.777 231.990 C 369.326 231.846,369.471 231.516,369.471 230.412 C 369.471 229.229,369.590 228.999,370.252 228.905 C 370.900 228.813,371.050 228.546,371.139 227.320 C 371.225 226.128,371.375 225.846,371.919 225.846 C 372.407 225.846,372.593 225.606,372.593 224.978 C 372.593 224.360,372.781 224.111,373.247 224.111 C 373.912 224.111,374.314 223.237,374.323 221.769 C 374.326 221.222,374.535 220.989,375.022 220.989 C 375.613 220.989,375.716 220.757,375.716 219.428 C 375.716 217.994,375.786 217.866,376.583 217.866 C 377.379 217.866,377.450 217.739,377.450 216.305 C 377.450 214.975,377.553 214.744,378.144 214.744 C 378.592 214.744,378.838 214.513,378.838 214.091 C 378.838 213.731,379.146 213.357,379.522 213.258 C 380.005 213.132,380.272 212.669,380.429 211.687 C 380.582 210.731,380.856 210.241,381.306 210.123 C 381.810 209.991,381.960 209.632,381.960 208.556 C 381.960 207.373,382.079 207.143,382.741 207.049 C 383.390 206.957,383.539 206.690,383.628 205.464 C 383.714 204.272,383.864 203.990,384.408 203.990 C 384.896 203.990,385.082 203.750,385.082 203.122 C 385.082 202.504,385.270 202.255,385.736 202.255 C 386.401 202.255,386.803 201.381,386.812 199.913 C 386.816 199.366,387.024 199.133,387.511 199.133 C 388.102 199.133,388.205 198.901,388.205 197.572 C 388.205 196.138,388.275 196.010,389.072 196.010 C 389.869 196.010,389.939 195.883,389.939 194.449 C 389.939 193.119,390.042 192.888,390.633 192.888 C 391.096 192.888,391.327 192.657,391.327 192.194 C 391.327 191.813,391.556 191.500,391.835 191.500 C 392.474 191.500,393.062 190.432,393.062 189.268 C 393.062 188.609,393.242 188.378,393.755 188.378 C 394.345 188.378,394.449 188.147,394.449 186.841 C 394.449 185.511,394.554 185.289,395.230 185.193 C 395.719 185.124,396.050 184.804,396.117 184.337 C 396.175 183.927,396.526 183.513,396.897 183.416 C 397.424 183.278,397.572 182.934,397.572 181.843 C 397.572 180.660,397.690 180.430,398.352 180.336 C 399.001 180.244,399.151 179.977,399.239 178.751 C 399.298 177.940,399.493 177.277,399.673 177.277 C 399.858 177.277,400.000 175.618,400.000 173.461 C 400.000 171.148,399.863 169.644,399.653 169.644 C 399.462 169.644,399.306 169.189,399.306 168.632 C 399.306 167.168,398.976 166.522,398.228 166.522 C 397.759 166.522,397.572 166.274,397.572 165.655 C 397.572 165.027,397.385 164.788,396.898 164.788 C 396.353 164.788,396.203 164.505,396.117 163.313 C 396.028 162.087,395.879 161.820,395.230 161.728 C 394.568 161.634,394.449 161.405,394.449 160.221 C 394.449 159.117,394.304 158.787,393.755 158.643 C 393.371 158.543,393.062 158.170,393.062 157.809 C 393.062 157.343,392.812 157.155,392.194 157.155 C 391.398 157.155,391.327 157.028,391.327 155.594 C 391.327 154.280,391.220 154.033,390.653 154.033 C 390.108 154.033,389.959 153.751,389.873 152.559 C 389.784 151.333,389.634 151.065,388.985 150.973 C 388.323 150.879,388.205 150.650,388.205 149.466 C 388.205 148.376,388.057 148.032,387.530 147.894 C 387.159 147.797,386.808 147.382,386.750 146.972 C 386.683 146.506,386.352 146.186,385.863 146.116 C 385.188 146.020,385.082 145.798,385.082 144.468 C 385.082 143.163,384.978 142.931,384.389 142.931 C 383.853 142.931,383.695 142.700,383.695 141.919 C 383.695 140.455,383.365 139.809,382.617 139.809 C 382.084 139.809,381.960 139.552,381.960 138.445 C 381.960 137.385,381.805 137.031,381.266 136.860 C 380.885 136.739,380.572 136.338,380.572 135.970 C 380.572 135.486,380.331 135.299,379.705 135.299 C 378.908 135.299,378.838 135.172,378.838 133.738 C 378.838 132.424,378.731 132.177,378.164 132.177 C 377.619 132.177,377.470 131.894,377.383 130.703 C 377.295 129.477,377.145 129.209,376.496 129.117 C 375.834 129.023,375.716 128.794,375.716 127.610 C 375.716 126.520,375.568 126.176,375.041 126.038 C 374.670 125.941,374.319 125.526,374.261 125.116 C 374.194 124.650,373.862 124.330,373.374 124.260 C 372.698 124.164,372.593 123.942,372.593 122.612 C 372.593 121.342,372.481 121.075,371.944 121.075 C 371.452 121.075,371.239 120.731,371.067 119.653 C 370.905 118.643,370.641 118.178,370.155 118.051 C 369.779 117.953,369.471 117.578,369.471 117.219 C 369.471 116.797,369.225 116.565,368.777 116.565 C 368.186 116.565,368.083 116.334,368.083 115.004 C 368.083 113.570,368.013 113.443,367.216 113.443 C 366.419 113.443,366.349 113.316,366.349 111.882 C 366.349 110.584,366.239 110.321,365.694 110.321 C 365.185 110.321,364.988 109.976,364.806 108.760 C 364.621 107.527,364.430 107.199,363.899 107.199 C 363.413 107.199,363.226 106.958,363.226 106.331 C 363.226 105.704,363.040 105.464,362.552 105.464 C 362.008 105.464,361.858 105.182,361.772 103.990 C 361.683 102.764,361.534 102.496,360.885 102.404 C 360.223 102.310,360.104 102.081,360.104 100.897 C 360.104 99.810,359.956 99.463,359.435 99.326 C 358.972 99.205,358.693 98.721,358.530 97.755 C 358.369 96.801,358.087 96.305,357.638 96.188 C 357.277 96.093,356.982 95.722,356.982 95.363 C 356.982 94.947,356.737 94.709,356.308 94.709 C 355.763 94.709,355.614 94.427,355.527 93.235 C 355.439 92.009,355.289 91.742,354.640 91.650 C 353.965 91.554,353.859 91.332,353.859 90.002 C 353.859 88.727,353.748 88.465,353.205 88.465 C 352.695 88.465,352.499 88.120,352.316 86.904 C 352.132 85.671,351.941 85.343,351.410 85.343 C 350.924 85.343,350.737 85.102,350.737 84.475 C 350.737 83.839,350.552 83.608,350.043 83.608 C 349.508 83.608,349.350 83.377,349.350 82.596 C 349.350 81.142,349.020 80.486,348.292 80.486 C 347.790 80.486,347.632 80.172,347.548 79.011 C 347.465 77.856,347.310 77.547,346.834 77.585 C 346.417 77.618,346.227 77.382,346.227 76.829 C 346.227 76.258,346.000 75.992,345.447 75.913 C 344.801 75.821,344.648 75.553,344.561 74.364 C 344.482 73.281,344.289 72.881,343.781 72.748 C 343.337 72.632,343.105 72.272,343.105 71.700 C 343.105 70.375,342.753 69.731,342.027 69.731 C 341.490 69.731,341.370 69.473,341.370 68.311 C 341.370 67.196,341.225 66.853,340.696 66.714 C 340.325 66.617,339.974 66.203,339.915 65.793 C 339.849 65.326,339.517 65.006,339.029 64.937 C 338.353 64.841,338.248 64.619,338.248 63.289 C 338.248 61.983,338.144 61.752,337.554 61.752 C 337.019 61.752,336.860 61.521,336.860 60.740 C 336.860 59.276,336.530 58.630,335.782 58.630 C 335.245 58.630,335.126 58.372,335.126 57.209 C 335.126 56.081,334.983 55.752,334.432 55.608 C 334.050 55.508,333.738 55.135,333.738 54.780 C 333.738 54.379,333.408 54.050,332.871 53.915 C 332.135 53.731,332.003 53.497,332.003 52.371 C 332.003 51.349,331.844 50.994,331.310 50.824 C 330.845 50.677,330.614 50.296,330.610 49.673 C 330.604 48.571,330.313 48.078,329.488 47.774 C 329.063 47.617,328.881 47.173,328.881 46.292 C 328.881 45.339,328.718 44.992,328.207 44.858 C 327.836 44.761,327.485 44.347,327.426 43.937 C 327.360 43.470,327.028 43.150,326.539 43.081 C 325.864 42.985,325.759 42.763,325.759 41.433 C 325.759 40.158,325.647 39.896,325.104 39.896 C 324.595 39.896,324.398 39.551,324.216 38.335 C 324.031 37.102,323.840 36.774,323.309 36.774 C 322.876 36.774,322.637 36.535,322.637 36.103 C 322.637 35.734,322.324 35.334,321.943 35.212 C 321.404 35.041,321.249 34.688,321.249 33.628 C 321.249 32.878,321.093 32.244,320.902 32.220 C 320.711 32.196,320.360 32.157,320.121 32.134 C 319.869 32.108,319.643 31.480,319.582 30.633 C 319.505 29.574,319.299 29.120,318.829 28.971 C 318.408 28.837,318.104 28.298,317.956 27.426 C 317.802 26.512,317.518 26.032,317.061 25.912 C 316.669 25.810,316.392 25.436,316.392 25.011 C 316.392 24.523,316.171 24.284,315.718 24.284 C 315.173 24.284,315.024 24.002,314.938 22.810 C 314.849 21.584,314.699 21.317,314.050 21.225 C 313.375 21.129,313.270 20.907,313.270 19.577 C 313.270 18.302,313.158 18.040,312.615 18.040 C 312.106 18.040,311.909 17.695,311.727 16.479 C 311.542 15.246,311.351 14.918,310.820 14.918 C 310.387 14.918,310.147 14.679,310.147 14.247 C 310.147 13.878,309.844 13.480,309.473 13.363 C 308.971 13.203,308.771 12.774,308.692 11.691 C 308.631 10.844,308.405 10.216,308.153 10.191 C 307.914 10.167,307.563 10.128,307.372 10.104 C 307.181 10.080,307.025 9.447,307.025 8.696 C 307.025 7.637,306.870 7.283,306.331 7.112 C 305.950 6.991,305.637 6.590,305.637 6.221 C 305.637 5.737,305.396 5.551,304.770 5.551 C 303.974 5.551,303.903 5.424,303.903 3.990 C 303.903 2.660,303.800 2.428,303.209 2.428 C 302.647 2.428,302.515 2.197,302.515 1.214 L 302.515 0.000 200.173 0.000 L 97.832 0.000 97.832 1.214 M302.099 34.761 C 303.123 35.785,302.465 43.091,301.090 45.970 C 300.092 48.061,296.899 51.686,296.053 51.689 C 295.838 51.690,295.474 51.917,295.246 52.193 C 295.017 52.468,294.022 52.957,293.035 53.279 C 292.048 53.601,291.021 54.039,290.753 54.252 C 289.034 55.619,276.100 54.418,271.639 52.477 C 269.190 51.411,266.136 51.481,263.819 52.658 C 261.657 53.755,258.456 56.448,258.456 57.169 C 258.456 57.698,257.919 57.614,263.140 57.894 C 272.565 58.399,272.439 57.932,273.370 95.750 C 273.546 102.905,273.848 109.696,274.041 110.841 C 274.235 111.986,274.568 118.075,274.782 124.371 C 274.996 130.668,275.404 140.581,275.690 146.401 C 275.975 152.220,276.313 159.402,276.441 162.359 C 276.569 165.317,276.799 167.931,276.952 168.170 C 277.297 168.706,280.331 168.741,282.684 168.237 C 287.798 167.140,291.810 169.395,292.658 173.844 C 293.370 177.574,293.361 246.770,292.649 250.091 C 291.971 253.251,290.713 254.429,287.251 255.143 C 283.332 255.952,96.615 255.961,92.628 255.153 C 89.712 254.562,88.369 253.457,87.791 251.173 C 87.301 249.237,87.112 177.882,87.590 175.369 C 88.331 171.475,91.038 168.560,96.618 165.646 C 97.190 165.347,98.907 164.341,100.434 163.409 C 101.960 162.478,104.926 160.740,107.025 159.546 C 109.124 158.353,111.037 157.181,111.277 156.942 C 111.517 156.703,112.060 156.397,112.485 156.262 C 112.909 156.127,113.650 155.747,114.130 155.418 C 114.611 155.089,115.785 154.334,116.739 153.741 C 117.693 153.149,118.630 152.542,118.820 152.394 C 119.011 152.246,119.714 151.849,120.382 151.512 C 121.049 151.175,122.298 150.434,123.157 149.867 C 124.016 149.299,125.147 148.662,125.672 148.451 C 126.197 148.240,126.626 147.944,126.626 147.792 C 126.626 147.641,127.220 147.279,127.947 146.988 C 128.673 146.698,129.473 146.212,129.724 145.910 C 129.975 145.607,130.356 145.357,130.572 145.354 C 130.908 145.348,131.662 144.893,134.605 142.920 C 134.892 142.728,135.620 142.301,136.223 141.970 C 137.699 141.164,139.754 139.939,141.023 139.110 C 141.596 138.736,142.611 138.161,143.278 137.832 C 143.946 137.504,144.753 137.020,145.072 136.759 C 145.796 136.164,147.625 135.095,149.030 134.445 C 149.618 134.174,150.300 133.708,150.547 133.411 C 150.794 133.114,151.153 132.871,151.346 132.871 C 151.538 132.871,152.261 132.521,152.951 132.095 C 157.785 129.106,161.538 129.757,162.899 133.820 C 163.501 135.618,163.587 137.191,163.745 149.419 C 163.929 163.711,164.023 164.510,165.386 163.341 C 165.725 163.051,166.938 162.292,168.083 161.655 C 169.228 161.018,170.248 160.375,170.350 160.227 C 170.452 160.079,171.077 159.711,171.738 159.411 C 172.399 159.110,173.643 158.402,174.501 157.837 C 175.360 157.272,176.531 156.570,177.103 156.276 C 177.676 155.982,178.846 155.280,179.705 154.715 C 180.564 154.150,181.735 153.448,182.307 153.154 C 182.879 152.860,184.050 152.157,184.909 151.593 C 185.768 151.028,186.967 150.334,187.574 150.050 C 188.181 149.766,188.777 149.373,188.899 149.176 C 189.020 148.979,189.616 148.578,190.223 148.285 C 191.876 147.486,193.508 146.547,194.102 146.054 C 194.697 145.561,196.329 144.622,197.981 143.823 C 198.589 143.529,199.185 143.128,199.306 142.931 C 199.428 142.735,200.024 142.334,200.631 142.040 C 202.232 141.266,203.910 140.307,204.456 139.854 C 204.716 139.638,205.694 139.059,206.628 138.569 C 208.231 137.726,209.105 137.191,212.248 135.126 C 212.973 134.649,213.735 134.258,213.940 134.258 C 214.145 134.258,214.497 134.035,214.724 133.763 C 214.950 133.490,216.725 132.779,218.669 132.182 C 220.613 131.585,222.682 130.949,223.268 130.769 C 225.869 129.971,226.275 130.238,226.725 133.044 C 226.847 133.807,227.207 134.978,227.524 135.646 C 228.026 136.703,228.123 138.873,228.274 152.434 C 228.466 169.640,228.399 169.182,230.583 168.414 C 232.100 167.880,232.291 166.436,232.919 150.737 C 233.240 142.723,233.664 135.074,233.861 133.738 C 234.058 132.402,234.356 126.158,234.523 119.861 C 234.690 113.565,235.055 104.198,235.334 99.046 C 235.613 93.894,236.022 84.424,236.244 78.001 C 236.913 58.658,237.140 58.233,246.943 57.936 C 251.563 57.796,252.706 57.663,252.904 57.242 C 253.410 56.170,254.595 53.525,255.547 51.344 C 258.961 43.518,265.435 40.802,275.427 43.004 C 279.681 43.941,287.224 43.156,291.067 41.376 C 294.352 39.855,295.905 38.801,298.577 36.284 C 300.648 34.332,301.361 34.024,302.099 34.761 M248.755 70.749 C 248.557 71.118,248.395 72.130,248.395 72.997 C 248.395 74.993,248.381 74.989,255.334 74.861 L 260.711 74.761 260.815 72.765 C 260.950 70.182,260.692 70.078,254.109 70.078 C 249.525 70.078,249.084 70.133,248.755 70.749 M247.586 88.031 C 247.415 88.315,247.190 93.178,246.660 108.066 C 246.469 113.408,246.145 119.029,245.939 120.555 C 245.733 122.082,245.431 128.482,245.268 134.779 C 245.106 141.075,244.713 150.877,244.396 156.559 C 243.941 164.700,243.908 166.999,244.241 167.400 C 244.958 168.264,263.338 168.146,264.129 167.273 C 264.757 166.578,263.996 141.229,262.236 104.250 C 262.036 100.052,261.797 94.747,261.704 92.462 C 261.596 89.801,261.387 88.211,261.123 88.044 C 260.587 87.702,247.791 87.691,247.586 88.031 M150.134 147.574 C 149.854 147.854,149.094 148.331,148.446 148.632 C 147.798 148.934,146.644 149.560,145.880 150.023 C 144.481 150.872,143.132 151.684,140.784 153.092 C 140.080 153.514,138.363 154.532,136.968 155.353 C 135.573 156.175,133.729 157.301,132.871 157.856 C 132.012 158.410,130.841 159.104,130.269 159.398 C 129.696 159.692,128.526 160.395,127.667 160.959 C 126.808 161.524,125.637 162.228,125.065 162.524 C 124.493 162.819,122.775 163.833,121.249 164.777 C 119.722 165.720,117.927 166.815,117.259 167.209 C 116.592 167.604,115.421 168.314,114.657 168.787 C 113.894 169.261,112.723 169.970,112.056 170.363 C 111.388 170.756,110.217 171.452,109.454 171.909 C 108.690 172.366,107.641 172.981,107.121 173.277 C 105.920 173.962,103.683 175.425,103.135 175.886 C 102.904 176.080,102.316 176.421,101.829 176.642 C 101.328 176.871,100.493 177.877,99.908 178.958 L 98.873 180.869 98.873 211.498 C 98.873 241.424,98.888 242.135,99.544 242.486 C 99.920 242.687,102.484 242.845,105.386 242.845 L 110.556 242.845 110.959 241.961 C 111.246 241.330,111.362 236.380,111.362 224.659 L 111.362 208.240 112.217 206.722 C 112.687 205.887,113.662 204.735,114.385 204.163 L 115.698 203.122 140.862 203.122 L 166.026 203.122 167.286 204.163 C 167.978 204.735,168.909 205.668,169.355 206.236 L 170.165 207.268 170.338 224.969 C 170.434 234.705,170.638 242.866,170.792 243.105 C 171.268 243.840,279.725 243.730,280.461 242.993 C 281.301 242.154,281.292 181.428,280.452 180.588 C 279.973 180.109,243.745 179.969,231.396 180.397 C 230.435 180.431,221.697 179.848,221.447 179.733 C 221.413 179.718,221.179 179.508,220.927 179.267 C 220.675 179.026,220.077 178.579,219.600 178.274 C 219.122 177.969,218.341 176.956,217.865 176.024 L 216.999 174.328 216.894 160.867 C 216.772 145.315,216.988 146.126,213.530 148.240 C 213.148 148.474,212.056 149.123,211.101 149.684 C 210.147 150.245,209.289 150.811,209.193 150.942 C 209.098 151.073,208.474 151.432,207.806 151.740 C 207.138 152.048,205.889 152.760,205.030 153.321 C 204.172 153.882,202.376 154.984,201.041 155.770 C 197.053 158.116,194.161 159.861,193.594 160.261 C 193.301 160.469,192.561 160.909,191.948 161.239 C 191.336 161.569,189.640 162.541,188.180 163.400 C 185.705 164.855,185.001 165.274,181.787 167.206 C 181.119 167.607,179.948 168.310,179.185 168.767 C 177.639 169.693,176.006 170.674,174.094 171.826 C 172.276 172.920,167.036 175.960,165.822 176.624 C 165.258 176.932,164.582 177.362,164.320 177.580 C 163.419 178.327,157.376 180.019,155.532 180.040 C 154.023 180.057,153.464 179.373,153.189 177.172 C 153.060 176.141,152.729 174.547,152.453 173.630 C 152.064 172.337,151.942 169.425,151.910 160.656 C 151.862 147.271,151.691 146.016,150.134 147.574 M222.606 189.040 C 223.404 189.255,224.518 189.980,225.334 190.816 L 226.713 192.228 226.713 202.773 L 226.713 213.318 225.565 214.503 C 224.933 215.154,223.822 215.866,223.096 216.083 C 221.373 216.599,188.175 216.645,187.858 216.132 C 187.740 215.941,187.366 215.785,187.028 215.785 C 184.243 215.785,183.260 212.145,183.322 202.059 C 183.390 191.085,184.094 189.408,188.884 188.810 C 192.040 188.416,221.022 188.614,222.606 189.040 M272.945 189.107 C 276.322 190.032,277.537 193.325,277.537 201.561 C 277.537 215.444,276.408 216.143,253.599 216.370 C 232.771 216.578,233.310 216.975,233.554 201.638 C 233.724 190.970,234.386 189.368,238.860 188.807 C 242.221 188.386,271.244 188.641,272.945 189.107 M195.493 201.888 C 194.992 204.855,194.458 204.706,205.278 204.602 C 216.056 204.498,215.869 204.547,215.246 202.022 L 214.918 200.694 205.322 200.602 L 195.726 200.510 195.493 201.888 M246.796 201.198 C 245.846 201.593,245.557 202.392,245.970 203.478 L 246.301 204.348 255.579 204.255 L 264.858 204.163 265.195 203.204 C 265.904 201.187,265.336 201.050,255.929 200.967 C 251.309 200.927,247.199 201.031,246.796 201.198 M123.560 215.975 C 123.126 216.926,123.039 240.346,123.461 242.324 L 123.683 243.365 128.708 243.462 C 133.129 243.547,133.785 243.487,134.169 242.962 C 134.784 242.121,134.803 216.121,134.189 215.507 C 133.905 215.223,132.220 215.091,128.867 215.091 L 123.962 215.091 123.560 215.975 M147.653 215.743 C 147.010 216.454,146.918 242.437,147.556 243.076 C 148.344 243.866,157.406 243.620,157.985 242.793 C 158.893 241.497,158.823 216.492,157.909 215.665 C 156.907 214.759,148.486 214.822,147.653 215.743 " stroke="none" fill="#fc9c64" fill-rule="evenodd"></path></g></svg>