<svg id="svg" version="1.1" xmlns="http://www.w3.org/2000/svg" xmlns:xlink="http://www.w3.org/1999/xlink" width="400" height="346.875" viewBox="0, 0, 400,346.875"><g id="svgg"><path id="path0" d="M234.866 81.325 C 232.862 81.565,230.520 81.950,229.662 82.178 C 228.803 82.407,227.086 82.810,225.846 83.073 C 222.494 83.785,215.621 85.987,214.050 86.852 C 213.573 87.115,212.715 87.441,212.142 87.577 C 211.570 87.714,210.867 88.015,210.581 88.247 C 210.295 88.479,209.436 88.876,208.673 89.130 C 207.910 89.383,207.051 89.787,206.765 90.028 C 206.479 90.268,205.854 90.579,205.377 90.720 C 204.900 90.860,204.276 91.165,203.990 91.398 C 203.703 91.630,202.962 92.021,202.342 92.266 C 201.722 92.511,201.214 92.839,201.214 92.994 C 201.214 93.150,200.668 93.474,200.000 93.716 C 199.332 93.957,198.786 94.255,198.786 94.377 C 198.786 94.498,198.356 94.792,197.832 95.029 C 197.307 95.266,196.040 96.033,195.016 96.733 C 193.992 97.433,192.901 98.161,192.591 98.352 C 192.280 98.543,191.126 99.363,190.025 100.173 C 188.924 100.984,187.945 101.648,187.848 101.648 C 187.692 101.648,181.203 106.981,176.558 110.928 C 174.582 112.606,173.083 112.859,171.912 111.710 C 165.911 105.828,165.145 105.774,159.653 110.851 C 155.435 114.750,131.368 138.829,128.448 142.071 C 124.794 146.129,125.165 148.019,130.703 153.566 C 131.999 154.865,131.690 155.695,128.659 159.063 C 127.113 160.781,125.142 163.083,124.278 164.180 C 123.414 165.278,122.594 166.175,122.454 166.175 C 122.315 166.175,122.011 166.632,121.780 167.191 C 121.548 167.750,121.139 168.291,120.870 168.394 C 120.601 168.497,120.382 168.741,120.382 168.936 C 120.382 169.130,119.718 170.190,118.907 171.291 C 118.096 172.392,117.277 173.547,117.086 173.857 C 116.895 174.167,116.154 175.275,115.438 176.318 C 114.722 177.362,114.137 178.365,114.137 178.548 C 114.137 178.731,113.858 179.183,113.517 179.553 C 113.176 179.923,112.689 180.733,112.434 181.353 C 112.180 181.973,111.849 182.480,111.700 182.480 C 111.551 182.480,111.256 182.978,111.044 183.585 C 110.832 184.193,110.447 184.935,110.187 185.233 C 109.927 185.532,109.527 186.362,109.297 187.077 C 109.067 187.793,108.760 188.378,108.615 188.378 C 108.469 188.378,108.142 189.042,107.886 189.853 C 107.631 190.663,107.228 191.561,106.991 191.847 C 106.753 192.134,106.446 192.836,106.308 193.408 C 106.170 193.981,105.775 194.996,105.431 195.663 C 105.087 196.331,104.557 197.658,104.254 198.612 C 103.950 199.566,103.381 201.362,102.989 202.602 C 102.598 203.842,102.044 206.028,101.759 207.459 C 101.475 208.890,101.035 210.763,100.784 211.622 C 99.264 216.803,99.389 226.702,100.991 228.018 C 104.326 230.758,104.467 230.651,126.660 208.551 C 137.322 197.933,147.335 187.987,148.912 186.449 C 150.488 184.910,152.602 182.764,153.608 181.678 C 156.044 179.052,156.499 179.082,159.480 182.063 C 162.928 185.511,166.309 186.869,166.994 185.082 C 167.104 184.796,167.403 184.562,167.657 184.562 C 168.098 184.562,189.764 162.962,199.325 152.992 C 201.795 150.416,203.933 148.257,204.076 148.193 C 205.130 147.725,203.883 143.837,202.102 142.037 C 197.362 137.247,196.145 139.333,214.310 121.109 C 230.126 105.242,242.523 92.645,245.200 89.721 C 246.730 88.050,247.675 85.162,247.190 83.636 C 246.427 81.232,242.214 80.442,234.866 81.325 M134.086 102.820 C 131.835 103.616,124.490 110.425,123.000 113.096 C 119.470 119.424,120.024 125.040,124.668 130.009 C 126.435 131.899,126.296 132.002,138.515 119.762 C 151.216 107.041,150.758 107.745,147.845 105.391 C 143.846 102.159,138.682 101.194,134.086 102.820 M192.273 172.507 C 186.341 178.469,181.142 183.792,180.719 184.335 L 179.950 185.322 231.779 237.177 C 261.308 266.721,284.162 289.321,284.895 289.703 C 286.311 290.440,288.409 290.550,290.546 289.998 C 291.310 289.801,292.512 289.493,293.218 289.314 C 297.219 288.301,303.252 283.900,305.133 280.622 C 306.452 278.325,308.066 274.800,308.070 274.211 C 308.072 273.846,308.306 272.781,308.590 271.844 C 309.407 269.151,309.267 267.450,308.101 265.880 C 306.413 263.609,204.196 161.665,203.607 161.665 C 203.304 161.665,198.204 166.544,192.273 172.507 " stroke="none" fill="#fcfafa" fill-rule="evenodd"></path><path id="path1" d="M97.832 1.214 C 97.832 2.278,97.724 2.428,96.964 2.428 C 96.487 2.428,96.116 2.546,96.138 2.689 C 96.379 4.216,96.036 5.551,95.403 5.551 C 94.868 5.551,94.709 5.782,94.709 6.563 C 94.709 8.027,94.379 8.673,93.632 8.673 C 93.214 8.673,92.975 8.917,92.975 9.343 C 92.975 9.712,92.663 10.113,92.281 10.234 C 91.747 10.404,91.587 10.759,91.587 11.781 C 91.587 12.907,91.456 13.141,90.720 13.325 C 89.976 13.512,89.853 13.740,89.853 14.924 C 89.853 16.074,89.736 16.305,89.159 16.305 C 88.672 16.305,88.463 16.538,88.460 17.086 C 88.452 18.479,88.068 19.360,87.392 19.536 C 87.007 19.637,86.730 20.013,86.730 20.436 C 86.730 20.916,86.509 21.162,86.076 21.162 C 85.566 21.162,85.370 21.508,85.187 22.723 C 85.002 23.956,84.812 24.284,84.281 24.284 C 83.911 24.284,83.626 24.402,83.649 24.545 C 83.885 26.042,83.546 27.407,82.938 27.407 C 82.260 27.407,81.663 28.520,82.026 29.107 C 82.367 29.659,81.827 30.529,81.142 30.529 C 80.673 30.529,80.486 30.777,80.486 31.396 C 80.486 32.015,80.298 32.264,79.831 32.264 C 79.324 32.264,79.125 32.606,78.949 33.784 C 78.778 34.924,78.573 35.292,78.129 35.258 C 77.671 35.223,77.513 35.548,77.430 36.687 C 77.336 37.995,77.088 38.321,76.271 38.214 C 76.147 38.198,75.953 38.551,75.841 38.999 C 75.728 39.447,75.322 39.895,74.939 39.995 C 74.383 40.141,74.241 40.467,74.241 41.598 C 74.241 42.758,74.121 43.018,73.587 43.018 C 73.077 43.018,72.880 43.364,72.698 44.579 C 72.513 45.812,72.323 46.141,71.791 46.141 C 71.226 46.141,71.119 46.388,71.119 47.702 C 71.119 49.027,71.015 49.263,70.432 49.263 C 69.995 49.263,69.668 49.567,69.535 50.097 C 69.420 50.556,69.026 51.010,68.661 51.106 C 68.158 51.237,67.997 51.590,67.997 52.559 C 67.997 53.547,67.839 53.879,67.300 54.020 C 66.810 54.148,66.541 54.598,66.390 55.539 C 66.249 56.420,65.954 56.946,65.525 57.082 C 65.038 57.237,64.874 57.622,64.874 58.613 C 64.874 59.660,64.724 59.976,64.155 60.125 C 63.759 60.228,63.354 60.622,63.255 61.000 C 63.156 61.378,62.778 61.766,62.414 61.861 C 61.907 61.993,61.752 62.347,61.752 63.372 C 61.752 64.427,61.587 64.782,60.971 65.052 C 60.398 65.304,60.162 65.739,60.083 66.696 C 59.999 67.715,59.830 67.997,59.303 67.997 C 58.738 67.997,58.630 68.244,58.630 69.534 C 58.630 70.863,58.524 71.086,57.849 71.181 C 57.420 71.242,57.049 71.487,57.025 71.726 C 57.001 71.964,56.962 72.316,56.938 72.507 C 56.915 72.697,56.583 72.853,56.201 72.853 C 55.612 72.853,55.507 73.085,55.507 74.390 C 55.507 75.720,55.402 75.942,54.727 76.038 C 53.953 76.148,53.890 76.293,53.813 78.144 C 53.783 78.853,53.595 79.098,53.079 79.098 C 52.631 79.098,52.385 79.329,52.385 79.751 C 52.385 80.111,52.090 80.482,51.729 80.576 C 51.280 80.694,50.998 81.190,50.837 82.144 C 50.674 83.110,50.395 83.594,49.932 83.715 C 49.409 83.852,49.263 84.199,49.263 85.310 C 49.263 86.472,49.143 86.730,48.606 86.730 C 47.864 86.730,47.528 87.376,47.528 88.800 C 47.528 89.480,47.320 89.826,46.834 89.953 C 46.419 90.062,46.141 90.426,46.141 90.861 C 46.141 91.348,45.919 91.587,45.468 91.587 C 44.937 91.587,44.746 91.915,44.561 93.148 C 44.379 94.364,44.182 94.709,43.673 94.709 C 43.130 94.709,43.018 94.972,43.018 96.246 C 43.018 97.576,42.913 97.798,42.238 97.894 C 41.589 97.987,41.439 98.254,41.350 99.480 C 41.264 100.672,41.115 100.954,40.570 100.954 C 40.091 100.954,39.896 101.193,39.896 101.783 C 39.896 102.359,39.711 102.597,39.289 102.563 C 38.843 102.528,38.595 102.907,38.355 103.990 C 38.118 105.060,37.856 105.464,37.401 105.464 C 36.890 105.464,36.774 105.750,36.774 107.001 C 36.774 108.331,36.668 108.553,35.993 108.649 C 35.504 108.718,35.173 109.038,35.106 109.505 C 35.048 109.915,34.697 110.330,34.326 110.427 C 33.796 110.565,33.651 110.908,33.651 112.023 C 33.651 113.185,33.532 113.443,32.995 113.443 C 32.247 113.443,31.917 114.089,31.917 115.553 C 31.917 116.334,31.758 116.565,31.223 116.565 C 30.632 116.565,30.529 116.797,30.529 118.127 C 30.529 119.561,30.458 119.688,29.662 119.688 C 29.185 119.688,28.813 119.805,28.836 119.948 C 28.947 120.653,28.733 121.011,28.101 121.176 C 27.549 121.320,27.407 121.649,27.407 122.778 C 27.407 124.087,27.180 124.381,26.279 124.239 C 26.136 124.216,25.995 124.393,25.966 124.631 C 25.937 124.870,25.877 125.221,25.833 125.412 C 25.788 125.603,25.734 126.110,25.712 126.539 C 25.685 127.075,25.455 127.320,24.978 127.320 C 24.389 127.320,24.284 127.551,24.284 128.857 C 24.284 130.187,24.179 130.409,23.504 130.505 C 23.015 130.574,22.684 130.894,22.617 131.361 C 22.559 131.771,22.207 132.186,21.837 132.283 C 21.310 132.420,21.162 132.764,21.162 133.855 C 21.162 135.039,21.043 135.268,20.382 135.362 C 19.733 135.454,19.583 135.721,19.494 136.947 C 19.408 138.139,19.259 138.422,18.714 138.422 C 18.146 138.422,18.040 138.668,18.040 139.983 C 18.040 141.417,17.969 141.544,17.173 141.544 C 16.547 141.544,16.305 141.730,16.305 142.214 C 16.305 142.583,15.993 142.984,15.611 143.105 C 15.075 143.275,14.918 143.630,14.918 144.665 C 14.918 145.791,14.793 146.023,14.137 146.116 C 13.488 146.209,13.338 146.476,13.250 147.702 C 13.164 148.894,13.014 149.176,12.469 149.176 C 11.982 149.176,11.795 149.416,11.795 150.043 C 11.795 150.661,11.608 150.911,11.142 150.911 C 10.476 150.911,10.074 151.785,10.065 153.252 C 10.062 153.800,9.854 154.033,9.367 154.033 C 8.777 154.033,8.673 154.264,8.673 155.570 C 8.673 156.900,8.568 157.122,7.892 157.218 C 7.244 157.310,7.094 157.577,7.005 158.803 C 6.919 159.995,6.769 160.278,6.225 160.278 C 5.782 160.278,5.551 160.516,5.551 160.971 C 5.551 161.353,5.406 161.665,5.229 161.665 C 4.579 161.665,3.816 162.782,3.816 163.731 C 3.816 164.415,3.609 164.761,3.122 164.888 C 2.573 165.032,2.428 165.361,2.428 166.466 C 2.428 167.649,2.310 167.878,1.648 167.972 C 0.999 168.065,0.849 168.332,0.761 169.558 C 0.702 170.369,0.507 171.032,0.327 171.032 C 0.147 171.032,0.000 172.431,0.000 174.154 C 0.000 175.872,0.145 177.277,0.323 177.277 C 0.500 177.277,0.695 177.628,0.756 178.057 C 0.828 178.559,1.146 178.877,1.648 178.949 C 2.323 179.045,2.428 179.267,2.428 180.597 C 2.428 181.902,2.533 182.134,3.122 182.134 C 3.658 182.134,3.816 182.365,3.816 183.146 C 3.816 184.610,4.146 185.256,4.894 185.256 C 5.427 185.256,5.551 185.513,5.551 186.620 C 5.551 187.680,5.706 188.034,6.245 188.205 C 6.626 188.326,6.938 188.727,6.938 189.095 C 6.938 189.579,7.180 189.766,7.806 189.766 C 8.602 189.766,8.673 189.893,8.673 191.327 C 8.673 192.657,8.776 192.888,9.367 192.888 C 9.883 192.888,10.071 193.133,10.101 193.842 C 10.178 195.693,10.241 195.838,11.015 195.948 C 11.677 196.042,11.795 196.271,11.795 197.455 C 11.795 198.546,11.943 198.889,12.470 199.027 C 12.841 199.124,13.192 199.539,13.250 199.949 C 13.317 200.415,13.648 200.735,14.137 200.805 C 14.812 200.901,14.918 201.123,14.918 202.453 C 14.918 203.758,15.022 203.990,15.611 203.990 C 16.125 203.990,16.305 204.221,16.305 204.880 C 16.305 206.043,16.893 207.112,17.532 207.112 C 17.811 207.112,18.040 207.424,18.040 207.806 C 18.040 208.261,18.271 208.500,18.714 208.500 C 19.259 208.500,19.408 208.782,19.494 209.974 C 19.583 211.200,19.733 211.467,20.382 211.559 C 21.057 211.655,21.162 211.877,21.162 213.207 C 21.162 214.513,21.267 214.744,21.856 214.744 C 22.343 214.744,22.551 214.977,22.555 215.525 C 22.564 216.992,22.965 217.866,23.631 217.866 C 24.097 217.866,24.284 218.116,24.284 218.734 C 24.284 219.370,24.469 219.601,24.978 219.601 C 25.508 219.601,25.682 219.847,25.716 220.642 C 25.791 222.461,25.831 222.548,26.626 222.661 C 27.288 222.755,27.407 222.984,27.407 224.168 C 27.407 225.272,27.552 225.602,28.101 225.745 C 28.482 225.845,28.806 226.103,28.821 226.320 C 28.933 227.986,29.370 228.968,29.998 228.968 C 30.298 228.968,30.529 229.270,30.529 229.662 C 30.529 230.124,30.760 230.356,31.223 230.356 C 31.753 230.356,31.927 230.601,31.960 231.396 C 32.036 233.215,32.075 233.302,32.871 233.415 C 33.546 233.511,33.651 233.733,33.651 235.063 C 33.651 236.340,33.763 236.600,34.308 236.600 C 34.718 236.600,35.045 236.925,35.181 237.467 C 35.322 238.027,35.643 238.335,36.086 238.335 C 36.670 238.335,36.774 238.571,36.774 239.896 C 36.774 241.210,36.880 241.457,37.448 241.457 C 37.992 241.457,38.142 241.740,38.228 242.931 C 38.317 244.157,38.466 244.425,39.115 244.517 C 39.777 244.611,39.896 244.840,39.896 246.024 C 39.896 247.128,40.041 247.458,40.590 247.601 C 40.974 247.702,41.284 248.074,41.284 248.436 C 41.284 248.902,41.533 249.089,42.151 249.089 C 42.948 249.089,43.018 249.217,43.018 250.650 C 43.018 251.980,43.121 252.212,43.712 252.212 C 44.247 252.212,44.406 252.443,44.406 253.224 C 44.406 254.688,44.736 255.334,45.484 255.334 C 46.021 255.334,46.141 255.592,46.141 256.754 C 46.141 257.882,46.283 258.212,46.834 258.356 C 47.216 258.455,47.548 258.675,47.572 258.844 C 47.595 259.012,47.634 259.345,47.658 259.584 C 47.682 259.822,48.053 260.067,48.482 260.128 C 49.158 260.224,49.263 260.446,49.263 261.776 C 49.263 263.082,49.367 263.313,49.957 263.313 C 50.443 263.313,50.652 263.546,50.655 264.094 C 50.664 265.561,51.066 266.435,51.732 266.435 C 52.265 266.435,52.385 266.696,52.385 267.856 C 52.385 268.970,52.530 269.314,53.059 269.452 C 53.430 269.549,53.782 269.964,53.840 270.374 C 53.907 270.840,54.238 271.160,54.727 271.230 C 55.389 271.324,55.507 271.553,55.507 272.737 C 55.507 273.841,55.652 274.171,56.201 274.314 C 56.583 274.414,56.915 274.633,56.938 274.802 C 56.962 274.971,57.021 275.265,57.069 275.455 C 57.116 275.646,57.175 276.114,57.199 276.496 C 57.227 276.944,57.488 277.190,57.936 277.190 C 58.445 277.190,58.630 277.421,58.630 278.057 C 58.630 278.685,58.816 278.925,59.304 278.925 C 59.848 278.925,59.998 279.207,60.084 280.399 C 60.173 281.625,60.322 281.892,60.971 281.984 C 61.647 282.080,61.752 282.302,61.752 283.632 C 61.752 284.914,61.862 285.169,62.415 285.169 C 62.922 285.169,63.136 285.507,63.320 286.599 C 63.487 287.584,63.766 288.083,64.218 288.201 C 64.583 288.296,64.874 288.677,64.874 289.058 C 64.874 289.452,65.169 289.821,65.568 289.925 C 66.024 290.045,66.262 290.399,66.262 290.957 C 66.262 292.084,66.858 293.148,67.488 293.148 C 67.848 293.148,67.997 293.546,67.997 294.513 C 67.997 295.553,68.155 295.927,68.662 296.088 C 69.108 296.230,69.405 296.753,69.560 297.673 C 69.736 298.713,69.953 299.046,70.455 299.046 C 70.932 299.046,71.119 299.291,71.119 299.913 C 71.119 300.549,71.304 300.781,71.813 300.781 C 72.300 300.781,72.508 301.013,72.511 301.561 C 72.520 303.009,72.923 303.903,73.568 303.903 C 74.064 303.903,74.224 304.220,74.308 305.363 C 74.389 306.478,74.579 306.868,75.108 307.011 C 75.490 307.114,75.815 307.472,75.831 307.806 C 75.935 309.990,75.992 310.147,76.670 310.147 C 77.142 310.147,77.363 310.379,77.363 310.874 C 77.363 311.294,77.639 311.672,78.018 311.771 C 78.467 311.889,78.742 312.378,78.895 313.335 C 79.052 314.317,79.319 314.780,79.802 314.906 C 80.317 315.041,80.486 315.383,80.486 316.292 C 80.486 317.188,80.656 317.542,81.150 317.672 C 81.516 317.767,81.909 318.221,82.024 318.680 C 82.157 319.210,82.484 319.514,82.921 319.514 C 83.504 319.514,83.608 319.751,83.608 321.075 C 83.608 322.479,83.690 322.637,84.416 322.637 C 84.955 322.637,85.223 322.839,85.222 323.244 C 85.213 325.303,85.360 325.759,86.036 325.759 C 86.615 325.759,86.730 325.990,86.730 327.155 C 86.730 328.325,86.871 328.605,87.598 328.881 C 88.129 329.083,88.465 329.483,88.465 329.913 C 88.465 330.385,88.693 330.616,89.159 330.616 C 89.738 330.616,89.853 330.847,89.853 332.014 C 89.853 333.030,90.019 333.474,90.460 333.637 C 91.294 333.945,91.576 334.435,91.582 335.592 C 91.586 336.284,91.794 336.633,92.281 336.760 C 92.803 336.896,92.975 337.233,92.975 338.122 C 92.975 339.046,93.164 339.390,93.842 339.699 C 94.319 339.916,94.709 340.381,94.709 340.732 C 94.709 341.139,94.961 341.370,95.403 341.370 C 95.994 341.370,96.097 341.602,96.097 342.931 C 96.097 344.365,96.168 344.493,96.964 344.493 C 97.724 344.493,97.832 344.643,97.832 345.707 L 97.832 346.921 199.982 346.921 L 302.133 346.921 303.018 346.101 C 303.574 345.585,303.903 344.907,303.903 344.275 C 303.903 343.565,304.132 343.169,304.683 342.927 C 305.251 342.678,305.493 342.239,305.570 341.319 C 305.645 340.410,305.865 340.004,306.350 339.877 C 306.878 339.739,307.025 339.396,307.025 338.305 C 307.025 337.121,307.144 336.892,307.806 336.798 C 308.294 336.728,308.626 336.408,308.693 335.942 C 308.751 335.532,309.102 335.117,309.473 335.020 C 310.000 334.882,310.147 334.539,310.147 333.448 C 310.147 332.264,310.266 332.035,310.928 331.941 C 311.577 331.849,311.727 331.581,311.815 330.356 C 311.902 329.164,312.051 328.881,312.596 328.881 C 313.163 328.881,313.270 328.634,313.270 327.320 C 313.270 325.886,313.340 325.759,314.137 325.759 C 314.768 325.759,315.004 325.573,315.004 325.077 C 315.004 324.702,315.317 324.229,315.698 324.024 C 316.183 323.765,316.392 323.298,316.392 322.475 C 316.392 321.518,316.538 321.276,317.173 321.186 C 317.818 321.095,317.971 320.826,318.058 319.637 C 318.137 318.555,318.330 318.154,318.839 318.021 C 319.237 317.917,319.514 317.546,319.514 317.118 C 319.514 316.631,319.736 316.392,320.187 316.392 C 320.718 316.392,320.909 316.064,321.094 314.831 C 321.276 313.615,321.472 313.270,321.982 313.270 C 322.525 313.270,322.637 313.008,322.637 311.733 C 322.637 310.403,322.742 310.181,323.417 310.085 C 324.066 309.993,324.216 309.725,324.304 308.500 C 324.391 307.308,324.540 307.025,325.085 307.025 C 325.573 307.025,325.759 306.785,325.759 306.158 C 325.759 305.535,325.946 305.291,326.422 305.291 C 326.925 305.291,327.142 304.957,327.318 303.917 C 327.473 302.998,327.769 302.474,328.215 302.333 C 328.720 302.173,328.881 301.798,328.881 300.781 C 328.881 299.656,329.006 299.423,329.662 299.330 C 330.311 299.238,330.460 298.971,330.549 297.745 C 330.635 296.553,330.785 296.271,331.330 296.271 C 331.808 296.271,332.003 296.031,332.003 295.444 C 332.003 294.913,332.248 294.553,332.688 294.438 C 333.173 294.311,333.438 293.847,333.599 292.836 C 333.772 291.758,333.984 291.414,334.476 291.414 C 335.013 291.414,335.126 291.147,335.126 289.877 C 335.126 288.547,335.231 288.325,335.906 288.229 C 336.555 288.137,336.705 287.869,336.794 286.644 C 336.880 285.452,337.029 285.169,337.574 285.169 C 337.987 285.169,338.248 284.932,338.248 284.558 C 338.248 284.221,338.599 283.792,339.029 283.604 C 339.596 283.354,339.838 282.916,339.915 281.996 C 339.991 281.087,340.211 280.680,340.695 280.554 C 341.223 280.416,341.370 280.072,341.370 278.981 C 341.370 277.798,341.489 277.568,342.151 277.474 C 342.640 277.405,342.971 277.085,343.038 276.618 C 343.096 276.208,343.447 275.794,343.818 275.697 C 344.348 275.558,344.493 275.215,344.493 274.100 C 344.493 272.938,344.612 272.680,345.149 272.680 C 345.897 272.680,346.227 272.034,346.227 270.570 C 346.227 269.789,346.386 269.558,346.921 269.558 C 347.511 269.558,347.615 269.326,347.615 268.021 C 347.615 266.691,347.720 266.469,348.395 266.373 C 348.884 266.303,349.216 265.983,349.282 265.517 C 349.341 265.107,349.692 264.692,350.063 264.595 C 350.562 264.465,350.737 264.116,350.737 263.254 C 350.737 262.380,350.931 262.005,351.518 261.747 C 352.120 261.483,352.323 261.069,352.405 259.931 C 352.491 258.739,352.641 258.456,353.186 258.456 C 353.753 258.456,353.859 258.210,353.859 256.895 C 353.859 255.461,353.930 255.334,354.727 255.334 C 355.345 255.334,355.594 255.146,355.594 254.681 C 355.594 254.319,355.904 253.946,356.288 253.846 C 356.837 253.702,356.982 253.373,356.982 252.268 C 356.982 251.085,357.101 250.855,357.762 250.761 C 358.411 250.669,358.561 250.402,358.650 249.176 C 358.736 247.984,358.885 247.702,359.430 247.702 C 359.918 247.702,360.104 247.462,360.104 246.834 C 360.104 246.207,360.291 245.967,360.777 245.967 C 361.308 245.967,361.498 245.639,361.683 244.406 C 361.866 243.190,362.062 242.845,362.572 242.845 C 363.116 242.845,363.226 242.582,363.226 241.284 C 363.226 239.850,363.297 239.722,364.094 239.722 C 364.890 239.722,364.961 239.595,364.961 238.161 C 364.961 236.831,365.064 236.600,365.655 236.600 C 366.103 236.600,366.349 236.369,366.349 235.947 C 366.349 235.587,366.657 235.213,367.033 235.115 C 367.515 234.988,367.783 234.525,367.940 233.543 C 368.093 232.587,368.367 232.097,368.817 231.979 C 369.321 231.847,369.471 231.488,369.471 230.412 C 369.471 229.229,369.590 228.999,370.252 228.905 C 370.900 228.813,371.050 228.546,371.139 227.320 C 371.225 226.128,371.375 225.846,371.919 225.846 C 372.407 225.846,372.593 225.606,372.593 224.978 C 372.593 224.360,372.781 224.111,373.247 224.111 C 373.912 224.111,374.314 223.237,374.323 221.769 C 374.326 221.222,374.535 220.989,375.022 220.989 C 375.613 220.989,375.716 220.757,375.716 219.428 C 375.716 217.994,375.786 217.866,376.583 217.866 C 377.379 217.866,377.450 217.739,377.450 216.305 C 377.450 214.975,377.553 214.744,378.144 214.744 C 378.592 214.744,378.838 214.513,378.838 214.091 C 378.838 213.731,379.146 213.357,379.522 213.258 C 380.008 213.131,380.272 212.667,380.434 211.657 C 380.606 210.579,380.818 210.234,381.311 210.234 C 381.848 210.234,381.960 209.968,381.960 208.697 C 381.960 207.367,382.065 207.145,382.741 207.049 C 383.229 206.980,383.561 206.660,383.627 206.193 C 383.686 205.783,384.037 205.369,384.408 205.272 C 384.935 205.134,385.082 204.790,385.082 203.699 C 385.082 202.516,385.201 202.286,385.863 202.192 C 386.512 202.100,386.662 201.833,386.750 200.607 C 386.836 199.415,386.986 199.133,387.531 199.133 C 388.098 199.133,388.205 198.886,388.205 197.572 C 388.205 196.138,388.275 196.010,389.072 196.010 C 389.698 196.010,389.939 195.824,389.939 195.340 C 389.939 194.971,390.252 194.570,390.633 194.449 C 391.172 194.278,391.327 193.924,391.327 192.865 C 391.327 191.757,391.451 191.500,391.984 191.500 C 392.731 191.500,393.062 190.854,393.062 189.391 C 393.062 188.609,393.220 188.378,393.755 188.378 C 394.345 188.378,394.449 188.147,394.449 186.841 C 394.449 185.511,394.554 185.289,395.230 185.193 C 395.719 185.124,396.050 184.804,396.117 184.337 C 396.175 183.927,396.526 183.513,396.897 183.416 C 397.424 183.278,397.572 182.934,397.572 181.843 C 397.572 180.660,397.690 180.430,398.352 180.336 C 399.001 180.244,399.151 179.977,399.239 178.751 C 399.298 177.940,399.493 177.277,399.673 177.277 C 399.858 177.277,400.000 175.618,400.000 173.461 C 400.000 171.148,399.863 169.644,399.653 169.644 C 399.462 169.644,399.306 169.189,399.306 168.632 C 399.306 167.168,398.976 166.522,398.228 166.522 C 397.759 166.522,397.572 166.274,397.572 165.655 C 397.572 165.027,397.385 164.788,396.898 164.788 C 396.353 164.788,396.203 164.505,396.117 163.313 C 396.028 162.087,395.879 161.820,395.230 161.728 C 394.568 161.634,394.449 161.405,394.449 160.221 C 394.449 159.117,394.304 158.787,393.755 158.643 C 393.269 158.516,393.062 158.170,393.062 157.486 C 393.062 156.537,392.298 155.421,391.649 155.421 C 391.472 155.421,391.327 155.108,391.327 154.727 C 391.327 154.271,391.096 154.033,390.653 154.033 C 390.108 154.033,389.959 153.751,389.873 152.559 C 389.784 151.333,389.634 151.065,388.985 150.973 C 388.310 150.877,388.205 150.655,388.205 149.325 C 388.205 148.020,388.100 147.788,387.511 147.788 C 387.024 147.788,386.816 147.556,386.812 147.008 C 386.803 145.540,386.401 144.666,385.736 144.666 C 385.270 144.666,385.082 144.417,385.082 143.799 C 385.082 143.171,384.896 142.931,384.408 142.931 C 383.864 142.931,383.714 142.649,383.628 141.457 C 383.539 140.231,383.390 139.964,382.741 139.872 C 382.085 139.779,381.960 139.546,381.960 138.421 C 381.960 137.385,381.802 137.031,381.266 136.860 C 380.885 136.739,380.572 136.338,380.572 135.970 C 380.572 135.486,380.331 135.299,379.705 135.299 C 378.908 135.299,378.838 135.172,378.838 133.738 C 378.838 132.424,378.731 132.177,378.164 132.177 C 377.619 132.177,377.470 131.894,377.383 130.703 C 377.295 129.477,377.145 129.209,376.496 129.117 C 375.834 129.023,375.716 128.794,375.716 127.610 C 375.716 126.520,375.568 126.176,375.041 126.038 C 374.670 125.941,374.319 125.526,374.261 125.116 C 374.194 124.650,373.862 124.330,373.374 124.260 C 372.698 124.164,372.593 123.942,372.593 122.612 C 372.593 121.307,372.489 121.075,371.899 121.075 C 371.364 121.075,371.206 120.844,371.206 120.063 C 371.206 118.599,370.875 117.953,370.128 117.953 C 369.590 117.953,369.471 117.695,369.471 116.533 C 369.471 115.405,369.328 115.076,368.777 114.931 C 368.393 114.831,368.083 114.458,368.083 114.097 C 368.083 113.631,367.834 113.443,367.216 113.443 C 366.419 113.443,366.349 113.316,366.349 111.882 C 366.349 110.552,366.246 110.321,365.655 110.321 C 365.119 110.321,364.961 110.090,364.961 109.309 C 364.961 107.845,364.631 107.199,363.883 107.199 C 363.346 107.199,363.226 106.941,363.226 105.778 C 363.226 104.664,363.081 104.320,362.552 104.182 C 362.181 104.085,361.830 103.670,361.771 103.260 C 361.705 102.794,361.373 102.474,360.885 102.404 C 360.209 102.308,360.104 102.086,360.104 100.756 C 360.104 99.474,359.994 99.219,359.441 99.219 C 358.934 99.219,358.720 98.882,358.536 97.789 C 358.369 96.804,358.090 96.306,357.638 96.188 C 357.277 96.093,356.982 95.722,356.982 95.363 C 356.982 94.941,356.736 94.709,356.288 94.709 C 355.697 94.709,355.594 94.478,355.594 93.148 C 355.594 91.714,355.523 91.587,354.727 91.587 C 353.930 91.587,353.859 91.460,353.859 90.026 C 353.859 88.727,353.749 88.465,353.205 88.465 C 352.695 88.465,352.499 88.120,352.316 86.904 C 352.132 85.671,351.941 85.343,351.410 85.343 C 350.924 85.343,350.737 85.102,350.737 84.475 C 350.737 83.848,350.551 83.608,350.063 83.608 C 349.519 83.608,349.369 83.326,349.283 82.134 C 349.194 80.908,349.044 80.640,348.395 80.548 C 347.740 80.455,347.615 80.223,347.615 79.097 C 347.615 78.091,347.453 77.706,346.964 77.550 C 346.526 77.412,346.239 76.880,346.087 75.931 C 345.927 74.930,345.662 74.466,345.177 74.339 C 344.800 74.241,344.493 73.884,344.493 73.547 C 344.493 73.210,344.180 72.853,343.799 72.753 C 343.266 72.614,343.105 72.280,343.105 71.316 C 343.105 70.296,342.942 69.999,342.238 69.731 C 341.511 69.455,341.370 69.175,341.370 68.005 C 341.370 66.868,341.249 66.609,340.716 66.609 C 340.206 66.609,340.010 66.264,339.827 65.048 C 339.642 63.815,339.452 63.487,338.921 63.487 C 338.434 63.487,338.248 63.246,338.248 62.619 C 338.248 61.983,338.063 61.752,337.554 61.752 C 337.019 61.752,336.860 61.521,336.860 60.740 C 336.860 59.276,336.530 58.630,335.782 58.630 C 335.245 58.630,335.126 58.372,335.126 57.209 C 335.126 56.081,334.983 55.752,334.432 55.608 C 334.048 55.507,333.738 55.135,333.738 54.773 C 333.738 54.414,333.582 54.100,333.391 54.076 C 333.200 54.052,332.849 54.013,332.611 53.990 C 332.359 53.964,332.133 53.336,332.071 52.489 C 331.992 51.407,331.792 50.977,331.291 50.818 C 330.845 50.677,330.614 50.287,330.610 49.673 C 330.604 48.571,330.313 48.078,329.488 47.774 C 329.063 47.617,328.881 47.173,328.881 46.292 C 328.881 45.339,328.718 44.992,328.207 44.858 C 327.836 44.761,327.485 44.347,327.426 43.937 C 327.360 43.470,327.028 43.150,326.539 43.081 C 325.864 42.985,325.759 42.763,325.759 41.433 C 325.759 40.127,325.654 39.896,325.065 39.896 C 324.530 39.896,324.371 39.665,324.371 38.884 C 324.371 37.420,324.041 36.774,323.293 36.774 C 322.756 36.774,322.637 36.516,322.637 35.353 C 322.637 34.239,322.492 33.895,321.962 33.757 C 321.591 33.660,321.240 33.245,321.182 32.835 C 321.123 32.426,320.880 32.071,320.642 32.047 C 320.403 32.023,320.052 31.984,319.861 31.960 C 319.670 31.936,319.514 31.278,319.514 30.497 C 319.514 29.368,319.372 29.039,318.820 28.895 C 318.365 28.776,318.127 28.422,318.127 27.864 C 318.127 26.737,317.531 25.672,316.900 25.672 C 316.621 25.672,316.392 25.360,316.392 24.978 C 316.392 24.523,316.161 24.284,315.718 24.284 C 315.173 24.284,315.024 24.002,314.938 22.810 C 314.849 21.584,314.699 21.317,314.050 21.225 C 313.375 21.129,313.270 20.907,313.270 19.577 C 313.270 18.302,313.158 18.040,312.615 18.040 C 312.106 18.040,311.909 17.695,311.727 16.479 C 311.542 15.246,311.351 14.918,310.820 14.918 C 310.369 14.918,310.147 14.679,310.147 14.191 C 310.147 13.763,309.870 13.392,309.472 13.288 C 308.964 13.155,308.770 12.755,308.691 11.673 C 308.630 10.840,308.404 10.216,308.153 10.191 C 307.914 10.167,307.563 10.128,307.372 10.104 C 307.181 10.080,307.025 9.447,307.025 8.696 C 307.025 7.656,306.867 7.282,306.359 7.121 C 305.915 6.980,305.617 6.457,305.464 5.551 C 305.311 4.644,305.013 4.122,304.569 3.981 C 304.202 3.864,303.903 3.468,303.903 3.099 C 303.903 2.660,303.664 2.428,303.209 2.428 C 302.647 2.428,302.515 2.197,302.515 1.214 L 302.515 0.000 200.173 0.000 L 97.832 0.000 97.832 1.214 M245.586 82.023 C 247.993 83.691,247.835 86.844,245.200 89.721 C 242.523 92.645,230.126 105.242,214.310 121.109 C 196.145 139.333,197.362 137.247,202.102 142.037 C 203.883 143.837,205.130 147.725,204.076 148.193 C 203.933 148.257,201.795 150.416,199.325 152.992 C 189.764 162.962,168.098 184.562,167.657 184.562 C 167.403 184.562,167.104 184.796,166.994 185.082 C 166.309 186.869,162.928 185.511,159.480 182.063 C 156.499 179.082,156.044 179.052,153.608 181.678 C 152.602 182.764,150.488 184.910,148.912 186.449 C 147.335 187.987,137.322 197.933,126.660 208.551 C 104.467 230.651,104.326 230.758,100.991 228.018 C 99.389 226.702,99.264 216.803,100.784 211.622 C 101.035 210.763,101.475 208.890,101.759 207.459 C 102.044 206.028,102.598 203.842,102.989 202.602 C 103.381 201.362,103.950 199.566,104.254 198.612 C 104.557 197.658,105.087 196.331,105.431 195.663 C 105.775 194.996,106.170 193.981,106.308 193.408 C 106.446 192.836,106.753 192.134,106.991 191.847 C 107.228 191.561,107.631 190.663,107.886 189.853 C 108.142 189.042,108.469 188.378,108.615 188.378 C 108.760 188.378,109.067 187.793,109.297 187.077 C 109.527 186.362,109.927 185.532,110.187 185.233 C 110.447 184.935,110.832 184.193,111.044 183.585 C 111.256 182.978,111.551 182.480,111.700 182.480 C 111.849 182.480,112.180 181.973,112.434 181.353 C 112.689 180.733,113.176 179.923,113.517 179.553 C 113.858 179.183,114.137 178.731,114.137 178.548 C 114.137 178.365,114.722 177.362,115.438 176.318 C 116.154 175.275,116.895 174.167,117.086 173.857 C 117.277 173.547,118.096 172.392,118.907 171.291 C 119.718 170.190,120.382 169.130,120.382 168.936 C 120.382 168.741,120.601 168.497,120.870 168.394 C 121.139 168.291,121.548 167.750,121.780 167.191 C 122.011 166.632,122.315 166.175,122.454 166.175 C 122.594 166.175,123.414 165.278,124.278 164.180 C 125.142 163.083,127.113 160.781,128.659 159.063 C 131.690 155.695,131.999 154.865,130.703 153.566 C 123.341 146.192,122.653 147.636,143.452 126.812 C 166.628 103.609,164.694 104.635,171.912 111.710 C 173.083 112.859,174.582 112.606,176.558 110.928 C 181.203 106.981,187.692 101.648,187.848 101.648 C 187.945 101.648,188.924 100.984,190.025 100.173 C 191.126 99.363,192.280 98.543,192.591 98.352 C 192.901 98.161,193.992 97.433,195.016 96.733 C 196.040 96.033,197.307 95.266,197.832 95.029 C 198.356 94.792,198.786 94.498,198.786 94.377 C 198.786 94.255,199.332 93.957,200.000 93.716 C 200.668 93.474,201.214 93.150,201.214 92.994 C 201.214 92.839,201.722 92.511,202.342 92.266 C 202.962 92.021,203.703 91.630,203.990 91.398 C 204.276 91.165,204.900 90.860,205.377 90.720 C 205.854 90.579,206.479 90.268,206.765 90.028 C 207.051 89.787,207.910 89.383,208.673 89.130 C 209.436 88.876,210.295 88.479,210.581 88.247 C 210.867 88.015,211.570 87.714,212.142 87.577 C 212.715 87.441,213.573 87.115,214.050 86.852 C 215.621 85.987,222.494 83.785,225.846 83.073 C 227.086 82.810,228.803 82.407,229.662 82.178 C 235.378 80.654,243.496 80.575,245.586 82.023 M143.381 102.875 C 146.175 103.883,149.867 106.632,149.869 107.707 C 149.870 108.671,127.407 131.136,126.441 131.136 C 124.112 131.136,120.729 124.876,120.729 120.568 C 120.729 112.666,130.812 102.184,138.553 102.039 C 140.321 102.006,141.573 102.223,143.381 102.875 M255.626 213.096 C 283.934 241.383,307.548 265.136,308.101 265.880 C 309.267 267.450,309.407 269.151,308.590 271.844 C 308.306 272.781,308.072 273.846,308.070 274.211 C 308.066 274.800,306.452 278.325,305.133 280.622 C 303.252 283.900,297.219 288.301,293.218 289.314 C 292.512 289.493,291.310 289.801,290.546 289.998 C 288.409 290.550,286.311 290.440,284.895 289.703 C 284.162 289.321,261.308 266.721,231.779 237.177 L 179.950 185.322 180.719 184.335 C 182.446 182.120,203.098 161.665,203.607 161.665 C 203.910 161.665,227.319 184.809,255.626 213.096 " stroke="none" fill="#fc6464" fill-rule="evenodd"></path></g></svg>