<svg id="svg" version="1.1" xmlns="http://www.w3.org/2000/svg" xmlns:xlink="http://www.w3.org/1999/xlink" width="400" height="346.875" viewBox="0, 0, 400,346.875"><g id="svgg"><path id="path0" d="M168.757 53.078 C 165.159 53.468,160.504 55.775,157.266 58.772 C 154.999 60.871,151.605 65.361,151.605 66.261 C 151.605 66.608,149.605 70.765,149.431 70.778 C 142.896 71.300,135.895 72.993,134.231 74.454 C 133.930 74.719,133.533 74.935,133.350 74.935 C 132.317 74.935,125.239 82.655,125.239 83.782 C 125.239 83.866,124.848 84.788,124.371 85.830 C 123.894 86.873,123.504 88.037,123.504 88.416 C 123.504 88.795,123.320 89.901,123.096 90.873 C 122.691 92.630,122.937 100.555,123.875 115.872 C 124.181 120.871,124.395 124.431,125.233 138.422 C 125.410 141.379,125.790 147.467,126.078 151.951 C 126.535 159.067,127.368 173.446,128.369 191.500 C 128.533 194.458,128.828 198.829,129.025 201.214 C 129.222 203.599,129.530 208.751,129.711 212.663 C 129.917 217.134,130.228 220.354,130.549 221.336 C 130.830 222.194,131.165 223.353,131.293 223.910 C 131.421 224.468,131.829 225.308,132.198 225.778 C 132.568 226.248,132.871 226.848,132.871 227.110 C 132.871 228.185,137.591 233.680,139.397 234.706 C 139.910 234.998,141.048 235.681,141.927 236.225 C 144.555 237.853,148.844 239.029,152.152 239.029 C 156.306 239.029,156.985 239.586,155.470 241.750 C 155.115 242.257,154.742 243.062,154.640 243.539 C 154.456 244.403,153.463 246.977,152.298 249.610 C 151.134 252.242,150.141 254.816,149.956 255.681 C 149.855 256.158,149.503 256.938,149.176 257.415 C 148.849 257.892,148.498 258.673,148.396 259.150 C 148.167 260.221,146.902 263.396,146.019 265.116 C 145.656 265.822,145.359 266.603,145.357 266.851 C 145.355 267.099,144.970 268.083,144.500 269.037 C 144.031 269.991,143.639 271.084,143.628 271.466 C 143.618 271.847,143.305 272.550,142.931 273.027 C 142.558 273.504,142.250 274.174,142.245 274.515 C 142.241 274.857,141.916 275.766,141.523 276.537 C 140.736 278.080,140.744 279.247,141.544 279.610 C 141.830 279.741,142.720 280.186,143.521 280.600 C 144.322 281.014,145.199 281.353,145.471 281.353 C 145.743 281.353,146.705 281.680,147.608 282.079 C 149.507 282.920,149.486 282.934,150.727 279.965 C 151.245 278.725,151.916 277.164,152.218 276.496 C 152.787 275.236,153.554 273.278,154.529 270.598 C 154.841 269.740,155.312 268.569,155.574 267.997 C 155.837 267.424,156.466 265.863,156.971 264.527 C 157.476 263.192,158.168 261.474,158.509 260.711 C 159.613 258.241,160.666 255.545,161.180 253.874 C 161.457 252.976,161.835 252.147,162.021 252.033 C 162.207 251.918,162.359 251.603,162.359 251.334 C 162.359 251.065,162.749 249.991,163.226 248.948 C 163.703 247.906,164.094 246.847,164.095 246.596 C 164.096 246.346,164.390 245.659,164.749 245.071 C 165.107 244.483,165.505 243.526,165.633 242.945 C 165.760 242.364,166.403 241.284,167.060 240.546 L 168.255 239.202 199.739 239.101 C 233.586 238.992,232.897 238.969,234.386 240.250 C 234.936 240.722,235.486 241.109,235.608 241.110 C 235.729 241.110,235.934 241.668,236.062 242.350 C 236.190 243.031,236.597 244.085,236.966 244.691 C 237.336 245.298,237.642 246.106,237.647 246.487 C 237.652 246.869,237.962 247.572,238.335 248.049 C 238.708 248.526,239.016 249.150,239.020 249.436 C 239.027 249.951,240.246 253.174,241.448 255.854 C 242.569 258.353,243.610 261.042,243.799 261.925 C 243.901 262.402,244.274 263.207,244.629 263.714 C 244.983 264.220,245.273 264.845,245.272 265.101 C 245.271 265.568,246.520 268.851,247.693 271.466 C 248.814 273.964,249.855 276.653,250.044 277.537 C 250.145 278.014,250.499 278.794,250.830 279.271 C 251.161 279.748,251.541 280.646,251.676 281.266 C 251.957 282.568,253.049 282.772,255.062 281.901 C 255.689 281.629,257.255 280.970,258.543 280.436 C 261.208 279.330,261.580 278.346,260.192 276.071 C 259.811 275.446,259.494 274.701,259.487 274.415 C 259.481 274.128,259.091 273.114,258.622 272.160 C 258.153 271.206,257.766 270.191,257.763 269.905 C 257.760 269.618,257.448 268.916,257.069 268.343 C 256.689 267.771,256.378 266.989,256.377 266.606 C 256.376 266.223,255.984 265.176,255.507 264.280 C 255.030 263.384,254.640 262.413,254.640 262.123 C 254.640 261.833,254.328 261.084,253.948 260.459 C 253.567 259.835,253.250 259.089,253.243 258.803 C 253.236 258.517,252.847 257.502,252.377 256.548 C 251.908 255.594,251.522 254.579,251.519 254.293 C 251.516 254.007,251.203 253.304,250.824 252.732 C 250.445 252.160,250.134 251.413,250.132 251.073 C 250.131 250.732,249.740 249.684,249.263 248.742 C 248.786 247.801,248.395 246.795,248.395 246.507 C 248.395 246.219,248.084 245.473,247.703 244.848 C 247.322 244.223,247.010 243.476,247.009 243.187 C 247.008 242.898,246.684 242.058,246.289 241.320 C 245.300 239.475,245.645 239.263,250.050 239.007 C 253.834 238.787,257.665 237.803,259.497 236.580 C 259.974 236.262,261.145 235.510,262.099 234.909 C 270.726 229.479,272.205 223.812,273.377 191.674 C 273.544 187.095,273.843 182.177,274.043 180.746 C 274.242 179.315,274.560 175.100,274.749 171.379 C 274.938 167.658,275.259 161.336,275.463 157.329 C 275.666 153.322,275.972 149.341,276.142 148.482 C 276.312 147.624,276.543 143.050,276.657 138.319 C 276.770 133.588,277.015 128.982,277.201 128.085 C 277.617 126.082,278.927 101.337,278.926 95.513 C 278.923 85.746,275.840 79.825,268.066 74.655 C 267.150 74.046,266.289 73.547,266.153 73.547 C 266.016 73.547,265.306 73.226,264.575 72.834 C 263.843 72.442,262.050 71.973,260.590 71.792 C 252.273 70.761,252.274 70.762,251.017 68.113 C 250.488 67.000,249.643 65.245,249.139 64.213 C 248.607 63.126,247.128 61.231,245.620 59.703 C 242.701 56.747,241.329 55.871,236.253 53.716 L 234.345 52.905 202.775 52.859 C 185.412 52.833,170.104 52.932,168.757 53.078 M234.699 63.758 C 238.425 65.789,241.126 68.832,240.474 70.263 L 240.084 71.119 200.887 71.119 C 154.466 71.119,158.785 71.700,163.988 66.158 C 165.258 64.806,167.969 63.229,169.818 62.767 C 170.390 62.625,184.753 62.533,201.735 62.563 L 232.611 62.619 234.699 63.758 M260.206 81.905 C 260.675 82.209,261.465 82.557,261.961 82.680 C 262.989 82.932,267.129 86.591,267.129 87.247 C 267.129 87.484,267.433 88.064,267.805 88.536 C 268.577 89.518,269.580 95.197,269.324 97.138 C 269.236 97.806,268.943 102.255,268.673 107.025 C 268.402 111.795,267.952 119.367,267.672 123.851 C 267.393 128.335,266.836 137.936,266.437 145.186 C 266.037 152.437,265.567 160.633,265.392 163.400 C 264.217 181.960,263.377 196.193,262.595 210.755 C 261.982 222.179,259.734 226.176,252.578 228.568 L 250.342 229.315 200.786 229.315 C 144.657 229.315,148.831 229.525,145.012 226.506 C 140.676 223.079,139.749 219.954,139.105 206.592 C 138.893 202.203,138.572 196.895,138.392 194.796 C 138.211 192.697,137.917 187.155,137.737 182.480 C 137.557 177.806,137.250 172.732,137.055 171.206 C 136.859 169.679,136.453 163.591,136.151 157.676 C 135.849 151.761,135.456 145.126,135.276 142.931 C 135.097 140.737,134.802 134.883,134.621 129.922 C 134.440 124.961,134.130 119.887,133.932 118.647 C 132.675 110.761,132.423 91.713,133.546 89.506 C 135.877 84.925,139.053 82.271,143.105 81.518 C 146.241 80.936,259.287 81.309,260.206 81.905 M160.624 90.519 C 159.003 90.842,157.363 91.279,156.982 91.489 C 156.600 91.700,155.362 92.316,154.230 92.857 C 152.196 93.831,148.023 97.562,146.566 99.711 C 145.208 101.713,143.971 104.255,143.769 105.455 C 143.656 106.128,143.318 107.351,143.019 108.173 C 142.399 109.874,142.630 128.537,143.286 129.762 C 143.472 130.111,143.640 132.866,143.657 135.884 C 143.722 147.062,144.832 157.529,146.180 159.665 C 146.452 160.097,146.785 160.817,146.919 161.264 C 147.453 163.050,151.451 167.847,153.686 169.384 C 156.288 171.175,157.264 171.740,158.118 171.951 C 158.638 172.079,159.688 172.510,160.451 172.909 C 161.835 173.632,161.954 173.634,200.702 173.634 L 239.565 173.634 242.159 172.616 C 246.921 170.748,251.611 167.123,253.369 163.953 C 255.493 160.121,256.360 158.303,256.367 157.669 C 256.371 157.283,256.669 155.878,257.028 154.546 C 257.561 152.571,257.721 150.337,257.899 142.410 C 258.020 137.067,258.260 132.149,258.434 131.482 C 258.906 129.672,259.627 113.771,259.365 110.954 C 259.153 108.666,258.118 104.786,257.301 103.209 C 257.103 102.827,256.709 102.047,256.425 101.474 C 256.141 100.902,255.817 100.356,255.706 100.260 C 255.595 100.165,255.081 99.520,254.565 98.827 C 254.049 98.134,253.052 97.041,252.349 96.398 C 251.646 95.756,250.795 94.970,250.457 94.653 C 250.120 94.336,248.933 93.612,247.819 93.043 C 241.246 89.690,243.588 89.846,200.493 89.892 C 167.282 89.927,163.277 89.990,160.624 90.519 M241.337 100.867 C 241.939 101.297,242.572 101.648,242.744 101.648 C 243.793 101.648,248.395 106.563,248.395 107.683 C 248.395 107.975,248.717 109.030,249.110 110.027 C 249.920 112.082,249.920 112.111,248.976 128.361 C 248.671 133.608,248.260 140.897,248.062 144.558 C 247.413 156.554,245.660 160.223,239.165 163.179 L 236.774 164.267 203.219 164.374 C 167.576 164.488,164.552 164.385,162.181 162.980 C 158.058 160.537,157.808 160.285,155.702 156.461 C 154.513 154.304,154.120 150.812,153.301 135.126 C 152.922 127.875,152.457 119.927,152.268 117.464 C 151.978 113.697,152.009 112.737,152.458 111.418 C 152.752 110.556,152.992 109.546,152.992 109.174 C 152.992 106.884,156.438 102.936,159.931 101.223 C 162.600 99.914,159.800 99.993,201.908 100.042 L 240.243 100.087 241.337 100.867 M160.971 183.046 C 160.494 183.139,159.442 183.518,158.633 183.889 C 157.825 184.259,157.082 184.562,156.983 184.562 C 155.893 184.562,152.711 187.829,151.070 190.633 C 149.470 193.368,149.340 199.882,150.824 203.030 C 154.961 211.805,167.071 214.052,173.504 207.238 C 174.339 206.354,175.292 205.342,175.623 204.990 C 180.664 199.612,177.076 187.151,169.644 184.229 C 168.977 183.967,168.250 183.615,168.030 183.449 C 167.568 183.098,162.256 182.795,160.971 183.046 M234.866 183.160 C 223.969 185.784,220.361 199.066,228.299 207.336 C 234.282 213.570,245.413 212.159,250.256 204.552 C 256.862 194.179,246.857 180.273,234.866 183.160 M165.690 193.410 C 168.511 195.325,168.622 198.397,165.952 200.644 C 164.229 202.093,161.928 201.672,160.308 199.613 C 157.559 196.118,162.051 190.941,165.690 193.410 M240.264 193.597 C 241.708 194.590,242.082 195.221,242.208 196.878 C 242.582 201.784,236.191 203.292,234.280 198.747 C 233.399 196.652,233.917 195.125,236.038 193.566 C 237.786 192.280,238.356 192.284,240.264 193.597 M173.623 248.629 C 172.830 249.422,172.989 256.906,173.810 257.425 C 174.801 258.051,227.293 257.856,228.197 257.222 C 228.913 256.720,228.968 256.415,228.968 252.905 C 228.968 249.396,228.913 249.090,228.197 248.589 C 226.975 247.733,174.481 247.772,173.623 248.629 M164.290 267.451 C 163.473 268.353,163.600 275.626,164.441 276.157 C 165.439 276.787,236.657 276.591,237.564 275.956 C 238.280 275.454,238.335 275.149,238.335 271.639 C 238.335 268.130,238.280 267.824,237.564 267.322 C 236.230 266.388,165.138 266.514,164.290 267.451 " stroke="none" fill="#f8fbfc" fill-rule="evenodd"></path><path id="path1" d="M97.832 1.214 C 97.832 2.278,97.724 2.428,96.964 2.428 C 96.338 2.428,96.097 2.615,96.097 3.099 C 96.097 3.468,95.785 3.868,95.403 3.990 C 94.922 4.142,94.709 4.514,94.709 5.202 C 94.709 6.166,93.950 7.285,93.297 7.285 C 93.120 7.285,92.975 7.910,92.975 8.673 C 92.975 9.950,92.744 10.243,91.847 10.102 C 91.704 10.079,91.585 10.568,91.582 11.188 C 91.576 12.483,91.316 12.968,90.460 13.284 C 90.126 13.407,89.853 13.825,89.853 14.213 C 89.853 14.672,89.625 14.918,89.198 14.918 C 88.688 14.918,88.492 15.263,88.310 16.479 C 88.125 17.712,87.934 18.040,87.403 18.040 C 86.837 18.040,86.730 18.288,86.730 19.601 C 86.730 20.901,86.621 21.162,86.074 21.162 C 85.672 21.162,85.337 21.482,85.211 21.988 C 85.097 22.442,84.689 22.896,84.306 22.996 C 83.775 23.135,83.608 23.468,83.608 24.385 C 83.608 25.267,83.435 25.636,82.966 25.759 C 82.530 25.873,82.252 26.375,82.101 27.320 C 81.942 28.312,81.678 28.765,81.182 28.894 C 80.628 29.039,80.486 29.366,80.486 30.497 C 80.486 31.793,80.269 32.084,79.393 31.969 C 79.269 31.953,79.075 32.306,78.963 32.754 C 78.851 33.202,78.445 33.651,78.061 33.751 C 77.505 33.896,77.363 34.222,77.363 35.353 C 77.363 36.542,77.250 36.774,76.670 36.774 C 76.157 36.774,75.962 37.023,75.923 37.728 C 75.894 38.252,75.855 38.916,75.836 39.202 C 75.818 39.488,75.451 39.772,75.022 39.833 C 74.346 39.929,74.241 40.151,74.241 41.481 C 74.241 42.782,74.135 43.018,73.554 43.018 C 73.117 43.018,72.790 43.323,72.657 43.853 C 72.542 44.312,72.149 44.765,71.783 44.861 C 71.280 44.993,71.119 45.345,71.119 46.314 C 71.119 47.286,70.958 47.635,70.450 47.768 C 69.995 47.887,69.709 48.366,69.558 49.263 C 69.409 50.140,69.118 50.639,68.687 50.752 C 68.204 50.878,68.013 51.305,67.932 52.434 C 67.872 53.266,67.667 53.949,67.476 53.952 C 66.870 53.961,66.243 54.503,66.451 54.838 C 66.561 55.016,66.251 55.314,65.762 55.499 C 65.013 55.785,64.874 56.054,64.874 57.233 C 64.874 58.382,64.755 58.630,64.204 58.630 C 63.595 58.630,63.036 59.500,63.169 60.242 C 63.339 61.190,63.069 61.752,62.446 61.752 C 61.937 61.752,61.752 61.983,61.752 62.619 C 61.752 63.246,61.566 63.487,61.079 63.487 C 60.548 63.487,60.358 63.815,60.173 65.048 C 59.990 66.264,59.794 66.609,59.284 66.609 C 58.751 66.609,58.630 66.868,58.630 68.005 C 58.630 69.175,58.489 69.455,57.762 69.731 C 57.058 69.999,56.895 70.296,56.895 71.316 C 56.895 72.280,56.734 72.614,56.201 72.753 C 55.820 72.853,55.507 73.210,55.507 73.547 C 55.507 73.884,55.212 74.237,54.851 74.332 C 54.401 74.450,54.120 74.947,53.956 75.919 C 53.794 76.877,53.501 77.403,53.051 77.546 C 52.543 77.707,52.385 78.081,52.385 79.121 C 52.385 80.229,52.261 80.486,51.728 80.486 C 50.981 80.486,50.650 81.132,50.650 82.596 C 50.650 83.377,50.492 83.608,49.957 83.608 C 49.448 83.608,49.263 83.839,49.263 84.475 C 49.263 85.111,49.078 85.343,48.569 85.343 C 48.121 85.343,47.860 85.588,47.832 86.036 C 47.808 86.418,47.749 86.886,47.702 87.077 C 47.654 87.268,47.595 87.658,47.572 87.944 C 47.548 88.231,47.216 88.465,46.834 88.465 C 46.243 88.465,46.141 88.696,46.141 90.026 C 46.141 91.460,46.070 91.587,45.273 91.587 C 44.477 91.587,44.406 91.714,44.406 93.148 C 44.406 94.478,44.303 94.709,43.712 94.709 C 43.264 94.709,43.018 94.941,43.018 95.363 C 43.018 95.722,42.723 96.093,42.362 96.188 C 41.910 96.306,41.631 96.804,41.464 97.789 C 41.280 98.882,41.066 99.219,40.559 99.219 C 40.006 99.219,39.896 99.474,39.896 100.756 C 39.896 102.086,39.791 102.308,39.115 102.404 C 38.627 102.474,38.295 102.794,38.229 103.260 C 38.170 103.670,37.819 104.085,37.448 104.182 C 36.919 104.320,36.774 104.664,36.774 105.778 C 36.774 106.941,36.654 107.199,36.117 107.199 C 35.369 107.199,35.039 107.845,35.039 109.309 C 35.039 110.090,34.881 110.321,34.345 110.321 C 33.754 110.321,33.651 110.552,33.651 111.882 C 33.651 113.316,33.581 113.443,32.784 113.443 C 32.307 113.443,31.935 113.560,31.958 113.703 C 32.069 114.408,31.855 114.766,31.223 114.931 C 30.672 115.076,30.529 115.405,30.529 116.533 C 30.529 117.805,30.384 118.027,29.614 117.924 C 29.191 117.867,28.805 118.827,28.800 119.948 C 28.796 120.842,28.651 121.075,28.101 121.075 C 27.511 121.075,27.407 121.307,27.407 122.612 C 27.407 123.942,27.302 124.164,26.626 124.260 C 26.138 124.330,25.806 124.650,25.739 125.116 C 25.681 125.526,25.330 125.941,24.959 126.038 C 24.432 126.176,24.284 126.520,24.284 127.610 C 24.284 128.794,24.166 129.023,23.504 129.117 C 22.855 129.209,22.705 129.477,22.617 130.703 C 22.530 131.894,22.381 132.177,21.836 132.177 C 21.269 132.177,21.162 132.424,21.162 133.738 C 21.162 135.172,21.092 135.299,20.295 135.299 C 19.677 135.299,19.428 135.487,19.428 135.953 C 19.428 136.314,19.118 136.687,18.734 136.787 C 18.185 136.931,18.040 137.261,18.040 138.365 C 18.040 139.549,17.921 139.778,17.259 139.872 C 16.464 139.985,16.424 140.072,16.349 141.891 C 16.316 142.686,16.141 142.931,15.611 142.931 C 15.103 142.931,14.918 143.163,14.918 143.799 C 14.918 144.417,14.730 144.666,14.264 144.666 C 13.599 144.666,13.197 145.540,13.188 147.008 C 13.184 147.556,12.976 147.788,12.489 147.788 C 11.900 147.788,11.795 148.020,11.795 149.325 C 11.795 150.655,11.690 150.877,11.015 150.973 C 10.366 151.065,10.216 151.333,10.127 152.559 C 10.041 153.751,9.892 154.033,9.347 154.033 C 8.904 154.033,8.673 154.271,8.673 154.727 C 8.673 155.108,8.528 155.421,8.351 155.421 C 7.702 155.421,6.938 156.537,6.938 157.486 C 6.938 158.170,6.731 158.516,6.245 158.643 C 5.696 158.787,5.551 159.117,5.551 160.221 C 5.551 161.405,5.432 161.634,4.770 161.728 C 4.125 161.819,3.971 162.088,3.885 163.277 C 3.806 164.360,3.612 164.760,3.104 164.893 C 2.706 164.997,2.428 165.368,2.428 165.796 C 2.428 166.277,2.207 166.522,1.772 166.522 C 1.024 166.522,0.694 167.168,0.694 168.632 C 0.694 169.189,0.538 169.644,0.347 169.644 C 0.137 169.644,0.000 171.148,0.000 173.461 C 0.000 175.618,0.142 177.277,0.327 177.277 C 0.507 177.277,0.702 177.940,0.761 178.751 C 0.849 179.977,0.999 180.244,1.648 180.336 C 2.310 180.430,2.428 180.660,2.428 181.843 C 2.428 182.934,2.576 183.278,3.103 183.416 C 3.474 183.513,3.825 183.927,3.883 184.337 C 3.950 184.804,4.281 185.124,4.770 185.193 C 5.446 185.289,5.551 185.511,5.551 186.841 C 5.551 188.147,5.655 188.378,6.245 188.378 C 6.721 188.378,6.951 188.623,6.978 189.159 C 7.000 189.588,7.055 190.095,7.099 190.286 C 7.143 190.477,7.203 190.828,7.233 191.067 C 7.262 191.305,7.598 191.500,7.979 191.500 C 8.555 191.500,8.673 191.732,8.673 192.865 C 8.673 193.924,8.828 194.278,9.367 194.449 C 9.748 194.570,10.061 194.971,10.061 195.340 C 10.061 195.824,10.302 196.010,10.928 196.010 C 11.725 196.010,11.795 196.138,11.795 197.572 C 11.795 198.886,11.902 199.133,12.469 199.133 C 13.014 199.133,13.164 199.415,13.250 200.607 C 13.338 201.833,13.488 202.100,14.137 202.192 C 14.799 202.286,14.918 202.516,14.918 203.699 C 14.918 204.783,15.066 205.134,15.582 205.269 C 15.948 205.365,16.341 205.818,16.456 206.277 C 16.589 206.807,16.916 207.112,17.353 207.112 C 17.936 207.112,18.040 207.348,18.040 208.673 C 18.040 209.967,18.151 210.234,18.689 210.234 C 19.182 210.234,19.394 210.579,19.566 211.657 C 19.728 212.667,19.992 213.131,20.478 213.258 C 20.854 213.357,21.162 213.731,21.162 214.091 C 21.162 214.513,21.408 214.744,21.856 214.744 C 22.447 214.744,22.550 214.975,22.550 216.305 C 22.550 217.739,22.621 217.866,23.417 217.866 C 24.214 217.866,24.284 217.994,24.284 219.428 C 24.284 220.757,24.387 220.989,24.978 220.989 C 25.465 220.989,25.674 221.222,25.677 221.769 C 25.686 223.237,26.088 224.111,26.753 224.111 C 27.219 224.111,27.407 224.360,27.407 224.978 C 27.407 225.606,27.593 225.846,28.081 225.846 C 28.625 225.846,28.775 226.128,28.861 227.320 C 28.950 228.546,29.100 228.813,29.748 228.905 C 30.410 228.999,30.529 229.229,30.529 230.412 C 30.529 231.516,30.674 231.846,31.223 231.990 C 31.605 232.089,31.929 232.348,31.943 232.564 C 32.056 234.230,32.492 235.212,33.120 235.212 C 33.420 235.212,33.651 235.515,33.651 235.906 C 33.651 236.369,33.883 236.600,34.345 236.600 C 34.875 236.600,35.049 236.846,35.082 237.641 C 35.158 239.460,35.197 239.547,35.993 239.660 C 36.668 239.756,36.774 239.978,36.774 241.308 C 36.774 242.583,36.885 242.845,37.428 242.845 C 37.938 242.845,38.134 243.190,38.317 244.406 C 38.502 245.639,38.692 245.967,39.223 245.967 C 39.709 245.967,39.896 246.207,39.896 246.834 C 39.896 247.470,40.081 247.702,40.590 247.702 C 41.067 247.702,41.295 247.945,41.320 248.482 C 41.416 250.499,41.478 250.653,42.238 250.761 C 42.899 250.855,43.018 251.085,43.018 252.268 C 43.018 253.373,43.163 253.702,43.712 253.846 C 44.096 253.946,44.406 254.319,44.406 254.681 C 44.406 255.146,44.655 255.334,45.273 255.334 C 46.070 255.334,46.141 255.461,46.141 256.895 C 46.141 258.225,46.243 258.456,46.834 258.456 C 47.311 258.456,47.541 258.701,47.568 259.237 C 47.590 259.666,47.644 260.173,47.689 260.364 C 47.733 260.555,47.793 260.896,47.822 261.121 C 47.851 261.347,48.187 261.631,48.569 261.752 C 49.090 261.917,49.263 262.277,49.263 263.195 C 49.263 264.115,49.430 264.463,49.937 264.595 C 50.308 264.692,50.659 265.107,50.718 265.517 C 50.784 265.983,51.116 266.303,51.605 266.373 C 52.280 266.469,52.385 266.691,52.385 268.021 C 52.385 269.326,52.489 269.558,53.079 269.558 C 53.566 269.558,53.774 269.791,53.778 270.338 C 53.786 271.806,54.188 272.680,54.854 272.680 C 55.386 272.680,55.507 272.940,55.507 274.076 C 55.507 275.247,55.648 275.526,56.377 275.803 C 56.856 275.985,57.227 276.254,57.203 276.402 C 57.078 277.173,57.312 277.537,57.936 277.537 C 58.517 277.537,58.630 277.768,58.630 278.957 C 58.630 280.057,58.777 280.416,59.284 280.548 C 59.727 280.664,60.007 281.150,60.152 282.054 C 60.298 282.968,60.583 283.457,61.058 283.608 C 61.579 283.773,61.752 284.133,61.752 285.052 C 61.752 285.971,61.919 286.319,62.426 286.451 C 62.797 286.548,63.148 286.963,63.207 287.373 C 63.273 287.839,63.605 288.159,64.094 288.229 C 64.769 288.325,64.874 288.547,64.874 289.877 C 64.874 291.182,64.979 291.414,65.568 291.414 C 65.950 291.414,66.281 291.570,66.305 291.761 C 66.329 291.951,66.388 292.264,66.435 292.454 C 66.483 292.645,66.542 293.128,66.565 293.528 C 66.590 293.939,66.910 294.333,67.303 294.435 C 67.752 294.553,67.997 294.909,67.997 295.444 C 67.997 296.039,68.191 296.271,68.690 296.271 C 69.204 296.271,69.384 296.502,69.384 297.161 C 69.384 298.324,69.971 299.393,70.611 299.393 C 70.971 299.393,71.119 299.790,71.119 300.757 C 71.119 301.798,71.277 302.172,71.785 302.333 C 72.231 302.474,72.527 302.998,72.682 303.917 C 72.858 304.957,73.075 305.291,73.578 305.291 C 74.054 305.291,74.241 305.535,74.241 306.158 C 74.241 306.776,74.429 307.025,74.896 307.025 C 75.405 307.025,75.602 307.370,75.784 308.586 C 75.969 309.819,76.160 310.147,76.691 310.147 C 77.302 310.147,77.641 311.510,77.404 313.010 C 77.382 313.153,77.727 313.270,78.172 313.270 C 78.711 313.270,78.979 313.472,78.977 313.877 C 78.968 315.936,79.116 316.392,79.792 316.392 C 80.265 316.392,80.486 316.623,80.486 317.118 C 80.486 317.538,80.762 317.917,81.140 318.016 C 81.589 318.133,81.864 318.623,82.017 319.579 C 82.174 320.562,82.441 321.025,82.924 321.151 C 83.450 321.289,83.608 321.628,83.608 322.621 C 83.608 323.662,83.776 323.990,84.475 324.308 C 84.952 324.525,85.343 324.941,85.343 325.231 C 85.343 325.528,85.647 325.759,86.036 325.759 C 86.627 325.759,86.730 325.990,86.730 327.320 C 86.730 328.723,86.812 328.881,87.538 328.881 C 88.078 328.881,88.346 329.083,88.344 329.488 C 88.335 331.529,88.485 332.003,89.139 332.003 C 89.684 332.003,89.833 332.286,89.919 333.478 C 90.008 334.704,90.158 334.971,90.807 335.063 C 91.372 335.143,91.587 335.407,91.587 336.017 C 91.587 336.629,91.777 336.860,92.281 336.860 C 92.860 336.860,92.975 337.092,92.975 338.259 C 92.975 339.274,93.141 339.719,93.582 339.882 C 94.417 340.189,94.698 340.680,94.704 341.836 C 94.708 342.529,94.917 342.877,95.403 343.004 C 95.926 343.141,96.097 343.478,96.097 344.367 C 96.097 345.290,96.287 345.635,96.964 345.943 C 97.441 346.161,97.832 346.470,97.832 346.630 C 97.832 346.790,143.886 346.921,200.173 346.921 L 302.515 346.921 302.515 345.707 C 302.515 344.724,302.647 344.493,303.209 344.493 C 303.800 344.493,303.903 344.261,303.903 342.931 C 303.903 341.498,303.974 341.370,304.770 341.370 C 305.401 341.370,305.637 341.184,305.637 340.689 C 305.637 340.314,305.950 339.840,306.331 339.636 C 306.805 339.382,307.025 338.909,307.025 338.145 C 307.025 337.316,307.228 336.936,307.806 336.682 C 308.373 336.433,308.615 335.995,308.692 335.075 C 308.768 334.166,308.988 333.759,309.472 333.633 C 310.000 333.495,310.147 333.151,310.147 332.060 C 310.147 330.876,310.266 330.647,310.928 330.553 C 311.417 330.484,311.748 330.164,311.815 329.697 C 311.873 329.287,312.224 328.873,312.595 328.776 C 313.125 328.637,313.270 328.294,313.270 327.179 C 313.270 326.017,313.389 325.759,313.926 325.759 C 314.674 325.759,315.004 325.113,315.004 323.649 C 315.004 322.868,315.163 322.637,315.698 322.637 C 316.289 322.637,316.392 322.405,316.392 321.075 C 316.392 319.642,316.463 319.514,317.259 319.514 C 317.942 319.514,318.127 319.338,318.127 318.687 C 318.127 318.152,318.371 317.797,318.820 317.679 C 319.340 317.543,319.514 317.206,319.514 316.333 C 319.514 315.458,319.708 315.084,320.295 314.826 C 320.863 314.577,321.104 314.139,321.181 313.219 C 321.257 312.310,321.477 311.903,321.962 311.777 C 322.359 311.673,322.637 311.302,322.637 310.874 C 322.637 310.386,322.858 310.147,323.309 310.147 C 323.840 310.147,324.031 309.819,324.216 308.586 C 324.398 307.370,324.595 307.025,325.104 307.025 C 325.647 307.025,325.759 306.763,325.759 305.488 C 325.759 304.158,325.864 303.936,326.539 303.840 C 327.188 303.748,327.338 303.481,327.427 302.255 C 327.513 301.063,327.662 300.781,328.207 300.781 C 328.695 300.781,328.881 300.541,328.881 299.913 C 328.881 299.291,329.068 299.046,329.545 299.046 C 330.047 299.046,330.264 298.713,330.440 297.673 C 330.595 296.753,330.892 296.230,331.338 296.088 C 331.843 295.928,332.003 295.553,332.003 294.537 C 332.003 293.411,332.128 293.179,332.784 293.086 C 333.433 292.994,333.583 292.726,333.671 291.500 C 333.758 290.308,333.907 290.026,334.452 290.026 C 334.931 290.026,335.126 289.787,335.126 289.199 C 335.126 288.668,335.370 288.308,335.810 288.193 C 336.296 288.066,336.560 287.602,336.722 286.592 C 336.894 285.514,337.106 285.169,337.599 285.169 C 338.136 285.169,338.248 284.903,338.248 283.632 C 338.248 282.302,338.353 282.080,339.029 281.984 C 339.678 281.892,339.827 281.625,339.916 280.399 C 340.002 279.207,340.152 278.925,340.696 278.925 C 341.184 278.925,341.370 278.685,341.370 278.057 C 341.370 277.435,341.557 277.190,342.034 277.190 C 342.534 277.190,342.753 276.858,342.926 275.836 C 343.082 274.909,343.365 274.427,343.824 274.308 C 344.345 274.171,344.493 273.824,344.493 272.737 C 344.493 271.553,344.611 271.324,345.273 271.230 C 345.762 271.160,346.093 270.840,346.160 270.374 C 346.218 269.964,346.570 269.549,346.941 269.452 C 347.470 269.314,347.615 268.970,347.615 267.856 C 347.615 266.693,347.734 266.435,348.272 266.435 C 349.019 266.435,349.350 265.789,349.350 264.325 C 349.350 263.544,349.508 263.313,350.043 263.313 C 350.633 263.313,350.737 263.082,350.737 261.776 C 350.737 260.446,350.842 260.224,351.518 260.128 C 352.006 260.059,352.338 259.739,352.405 259.272 C 352.463 258.862,352.814 258.448,353.185 258.351 C 353.712 258.213,353.859 257.869,353.859 256.778 C 353.859 255.595,353.978 255.365,354.640 255.271 C 355.289 255.179,355.439 254.912,355.527 253.686 C 355.614 252.494,355.763 252.212,356.308 252.212 C 356.875 252.212,356.982 251.965,356.982 250.650 C 356.982 249.217,357.052 249.089,357.849 249.089 C 358.467 249.089,358.716 248.902,358.716 248.436 C 358.716 248.074,359.026 247.702,359.410 247.601 C 359.959 247.458,360.104 247.128,360.104 246.024 C 360.104 244.840,360.223 244.611,360.885 244.517 C 361.534 244.425,361.683 244.157,361.772 242.931 C 361.858 241.740,362.008 241.457,362.552 241.457 C 363.120 241.457,363.226 241.210,363.226 239.896 C 363.226 238.462,363.297 238.335,364.094 238.335 C 364.776 238.335,364.961 238.159,364.961 237.508 C 364.961 236.973,365.206 236.617,365.655 236.500 C 366.206 236.355,366.349 236.026,366.349 234.898 C 366.349 233.614,366.432 233.478,367.216 233.478 C 368.013 233.478,368.083 233.351,368.083 231.917 C 368.083 230.587,368.186 230.356,368.777 230.356 C 369.225 230.356,369.471 230.124,369.471 229.702 C 369.471 229.343,369.779 228.968,370.155 228.870 C 370.638 228.744,370.905 228.281,371.062 227.298 C 371.215 226.342,371.490 225.852,371.939 225.735 C 372.443 225.603,372.593 225.244,372.593 224.168 C 372.593 222.984,372.712 222.755,373.374 222.661 C 374.023 222.569,374.172 222.301,374.261 221.075 C 374.347 219.883,374.497 219.601,375.042 219.601 C 375.529 219.601,375.716 219.361,375.716 218.734 C 375.716 218.116,375.903 217.866,376.369 217.866 C 377.035 217.866,377.436 216.992,377.445 215.525 C 377.449 214.977,377.657 214.744,378.144 214.744 C 378.735 214.744,378.838 214.513,378.838 213.183 C 378.838 211.749,378.908 211.622,379.705 211.622 C 380.502 211.622,380.572 211.495,380.572 210.061 C 380.572 208.731,380.675 208.500,381.266 208.500 C 381.729 208.500,381.960 208.268,381.960 207.806 C 381.960 207.424,382.189 207.112,382.468 207.112 C 383.107 207.112,383.695 206.043,383.695 204.880 C 383.695 204.221,383.875 203.990,384.389 203.990 C 384.978 203.990,385.082 203.758,385.082 202.453 C 385.082 201.123,385.188 200.901,385.863 200.805 C 386.512 200.713,386.662 200.445,386.750 199.219 C 386.836 198.027,386.986 197.745,387.531 197.745 C 388.013 197.745,388.205 197.505,388.205 196.902 C 388.205 196.292,388.420 196.028,388.985 195.948 C 389.634 195.856,389.784 195.588,389.873 194.363 C 389.959 193.171,390.108 192.888,390.653 192.888 C 391.220 192.888,391.327 192.641,391.327 191.327 C 391.327 189.893,391.398 189.766,392.194 189.766 C 392.820 189.766,393.062 189.579,393.062 189.095 C 393.062 188.727,393.374 188.326,393.755 188.205 C 394.294 188.034,394.449 187.680,394.449 186.620 C 394.449 185.513,394.573 185.256,395.106 185.256 C 395.854 185.256,396.184 184.610,396.184 183.146 C 396.184 182.365,396.342 182.134,396.878 182.134 C 397.467 182.134,397.572 181.902,397.572 180.597 C 397.572 179.267,397.677 179.045,398.352 178.949 C 398.854 178.877,399.172 178.559,399.244 178.057 C 399.305 177.628,399.500 177.277,399.677 177.277 C 399.855 177.277,400.000 175.872,400.000 174.154 C 400.000 172.431,399.853 171.032,399.673 171.032 C 399.493 171.032,399.298 170.369,399.239 169.558 C 399.151 168.332,399.001 168.065,398.352 167.972 C 397.690 167.878,397.572 167.649,397.572 166.466 C 397.572 165.361,397.427 165.032,396.878 164.888 C 396.391 164.761,396.184 164.415,396.184 163.731 C 396.184 162.782,395.421 161.665,394.771 161.665 C 394.594 161.665,394.449 161.353,394.449 160.971 C 394.449 160.516,394.218 160.278,393.775 160.278 C 393.231 160.278,393.081 159.995,392.995 158.803 C 392.906 157.577,392.756 157.310,392.108 157.218 C 391.432 157.122,391.327 156.900,391.327 155.570 C 391.327 154.264,391.223 154.033,390.633 154.033 C 390.146 154.033,389.938 153.800,389.935 153.252 C 389.926 151.785,389.524 150.911,388.858 150.911 C 388.392 150.911,388.205 150.661,388.205 150.043 C 388.205 149.416,388.018 149.176,387.531 149.176 C 386.986 149.176,386.836 148.894,386.750 147.702 C 386.662 146.476,386.512 146.209,385.863 146.116 C 385.207 146.023,385.082 145.791,385.082 144.665 C 385.082 143.630,384.925 143.275,384.389 143.105 C 384.007 142.984,383.695 142.583,383.695 142.214 C 383.695 141.730,383.453 141.544,382.827 141.544 C 382.031 141.544,381.960 141.417,381.960 139.983 C 381.960 138.668,381.854 138.422,381.286 138.422 C 380.741 138.422,380.592 138.139,380.506 136.947 C 380.417 135.721,380.267 135.454,379.618 135.362 C 378.957 135.268,378.838 135.039,378.838 133.855 C 378.838 132.764,378.690 132.420,378.163 132.283 C 377.793 132.186,377.441 131.771,377.383 131.361 C 377.316 130.894,376.985 130.574,376.496 130.505 C 375.821 130.409,375.716 130.187,375.716 128.857 C 375.716 127.551,375.611 127.320,375.022 127.320 C 374.486 127.320,374.328 127.089,374.328 126.308 C 374.328 124.844,373.998 124.198,373.250 124.198 C 372.713 124.198,372.593 123.940,372.593 122.778 C 372.593 121.649,372.451 121.320,371.899 121.176 C 371.515 121.076,371.206 120.703,371.206 120.341 C 371.206 119.875,370.956 119.688,370.338 119.688 C 369.542 119.688,369.471 119.561,369.471 118.127 C 369.471 116.797,369.368 116.565,368.777 116.565 C 368.242 116.565,368.083 116.334,368.083 115.553 C 368.083 114.089,367.753 113.443,367.005 113.443 C 366.536 113.443,366.349 113.196,366.349 112.576 C 366.349 111.948,366.162 111.709,365.675 111.709 C 365.130 111.709,364.980 111.426,364.894 110.234 C 364.806 109.008,364.656 108.741,364.007 108.649 C 363.332 108.553,363.226 108.331,363.226 107.001 C 363.226 105.750,363.110 105.464,362.599 105.464 C 362.144 105.464,361.882 105.060,361.645 103.990 C 361.405 102.907,361.157 102.528,360.711 102.563 C 360.289 102.597,360.104 102.359,360.104 101.783 C 360.104 101.193,359.909 100.954,359.430 100.954 C 358.885 100.954,358.736 100.672,358.650 99.480 C 358.561 98.254,358.411 97.987,357.762 97.894 C 357.087 97.798,356.982 97.576,356.982 96.246 C 356.982 94.972,356.870 94.709,356.327 94.709 C 355.818 94.709,355.621 94.364,355.439 93.148 C 355.254 91.915,355.063 91.587,354.532 91.587 C 354.046 91.587,353.859 91.347,353.859 90.720 C 353.859 90.092,353.673 89.853,353.186 89.853 C 352.641 89.853,352.491 89.570,352.405 88.378 C 352.316 87.152,352.167 86.885,351.518 86.793 C 350.856 86.699,350.737 86.470,350.737 85.286 C 350.737 84.210,350.587 83.851,350.083 83.719 C 349.634 83.601,349.359 83.112,349.206 82.155 C 349.049 81.173,348.782 80.710,348.299 80.584 C 347.923 80.485,347.615 80.111,347.615 79.751 C 347.615 79.336,347.370 79.098,346.941 79.098 C 346.396 79.098,346.247 78.816,346.160 77.624 C 346.072 76.398,345.922 76.130,345.273 76.038 C 344.611 75.944,344.493 75.715,344.493 74.531 C 344.493 73.441,344.345 73.097,343.818 72.959 C 343.447 72.862,343.096 72.447,343.038 72.037 C 342.971 71.571,342.640 71.251,342.151 71.181 C 341.476 71.086,341.370 70.863,341.370 69.534 C 341.370 68.244,341.262 67.997,340.697 67.997 C 340.170 67.997,340.001 67.715,339.917 66.696 C 339.838 65.739,339.602 65.304,339.029 65.052 C 338.413 64.782,338.248 64.427,338.248 63.372 C 338.248 62.326,338.097 61.994,337.554 61.852 C 337.173 61.753,336.860 61.380,336.860 61.024 C 336.860 60.624,336.530 60.295,335.993 60.160 C 335.257 59.975,335.126 59.741,335.126 58.615 C 335.126 57.593,334.966 57.238,334.432 57.069 C 333.967 56.921,333.736 56.541,333.733 55.918 C 333.726 54.815,333.436 54.323,332.611 54.019 C 332.185 53.862,332.003 53.418,332.003 52.537 C 332.003 51.583,331.841 51.237,331.329 51.103 C 330.958 51.006,330.607 50.591,330.549 50.181 C 330.482 49.715,330.150 49.395,329.662 49.325 C 328.986 49.229,328.881 49.007,328.881 47.678 C 328.881 46.372,328.777 46.141,328.187 46.141 C 327.652 46.141,327.493 45.909,327.493 45.128 C 327.493 43.664,327.163 43.018,326.416 43.018 C 325.878 43.018,325.759 42.760,325.759 41.598 C 325.759 40.483,325.614 40.140,325.085 40.002 C 324.714 39.905,324.362 39.490,324.304 39.080 C 324.246 38.670,324.003 38.315,323.764 38.291 C 323.526 38.268,323.174 38.229,322.984 38.205 C 322.793 38.181,322.637 37.522,322.637 36.741 C 322.637 35.630,322.491 35.283,321.968 35.146 C 321.509 35.026,321.226 34.545,321.070 33.617 C 320.897 32.595,320.678 32.264,320.178 32.264 C 319.701 32.264,319.514 32.019,319.514 31.396 C 319.514 30.769,319.328 30.529,318.840 30.529 C 318.296 30.529,318.146 30.247,318.060 29.055 C 317.971 27.829,317.821 27.562,317.173 27.469 C 316.497 27.373,316.392 27.151,316.392 25.821 C 316.392 24.547,316.280 24.284,315.738 24.284 C 315.228 24.284,315.031 23.939,314.849 22.723 C 314.664 21.490,314.473 21.162,313.942 21.162 C 313.491 21.162,313.270 20.923,313.270 20.436 C 313.270 20.008,312.992 19.637,312.594 19.533 C 312.086 19.400,311.892 19.000,311.814 17.917 C 311.727 16.728,311.573 16.460,310.928 16.368 C 310.272 16.275,310.147 16.043,310.147 14.917 C 310.147 13.900,309.987 13.526,309.482 13.365 C 309.037 13.224,308.739 12.702,308.586 11.795 C 308.433 10.889,308.135 10.366,307.691 10.225 C 307.325 10.109,307.025 9.712,307.025 9.343 C 307.025 8.911,306.786 8.673,306.351 8.673 C 305.806 8.673,305.657 8.391,305.571 7.199 C 305.482 5.973,305.332 5.705,304.683 5.613 C 304.008 5.517,303.903 5.295,303.903 3.965 C 303.903 2.660,303.798 2.428,303.209 2.428 C 302.647 2.428,302.515 2.197,302.515 1.214 L 302.515 0.000 200.173 0.000 L 97.832 0.000 97.832 1.214 M236.253 53.716 C 241.329 55.871,242.701 56.747,245.620 59.703 C 247.128 61.231,248.607 63.126,249.139 64.213 C 249.643 65.245,250.488 67.000,251.017 68.113 C 252.274 70.762,252.273 70.761,260.590 71.792 C 262.050 71.973,263.843 72.442,264.575 72.834 C 265.306 73.226,266.016 73.547,266.153 73.547 C 266.289 73.547,267.150 74.046,268.066 74.655 C 275.840 79.825,278.923 85.746,278.926 95.513 C 278.927 101.337,277.617 126.082,277.201 128.085 C 277.015 128.982,276.770 133.588,276.657 138.319 C 276.543 143.050,276.312 147.624,276.142 148.482 C 275.972 149.341,275.666 153.322,275.463 157.329 C 275.259 161.336,274.938 167.658,274.749 171.379 C 274.560 175.100,274.242 179.315,274.043 180.746 C 273.843 182.177,273.544 187.095,273.377 191.674 C 272.205 223.812,270.726 229.479,262.099 234.909 C 261.145 235.510,259.974 236.262,259.497 236.580 C 257.665 237.803,253.834 238.787,250.050 239.007 C 245.645 239.263,245.300 239.475,246.289 241.320 C 246.684 242.058,247.008 242.898,247.009 243.187 C 247.010 243.476,247.322 244.223,247.703 244.848 C 248.084 245.473,248.395 246.219,248.395 246.507 C 248.395 246.795,248.786 247.801,249.263 248.742 C 249.740 249.684,250.131 250.732,250.132 251.073 C 250.134 251.413,250.445 252.160,250.824 252.732 C 251.203 253.304,251.516 254.007,251.519 254.293 C 251.522 254.579,251.908 255.594,252.377 256.548 C 252.847 257.502,253.236 258.517,253.243 258.803 C 253.250 259.089,253.567 259.835,253.948 260.459 C 254.328 261.084,254.640 261.833,254.640 262.123 C 254.640 262.413,255.030 263.384,255.507 264.280 C 255.984 265.176,256.376 266.223,256.377 266.606 C 256.378 266.989,256.689 267.771,257.069 268.343 C 257.448 268.916,257.760 269.618,257.763 269.905 C 257.766 270.191,258.153 271.206,258.622 272.160 C 259.091 273.114,259.481 274.128,259.487 274.415 C 259.494 274.701,259.811 275.446,260.192 276.071 C 261.580 278.346,261.208 279.330,258.543 280.436 C 257.255 280.970,255.689 281.629,255.062 281.901 C 253.049 282.772,251.957 282.568,251.676 281.266 C 251.541 280.646,251.161 279.748,250.830 279.271 C 250.499 278.794,250.145 278.014,250.044 277.537 C 249.855 276.653,248.814 273.964,247.693 271.466 C 246.520 268.851,245.271 265.568,245.272 265.101 C 245.273 264.845,244.983 264.220,244.629 263.714 C 244.274 263.207,243.901 262.402,243.799 261.925 C 243.610 261.042,242.569 258.353,241.448 255.854 C 240.246 253.174,239.027 249.951,239.020 249.436 C 239.016 249.150,238.708 248.526,238.335 248.049 C 237.962 247.572,237.652 246.869,237.647 246.487 C 237.642 246.106,237.336 245.298,236.966 244.691 C 236.597 244.085,236.190 243.031,236.062 242.350 C 235.934 241.668,235.729 241.110,235.608 241.110 C 235.486 241.109,234.936 240.722,234.386 240.250 C 232.897 238.969,233.586 238.992,199.739 239.101 L 168.255 239.202 167.060 240.546 C 166.403 241.284,165.760 242.364,165.633 242.945 C 165.505 243.526,165.107 244.483,164.749 245.071 C 164.390 245.659,164.096 246.346,164.095 246.596 C 164.094 246.847,163.703 247.906,163.226 248.948 C 162.749 249.991,162.359 251.065,162.359 251.334 C 162.359 251.603,162.207 251.918,162.021 252.033 C 161.835 252.147,161.457 252.976,161.180 253.874 C 160.666 255.545,159.613 258.241,158.509 260.711 C 158.168 261.474,157.476 263.192,156.971 264.527 C 156.466 265.863,155.837 267.424,155.574 267.997 C 155.312 268.569,154.841 269.740,154.529 270.598 C 153.554 273.278,152.787 275.236,152.218 276.496 C 151.916 277.164,151.245 278.725,150.727 279.965 C 149.486 282.934,149.507 282.920,147.608 282.079 C 146.705 281.680,145.743 281.353,145.471 281.353 C 145.199 281.353,144.322 281.014,143.521 280.600 C 142.720 280.186,141.830 279.741,141.544 279.610 C 140.744 279.247,140.736 278.080,141.523 276.537 C 141.916 275.766,142.241 274.857,142.245 274.515 C 142.250 274.174,142.558 273.504,142.931 273.027 C 143.305 272.550,143.618 271.847,143.628 271.466 C 143.639 271.084,144.031 269.991,144.500 269.037 C 144.970 268.083,145.355 267.099,145.357 266.851 C 145.359 266.603,145.656 265.822,146.019 265.116 C 146.902 263.396,148.167 260.221,148.396 259.150 C 148.498 258.673,148.849 257.892,149.176 257.415 C 149.503 256.938,149.855 256.158,149.956 255.681 C 150.141 254.816,151.134 252.242,152.298 249.610 C 153.463 246.977,154.456 244.403,154.640 243.539 C 154.742 243.062,155.115 242.257,155.470 241.750 C 156.985 239.586,156.306 239.029,152.152 239.029 C 148.844 239.029,144.555 237.853,141.927 236.225 C 141.048 235.681,139.910 234.998,139.397 234.706 C 137.591 233.680,132.871 228.185,132.871 227.110 C 132.871 226.848,132.568 226.248,132.198 225.778 C 131.829 225.308,131.421 224.468,131.293 223.910 C 131.165 223.353,130.830 222.194,130.549 221.336 C 130.228 220.354,129.917 217.134,129.711 212.663 C 129.530 208.751,129.222 203.599,129.025 201.214 C 128.828 198.829,128.533 194.458,128.369 191.500 C 127.368 173.446,126.535 159.067,126.078 151.951 C 125.790 147.467,125.410 141.379,125.233 138.422 C 124.395 124.431,124.181 120.871,123.875 115.872 C 122.937 100.555,122.691 92.630,123.096 90.873 C 123.320 89.901,123.504 88.795,123.504 88.416 C 123.504 88.037,123.894 86.873,124.371 85.830 C 124.848 84.788,125.239 83.866,125.239 83.782 C 125.239 82.655,132.317 74.935,133.350 74.935 C 133.533 74.935,133.930 74.719,134.231 74.454 C 135.895 72.993,142.896 71.300,149.431 70.778 C 149.605 70.765,151.605 66.608,151.605 66.261 C 151.605 63.876,158.420 57.104,163.032 54.905 C 167.527 52.762,166.680 52.806,202.775 52.859 L 234.345 52.905 236.253 53.716 M169.818 62.767 C 167.969 63.229,165.258 64.806,163.988 66.158 C 160.586 69.782,160.794 69.445,161.331 70.448 C 161.682 71.105,162.489 71.119,200.887 71.119 L 240.084 71.119 240.474 70.263 C 241.126 68.832,238.425 65.789,234.699 63.758 L 232.611 62.619 201.735 62.563 C 184.753 62.533,170.390 62.625,169.818 62.767 M143.105 81.518 C 139.053 82.271,135.877 84.925,133.546 89.506 C 132.423 91.713,132.675 110.761,133.932 118.647 C 134.130 119.887,134.440 124.961,134.621 129.922 C 134.802 134.883,135.097 140.737,135.276 142.931 C 135.456 145.126,135.849 151.761,136.151 157.676 C 136.453 163.591,136.859 169.679,137.055 171.206 C 137.250 172.732,137.557 177.806,137.737 182.480 C 137.917 187.155,138.211 192.697,138.392 194.796 C 138.572 196.895,138.893 202.203,139.105 206.592 C 139.749 219.954,140.676 223.079,145.012 226.506 C 148.831 229.525,144.657 229.315,200.786 229.315 L 250.342 229.315 252.578 228.568 C 259.734 226.176,261.982 222.179,262.595 210.755 C 263.377 196.193,264.217 181.960,265.392 163.400 C 265.567 160.633,266.037 152.437,266.437 145.186 C 266.836 137.936,267.393 128.335,267.672 123.851 C 267.952 119.367,268.402 111.795,268.673 107.025 C 268.943 102.255,269.236 97.806,269.324 97.138 C 269.580 95.197,268.577 89.518,267.805 88.536 C 267.433 88.064,267.129 87.484,267.129 87.247 C 267.129 86.591,262.989 82.932,261.961 82.680 C 261.465 82.557,260.675 82.209,260.206 81.905 C 259.287 81.309,146.241 80.936,143.105 81.518 M240.389 90.390 C 242.026 90.686,243.912 91.171,244.579 91.469 C 247.051 92.571,249.862 94.094,250.457 94.653 C 250.795 94.970,251.646 95.756,252.349 96.398 C 253.052 97.041,254.049 98.134,254.565 98.827 C 255.081 99.520,255.595 100.165,255.706 100.260 C 255.817 100.356,256.141 100.902,256.425 101.474 C 256.709 102.047,257.103 102.827,257.301 103.209 C 258.118 104.786,259.153 108.666,259.365 110.954 C 259.627 113.771,258.906 129.672,258.434 131.482 C 258.260 132.149,258.020 137.067,257.899 142.410 C 257.721 150.337,257.561 152.571,257.028 154.546 C 256.669 155.878,256.371 157.283,256.367 157.669 C 256.360 158.303,255.493 160.121,253.369 163.953 C 251.611 167.123,246.921 170.748,242.159 172.616 L 239.565 173.634 200.702 173.634 C 161.954 173.634,161.835 173.632,160.451 172.909 C 159.688 172.510,158.638 172.079,158.118 171.951 C 157.264 171.740,156.288 171.175,153.686 169.384 C 151.451 167.847,147.453 163.050,146.919 161.264 C 146.785 160.817,146.452 160.097,146.180 159.665 C 144.832 157.529,143.722 147.062,143.657 135.884 C 143.640 132.866,143.472 130.111,143.286 129.762 C 142.630 128.537,142.399 109.874,143.019 108.173 C 143.318 107.351,143.656 106.128,143.769 105.455 C 144.415 101.610,150.004 94.880,154.230 92.857 C 155.362 92.316,156.600 91.700,156.982 91.489 C 157.363 91.279,159.003 90.842,160.624 90.519 C 164.929 89.660,235.718 89.546,240.389 90.390 M162.706 100.143 C 158.755 100.804,152.992 106.162,152.992 109.174 C 152.992 109.546,152.752 110.556,152.458 111.418 C 152.009 112.737,151.978 113.697,152.268 117.464 C 152.457 119.927,152.922 127.875,153.301 135.126 C 154.120 150.812,154.513 154.304,155.702 156.461 C 157.808 160.285,158.058 160.537,162.181 162.980 C 164.552 164.385,167.576 164.488,203.219 164.374 L 236.774 164.267 239.165 163.179 C 245.660 160.223,247.413 156.554,248.062 144.558 C 248.260 140.897,248.671 133.608,248.976 128.361 C 249.920 112.111,249.920 112.082,249.110 110.027 C 248.717 109.030,248.395 107.975,248.395 107.683 C 248.395 106.563,243.793 101.648,242.744 101.648 C 242.572 101.648,241.939 101.297,241.337 100.867 L 240.243 100.087 201.908 100.042 C 180.824 100.018,163.183 100.063,162.706 100.143 M168.030 183.449 C 168.250 183.615,168.977 183.967,169.644 184.229 C 177.076 187.151,180.664 199.612,175.623 204.990 C 175.292 205.342,174.339 206.354,173.504 207.238 C 167.071 214.052,154.961 211.805,150.824 203.030 C 149.340 199.882,149.470 193.368,151.070 190.633 C 152.711 187.829,155.893 184.562,156.983 184.562 C 157.082 184.562,157.825 184.259,158.633 183.889 C 160.929 182.838,166.858 182.560,168.030 183.449 M243.886 184.128 C 251.765 187.790,254.778 197.451,250.256 204.552 C 243.673 214.891,227.816 212.801,224.631 201.176 C 223.414 196.732,223.992 192.461,226.244 189.245 C 230.371 183.356,237.670 181.238,243.886 184.128 M161.613 193.541 C 159.828 194.673,159.584 195.114,159.584 197.206 C 159.584 200.648,163.460 202.740,165.952 200.644 C 170.267 197.014,166.321 190.555,161.613 193.541 M236.038 193.566 C 233.196 195.656,233.141 198.654,235.908 200.695 C 238.050 202.275,242.064 200.873,242.206 198.496 C 242.481 193.867,239.197 191.242,236.038 193.566 M228.197 248.589 C 228.913 249.090,228.968 249.396,228.968 252.905 C 228.968 256.415,228.913 256.720,228.197 257.222 C 227.293 257.856,174.801 258.051,173.810 257.425 C 172.989 256.906,172.830 249.422,173.623 248.629 C 174.481 247.772,226.975 247.733,228.197 248.589 M237.564 267.322 C 238.280 267.824,238.335 268.130,238.335 271.639 C 238.335 275.149,238.280 275.454,237.564 275.956 C 236.657 276.591,165.439 276.787,164.441 276.157 C 163.600 275.626,163.473 268.353,164.290 267.451 C 165.138 266.514,236.230 266.388,237.564 267.322 " stroke="none" fill="#64ccfc" fill-rule="evenodd"></path></g></svg>