<svg id="svg" version="1.1" xmlns="http://www.w3.org/2000/svg" xmlns:xlink="http://www.w3.org/1999/xlink" width="400" height="345.5252918287938" viewBox="0, 0, 400,345.5252918287938"><g id="svgg"><path id="path0" d="M161.144 51.149 C 159.109 51.955,157.581 54.147,157.396 56.525 C 157.141 59.784,158.925 61.879,164.538 64.915 C 168.760 67.199,172.338 69.261,172.515 69.513 C 172.610 69.648,173.232 70.010,173.898 70.318 C 174.564 70.626,175.687 71.227,176.394 71.653 C 188.940 79.218,192.442 79.705,194.708 74.197 C 196.461 69.939,195.185 67.853,188.418 63.919 C 186.992 63.089,185.514 62.218,185.134 61.983 C 184.754 61.747,183.820 61.226,183.060 60.826 C 182.299 60.425,181.054 59.725,180.294 59.269 C 179.533 58.814,178.366 58.166,177.701 57.829 C 177.035 57.492,176.413 57.118,176.318 56.997 C 176.223 56.876,175.056 56.194,173.725 55.481 C 172.394 54.768,170.916 53.915,170.441 53.585 C 169.965 53.256,169.241 52.882,168.831 52.755 C 168.420 52.627,168.003 52.311,167.904 52.052 C 167.804 51.793,167.091 51.475,166.318 51.344 C 165.545 51.213,164.825 50.965,164.718 50.791 C 164.424 50.316,162.847 50.474,161.144 51.149 M138.289 80.635 C 135.895 82.808,135.275 85.766,136.662 88.392 C 137.433 89.850,139.737 91.962,140.559 91.962 C 140.804 91.962,141.211 92.165,141.462 92.413 C 141.886 92.831,144.904 94.597,149.137 96.903 C 151.971 98.447,155.085 99.599,155.790 99.364 C 162.223 97.224,163.126 90.475,157.440 87.035 C 156.072 86.208,148.684 82.018,146.163 80.640 C 143.204 79.022,140.067 79.020,138.289 80.635 M214.027 84.362 C 213.184 84.541,212.337 84.846,212.142 85.040 C 211.948 85.234,211.564 85.393,211.290 85.393 C 210.669 85.393,206.409 87.503,204.322 88.844 C 203.466 89.394,201.755 90.423,200.519 91.132 C 199.283 91.841,198.194 92.528,198.099 92.658 C 198.003 92.789,197.537 93.096,197.061 93.341 C 196.586 93.586,194.683 94.776,192.833 95.985 C 190.982 97.195,189.334 98.185,189.170 98.185 C 189.006 98.185,188.590 98.496,188.245 98.876 C 187.901 99.257,187.422 99.568,187.181 99.568 C 186.940 99.568,186.281 99.957,185.716 100.432 C 185.151 100.908,184.548 101.296,184.377 101.296 C 184.205 101.296,183.761 101.530,183.389 101.816 C 181.953 102.921,180.250 104.055,179.257 104.567 C 178.686 104.861,177.519 105.566,176.664 106.135 C 175.808 106.703,174.680 107.340,174.157 107.551 C 173.634 107.761,173.207 108.054,173.207 108.203 C 173.207 108.351,172.740 108.666,172.169 108.902 C 171.599 109.139,171.132 109.472,171.132 109.643 C 171.132 109.814,170.704 110.143,170.182 110.374 C 169.659 110.604,166.469 112.546,163.094 114.688 C 159.719 116.830,156.826 118.583,156.665 118.583 C 156.505 118.583,156.092 118.894,155.748 119.274 C 155.403 119.654,154.937 119.965,154.710 119.965 C 154.484 119.965,154.021 120.273,153.681 120.648 C 153.342 121.023,152.754 121.429,152.375 121.549 C 151.996 121.670,150.733 122.401,149.568 123.174 C 148.403 123.948,146.906 124.907,146.240 125.307 C 144.189 126.538,143.989 126.663,141.634 128.201 C 139.228 129.772,136.533 132.506,135.629 134.291 C 135.335 134.874,134.897 135.583,134.656 135.869 C 132.452 138.480,132.418 219.004,134.619 223.260 C 134.926 223.854,135.177 224.554,135.177 224.816 C 135.177 225.079,135.565 226.059,136.040 226.994 C 136.515 227.930,136.904 228.830,136.904 228.996 C 136.909 230.051,141.788 236.472,144.562 239.074 C 146.297 240.702,147.063 241.299,149.309 242.774 C 149.808 243.102,150.449 243.531,150.735 243.728 C 151.020 243.924,152.109 244.622,153.155 245.278 C 154.201 245.933,155.226 246.616,155.434 246.794 C 155.642 246.972,156.342 247.389,156.990 247.721 C 157.638 248.053,158.245 248.435,158.341 248.570 C 158.436 248.706,158.893 249.016,159.356 249.260 C 159.819 249.505,160.364 249.842,160.566 250.010 C 160.768 250.177,162.100 251.064,163.526 251.979 C 164.952 252.894,167.024 254.253,168.129 254.998 C 169.235 255.743,170.557 256.588,171.068 256.876 C 171.579 257.164,172.924 258.020,174.058 258.778 C 175.192 259.536,176.378 260.311,176.694 260.501 C 177.010 260.691,178.147 261.430,179.220 262.143 C 180.293 262.857,181.253 263.440,181.352 263.440 C 181.452 263.440,181.721 263.596,181.951 263.787 C 182.312 264.087,184.219 265.344,186.531 266.807 C 186.903 267.043,187.763 267.537,188.441 267.905 C 189.120 268.274,189.878 268.820,190.126 269.119 C 190.374 269.418,190.715 269.663,190.883 269.663 C 191.052 269.663,192.710 270.653,194.569 271.863 C 196.428 273.073,198.293 274.173,198.715 274.306 C 199.137 274.440,199.481 274.678,199.481 274.835 C 199.481 274.991,200.090 275.363,200.835 275.661 C 201.579 275.959,202.289 276.365,202.411 276.563 C 202.534 276.761,203.325 277.097,204.169 277.310 C 205.014 277.523,205.704 277.813,205.704 277.956 C 205.704 278.099,206.443 278.409,207.347 278.644 C 208.250 278.880,209.486 279.292,210.094 279.561 C 213.205 280.936,223.765 281.003,227.273 279.670 C 228.245 279.300,229.255 278.998,229.516 278.998 C 230.002 278.997,233.808 277.461,234.745 276.886 C 235.030 276.712,235.935 276.261,236.755 275.885 C 237.575 275.508,238.480 274.966,238.767 274.679 C 239.054 274.392,239.570 274.157,239.913 274.157 C 240.257 274.157,240.740 273.914,240.987 273.616 C 241.234 273.318,241.907 272.831,242.482 272.534 C 243.057 272.237,243.740 271.780,244.001 271.520 C 244.261 271.259,244.673 271.046,244.915 271.046 C 245.157 271.046,245.637 270.735,245.981 270.354 C 246.325 269.974,246.719 269.663,246.857 269.663 C 247.082 269.663,248.360 268.914,252.031 266.629 C 252.697 266.215,253.475 265.720,253.760 265.530 C 256.759 263.524,259.226 261.922,259.957 261.506 C 260.904 260.966,261.484 260.594,264.694 258.461 C 265.811 257.719,267.269 256.772,267.934 256.357 C 268.600 255.942,270.272 254.876,271.651 253.989 C 273.029 253.102,275.285 251.651,276.664 250.764 C 278.042 249.878,279.793 248.764,280.553 248.290 C 281.314 247.816,282.358 247.142,282.873 246.791 C 283.388 246.441,283.947 246.154,284.116 246.154 C 284.284 246.154,284.700 245.847,285.040 245.471 C 285.379 245.096,285.987 244.686,286.390 244.560 C 286.792 244.434,287.530 244.002,288.029 243.600 C 288.528 243.198,289.373 242.558,289.906 242.178 C 293.601 239.542,299.049 233.763,299.049 232.480 C 299.049 232.205,299.176 231.979,299.331 231.979 C 300.052 231.979,303.336 224.355,303.699 221.838 C 303.832 220.919,304.197 219.519,304.510 218.727 C 305.023 217.427,305.090 213.691,305.189 180.640 C 305.315 138.687,305.304 138.491,302.561 134.054 C 301.814 132.847,298.494 129.300,298.111 129.300 C 298.016 129.300,297.477 128.911,296.912 128.436 C 296.347 127.960,295.687 127.571,295.446 127.571 C 295.205 127.571,294.726 127.260,294.382 126.880 C 294.038 126.500,293.628 126.188,293.471 126.188 C 293.314 126.188,292.308 125.605,291.235 124.892 C 290.163 124.179,288.798 123.322,288.204 122.987 C 287.609 122.652,285.955 121.608,284.529 120.666 C 283.103 119.724,280.808 118.315,279.430 117.534 C 278.051 116.753,276.923 115.969,276.923 115.793 C 276.923 115.616,276.778 115.471,276.600 115.471 C 276.266 115.471,272.733 113.389,272.429 113.012 C 272.334 112.894,271.634 112.462,270.873 112.051 C 270.112 111.639,269.091 111.035,268.603 110.708 C 268.115 110.380,267.182 109.766,266.529 109.343 C 265.876 108.919,265.108 108.408,264.823 108.207 C 264.249 107.801,263.514 107.371,261.476 106.248 C 260.724 105.834,259.906 105.251,259.658 104.952 C 259.410 104.653,259.031 104.407,258.817 104.406 C 258.602 104.405,257.416 103.706,256.180 102.852 C 254.944 101.999,253.757 101.300,253.543 101.299 C 253.328 101.297,252.950 101.052,252.702 100.753 C 252.453 100.453,251.635 99.870,250.884 99.456 C 248.673 98.239,248.267 97.981,247.598 97.376 C 247.249 97.061,246.835 96.802,246.678 96.802 C 246.521 96.802,245.882 96.413,245.259 95.938 C 244.636 95.462,243.999 95.071,243.843 95.067 C 243.586 95.061,240.934 93.405,240.104 92.731 C 239.914 92.577,238.825 91.928,237.684 91.290 C 236.543 90.651,235.298 89.861,234.918 89.534 C 234.538 89.207,233.808 88.725,233.296 88.463 C 232.784 88.201,231.539 87.501,230.530 86.909 C 229.521 86.316,228.188 85.720,227.568 85.584 C 226.948 85.448,225.976 85.105,225.407 84.821 C 224.149 84.194,216.311 83.877,214.027 84.362 M91.789 95.406 C 86.776 97.503,87.216 104.825,92.507 107.336 C 93.158 107.645,94.585 108.480,95.678 109.192 C 96.772 109.903,98.055 110.681,98.531 110.921 C 99.006 111.160,100.017 111.732,100.778 112.192 C 102.979 113.523,104.476 114.358,106.004 115.109 C 106.787 115.494,107.623 116.044,107.862 116.331 C 108.100 116.619,108.445 116.854,108.627 116.854 C 108.810 116.854,109.918 117.420,111.091 118.111 C 112.264 118.803,113.739 119.661,114.370 120.019 C 115.000 120.377,115.855 120.891,116.271 121.161 C 117.362 121.870,120.277 122.169,121.885 121.736 C 126.882 120.390,127.649 113.109,123.077 110.420 C 122.602 110.141,121.590 109.535,120.830 109.074 C 120.069 108.613,118.957 108.001,118.358 107.714 C 117.759 107.428,117.059 106.994,116.802 106.751 C 116.545 106.508,115.791 106.034,115.125 105.697 C 114.460 105.360,113.293 104.710,112.532 104.252 C 111.772 103.793,110.683 103.169,110.112 102.865 C 109.542 102.561,108.453 101.951,107.692 101.509 C 104.248 99.511,103.447 99.052,101.988 98.244 C 101.132 97.770,99.810 97.021,99.049 96.580 C 98.289 96.138,97.306 95.618,96.866 95.425 C 95.916 95.008,92.770 94.996,91.789 95.406 M224.908 98.390 C 226.610 99.263,228.237 100.170,228.522 100.406 C 228.807 100.641,229.818 101.286,230.769 101.839 C 232.907 103.081,233.175 103.248,235.479 104.775 C 236.502 105.452,237.626 106.114,237.979 106.247 C 238.383 106.399,238.542 106.689,238.411 107.032 C 238.296 107.331,238.202 107.714,238.202 107.883 C 238.202 108.169,234.614 110.631,234.197 110.631 C 234.093 110.631,233.498 111.020,232.874 111.495 C 232.251 111.971,231.585 112.360,231.395 112.360 C 231.205 112.360,230.768 112.671,230.424 113.051 C 230.079 113.431,229.661 113.742,229.494 113.742 C 229.213 113.742,227.888 114.568,221.907 118.469 C 220.645 119.292,219.464 119.965,219.281 119.965 C 219.098 119.965,218.667 120.277,218.323 120.657 C 217.979 121.037,217.500 121.348,217.259 121.348 C 217.018 121.348,216.381 121.702,215.843 122.135 C 215.306 122.567,214.438 123.138,213.915 123.403 C 213.392 123.668,212.965 124.014,212.965 124.173 C 212.965 124.331,212.770 124.460,212.532 124.461 C 212.295 124.461,210.933 125.234,209.507 126.179 C 208.081 127.124,206.744 127.901,206.536 127.907 C 206.328 127.912,205.876 128.228,205.532 128.608 C 205.187 128.989,204.716 129.300,204.483 129.300 C 204.251 129.300,203.857 129.545,203.609 129.844 C 203.361 130.143,202.603 130.692,201.925 131.064 C 201.246 131.435,200.225 132.042,199.654 132.411 C 199.084 132.781,198.073 133.409,197.407 133.808 C 194.607 135.483,193.604 136.109,191.747 137.338 C 190.669 138.051,189.659 138.634,189.502 138.634 C 189.345 138.634,188.935 138.946,188.591 139.326 C 188.247 139.706,187.810 140.017,187.619 140.017 C 187.429 140.017,186.764 140.406,186.140 140.882 C 185.517 141.357,184.865 141.746,184.692 141.746 C 184.519 141.746,184.095 142.057,183.751 142.437 C 182.912 143.365,180.128 143.391,178.811 142.484 C 177.418 141.525,173.900 139.202,173.253 138.814 C 172.576 138.409,169.112 136.216,165.774 134.081 C 164.443 133.230,163.078 132.432,162.741 132.307 C 161.490 131.846,161.970 129.300,163.308 129.300 C 163.559 129.300,164.047 128.989,164.391 128.608 C 164.735 128.228,165.214 127.917,165.455 127.917 C 165.696 127.917,166.356 127.528,166.921 127.053 C 167.485 126.577,168.063 126.188,168.205 126.188 C 168.346 126.188,169.524 125.488,170.823 124.633 C 172.122 123.777,173.326 123.077,173.499 123.077 C 173.672 123.077,174.016 122.832,174.265 122.533 C 174.513 122.234,175.331 121.651,176.083 121.237 C 178.293 120.019,178.699 119.762,179.368 119.157 C 179.717 118.841,180.173 118.583,180.381 118.583 C 180.589 118.583,181.199 118.226,181.737 117.791 C 182.274 117.356,183.103 116.809,183.578 116.576 C 184.054 116.342,185.143 115.690,185.998 115.127 C 186.854 114.563,187.889 113.953,188.298 113.771 C 188.708 113.588,189.146 113.272,189.273 113.067 C 189.399 112.863,190.075 112.382,190.775 111.999 C 191.476 111.616,192.515 111.001,193.086 110.631 C 193.656 110.261,194.667 109.633,195.333 109.235 C 195.998 108.837,197.092 108.171,197.762 107.756 C 198.433 107.341,199.495 106.690,200.122 106.309 C 200.748 105.929,201.585 105.346,201.980 105.013 C 202.375 104.680,202.884 104.408,203.111 104.408 C 203.337 104.408,203.804 104.097,204.149 103.717 C 204.493 103.336,204.972 103.025,205.213 103.025 C 205.454 103.025,206.114 102.636,206.679 102.161 C 207.243 101.685,207.797 101.296,207.908 101.296 C 208.020 101.296,209.007 100.713,210.102 100.000 C 216.054 96.125,219.715 95.727,224.908 98.390 M253.476 116.045 C 254.144 116.650,254.550 116.908,256.761 118.125 C 257.513 118.539,258.331 119.122,258.579 119.422 C 258.827 119.721,259.220 119.965,259.453 119.965 C 259.685 119.965,260.157 120.277,260.501 120.657 C 260.845 121.037,261.315 121.348,261.545 121.348 C 261.776 121.348,262.402 121.693,262.938 122.115 C 263.964 122.922,265.327 123.734,267.098 124.594 C 267.683 124.879,268.363 125.354,268.609 125.650 C 268.855 125.946,269.246 126.188,269.479 126.188 C 269.711 126.188,270.183 126.500,270.527 126.880 C 270.871 127.260,271.302 127.571,271.483 127.571 C 272.186 127.571,275.281 129.848,275.713 130.683 C 276.153 131.534,276.106 131.601,274.243 132.765 C 273.184 133.426,271.791 134.317,271.148 134.745 C 270.504 135.173,269.909 135.523,269.824 135.523 C 269.739 135.523,268.647 136.223,267.397 137.079 C 266.147 137.934,265.052 138.634,264.963 138.634 C 264.823 138.634,263.939 139.179,259.464 142.018 C 259.084 142.260,258.333 142.725,257.796 143.052 C 257.259 143.380,256.497 143.920,256.101 144.252 C 255.706 144.585,255.197 144.857,254.970 144.857 C 254.744 144.857,254.277 145.169,253.933 145.549 C 253.588 145.929,253.178 146.240,253.021 146.240 C 252.864 146.240,251.856 146.824,250.781 147.537 C 249.706 148.250,248.584 148.989,248.288 149.179 C 247.992 149.369,246.905 150.069,245.873 150.735 C 244.840 151.400,243.431 152.235,242.741 152.590 C 242.051 152.946,241.409 153.348,241.314 153.485 C 241.219 153.621,240.130 154.313,238.894 155.022 C 237.658 155.730,235.946 156.764,235.091 157.319 C 234.235 157.873,233.224 158.489,232.844 158.688 C 232.104 159.075,230.242 160.342,228.928 161.352 C 226.847 162.953,225.733 163.927,222.585 166.897 C 218.562 170.692,219.126 170.590,216.582 167.977 C 214.466 165.803,207.977 160.415,207.475 160.415 C 207.321 160.415,206.743 160.026,206.190 159.551 C 205.638 159.076,205.063 158.687,204.913 158.687 C 204.762 158.686,204.218 158.398,203.703 158.046 C 200.548 155.889,197.827 154.192,197.521 154.192 C 197.326 154.192,196.824 153.894,196.405 153.530 C 195.985 153.167,195.326 152.659,194.939 152.402 C 194.012 151.787,194.627 150.276,196.044 149.689 C 196.576 149.469,197.280 148.992,197.609 148.629 C 197.937 148.266,198.360 147.969,198.548 147.969 C 198.737 147.969,199.742 147.385,200.782 146.672 C 201.822 145.959,202.927 145.224,203.238 145.037 C 204.573 144.237,208.820 141.531,210.923 140.141 C 212.177 139.312,213.315 138.634,213.452 138.634 C 213.590 138.634,214.197 138.284,214.803 137.856 C 215.408 137.427,216.214 136.891,216.595 136.663 C 217.567 136.082,221.706 133.459,223.439 132.326 C 224.238 131.804,225.371 131.151,225.957 130.877 C 226.542 130.602,227.222 130.135,227.468 129.838 C 227.714 129.542,228.053 129.300,228.222 129.300 C 228.390 129.300,229.888 128.420,231.550 127.345 C 233.212 126.270,235.350 124.895,236.301 124.289 C 237.252 123.684,239.152 122.464,240.525 121.577 C 241.897 120.691,243.157 119.965,243.323 119.965 C 243.490 119.965,243.908 119.654,244.252 119.274 C 244.597 118.894,244.991 118.583,245.128 118.583 C 245.440 118.583,249.289 116.277,249.754 115.812 C 250.307 115.259,252.778 115.414,253.476 116.045 M152.214 141.237 C 153.587 141.907,155.022 142.642,155.402 142.870 C 158.954 144.998,161.831 146.816,162.646 147.446 C 163.017 147.734,163.504 147.969,163.727 147.969 C 163.950 147.969,164.334 148.211,164.580 148.507 C 164.826 148.804,165.506 149.269,166.092 149.541 C 166.965 149.947,169.732 151.648,172.515 153.490 C 174.524 154.820,175.567 155.465,176.318 155.845 C 176.793 156.085,177.674 156.628,178.275 157.051 C 178.876 157.475,180.258 158.366,181.345 159.032 C 183.290 160.223,186.364 162.155,187.381 162.826 C 187.666 163.014,188.490 163.560,189.212 164.039 C 189.933 164.517,190.603 164.909,190.701 164.909 C 190.798 164.909,191.880 165.609,193.104 166.465 C 194.328 167.321,195.432 168.021,195.558 168.021 C 195.683 168.021,196.296 168.410,196.919 168.885 C 197.542 169.360,198.194 169.749,198.368 169.749 C 198.541 169.749,198.964 170.061,199.309 170.441 C 199.653 170.821,200.109 171.132,200.322 171.132 C 200.940 171.132,205.338 174.757,207.640 177.162 C 210.074 179.708,211.183 181.672,212.238 185.307 L 212.990 187.900 212.891 226.941 L 212.792 265.983 211.883 266.226 C 211.178 266.415,210.483 266.174,208.772 265.148 C 207.560 264.421,205.946 263.501,205.186 263.104 C 204.425 262.706,203.181 262.003,202.420 261.541 C 201.659 261.078,200.493 260.379,199.827 259.988 C 198.717 259.334,197.144 258.363,193.950 256.360 C 190.768 254.365,187.487 252.189,186.863 251.660 C 186.482 251.337,185.782 250.958,185.307 250.817 C 184.831 250.676,184.209 250.341,183.924 250.073 C 183.639 249.805,182.627 249.098,181.677 248.503 C 180.129 247.535,175.589 244.617,174.244 243.726 C 173.959 243.537,172.869 242.840,171.824 242.178 C 170.778 241.516,169.689 240.813,169.404 240.617 C 169.118 240.421,168.351 239.914,167.698 239.490 C 167.045 239.067,166.111 238.453,165.623 238.126 C 165.135 237.798,164.181 237.226,163.503 236.854 C 162.825 236.483,162.067 235.934,161.819 235.635 C 161.570 235.335,161.238 235.091,161.079 235.091 C 160.817 235.091,158.658 233.767,157.822 233.093 C 157.632 232.940,156.621 232.246,155.575 231.551 C 150.725 228.328,146.971 222.650,146.159 217.308 C 145.601 213.645,145.404 143.296,145.947 141.919 C 146.886 139.539,148.400 139.374,152.214 141.237 M291.128 140.460 C 292.488 141.505,292.481 141.285,292.482 177.938 C 292.483 217.257,292.525 216.459,290.191 221.469 C 289.739 222.439,289.369 223.326,289.369 223.440 C 289.369 223.632,287.600 226.367,286.787 227.433 C 285.688 228.873,282.667 231.572,280.590 232.969 C 278.351 234.475,277.481 235.024,274.503 236.806 C 273.838 237.204,272.886 237.798,272.388 238.126 C 271.891 238.453,270.335 239.415,268.931 240.263 C 267.527 241.112,265.601 242.359,264.650 243.034 C 263.699 243.710,262.494 244.481,261.971 244.748 C 261.448 245.015,261.020 245.363,261.020 245.521 C 261.020 245.679,260.842 245.808,260.624 245.808 C 260.406 245.808,259.433 246.331,258.463 246.969 C 254.345 249.679,253.628 250.147,253.103 250.471 C 252.799 250.659,251.723 251.359,250.713 252.027 C 249.702 252.695,248.457 253.480,247.947 253.773 C 247.436 254.065,246.341 254.765,245.514 255.329 C 244.686 255.892,243.590 256.590,243.077 256.879 C 242.565 257.169,241.219 258.035,240.087 258.803 C 238.955 259.572,237.796 260.309,237.511 260.443 C 237.226 260.576,236.292 261.147,235.436 261.711 C 234.581 262.276,233.492 262.926,233.016 263.156 C 232.541 263.385,231.919 263.757,231.634 263.982 C 231.348 264.206,230.493 264.587,229.732 264.828 C 228.971 265.070,228.042 265.478,227.667 265.736 C 226.686 266.412,226.127 266.317,225.785 265.417 C 225.409 264.427,225.214 189.340,225.581 186.517 C 226.348 180.605,230.040 176.065,238.804 170.258 C 244.799 166.285,245.812 165.640,249.657 163.345 C 249.968 163.159,251.073 162.424,252.113 161.711 C 253.153 160.998,254.158 160.415,254.347 160.415 C 254.535 160.415,254.968 160.108,255.307 159.732 C 255.647 159.357,256.235 158.951,256.614 158.831 C 256.993 158.711,258.256 157.980,259.421 157.206 C 260.585 156.433,262.083 155.462,262.748 155.048 C 263.414 154.635,264.889 153.690,266.025 152.948 C 267.162 152.206,268.251 151.520,268.445 151.424 C 269.895 150.706,272.794 148.881,273.134 148.470 C 273.363 148.195,273.715 147.969,273.915 147.969 C 274.115 147.969,275.302 147.305,276.552 146.493 C 279.344 144.679,279.881 144.350,281.441 143.503 C 282.119 143.135,282.877 142.589,283.125 142.290 C 283.373 141.991,283.834 141.746,284.149 141.746 C 284.463 141.746,285.077 141.496,285.513 141.191 C 287.123 140.064,290.105 139.675,291.128 140.460 M284.183 151.310 C 283.708 151.585,282.738 152.152,282.029 152.569 C 281.319 152.986,278.895 154.374,276.642 155.654 C 271.453 158.601,271.737 157.904,271.737 167.691 L 271.737 175.627 272.774 175.627 C 273.345 175.627,273.812 175.495,273.812 175.333 C 273.812 175.172,274.395 174.780,275.108 174.462 C 275.821 174.144,277.027 173.503,277.787 173.039 C 279.988 171.696,281.782 170.651,282.759 170.143 C 287.170 167.848,287.295 167.535,287.295 158.702 C 287.295 150.365,287.003 149.673,284.183 151.310 M98.851 154.168 C 96.861 154.556,95.260 156.015,94.607 158.036 C 93.310 162.052,94.472 164.166,99.618 167.156 C 113.660 175.315,115.726 175.636,118.488 170.088 C 120.150 166.751,119.786 164.818,117.121 162.819 C 115.783 161.816,115.974 161.932,110.629 158.859 C 101.964 153.878,101.431 153.666,98.851 154.168 M269.814 195.368 C 269.684 195.578,269.092 195.972,268.497 196.245 C 267.902 196.518,266.716 197.202,265.860 197.765 C 265.004 198.327,263.825 199.013,263.240 199.288 C 262.654 199.562,261.974 200.030,261.728 200.326 C 261.482 200.622,261.122 200.864,260.927 200.864 C 260.732 200.864,259.720 201.448,258.679 202.161 C 256.273 203.808,254.563 204.852,253.214 205.499 C 252.628 205.780,251.948 206.253,251.702 206.549 C 251.456 206.845,251.053 207.087,250.805 207.087 C 250.558 207.087,249.893 207.476,249.328 207.952 C 248.763 208.427,248.201 208.816,248.078 208.816 C 247.955 208.816,247.433 209.107,246.918 209.462 C 244.879 210.868,240.978 213.310,240.770 213.310 C 240.648 213.310,240.087 213.699,239.522 214.175 C 238.957 214.650,238.298 215.039,238.056 215.039 C 237.815 215.039,237.336 215.350,236.992 215.730 C 236.648 216.111,236.172 216.422,235.935 216.422 C 234.355 216.422,234.642 220.385,236.319 221.724 L 237.496 222.662 239.609 221.530 C 243.149 219.633,243.758 219.273,244.390 218.701 C 244.725 218.398,245.142 218.148,245.317 218.144 C 245.492 218.141,246.335 217.672,247.191 217.102 C 249.501 215.564,249.643 215.472,251.438 214.347 C 252.348 213.777,253.218 213.310,253.372 213.310 C 253.526 213.310,253.934 212.999,254.278 212.619 C 254.622 212.239,255.057 211.927,255.244 211.927 C 255.430 211.927,256.646 211.227,257.945 210.372 C 259.243 209.516,260.405 208.816,260.527 208.816 C 260.648 208.816,261.209 208.427,261.774 207.952 C 262.339 207.476,262.999 207.087,263.240 207.087 C 263.481 207.087,263.960 206.776,264.304 206.396 C 264.648 206.016,265.043 205.704,265.180 205.704 C 265.471 205.704,268.175 204.078,271.382 201.975 C 274.585 199.875,275.295 198.108,273.788 195.991 C 273.030 194.927,270.347 194.506,269.814 195.368 M91.789 199.364 C 86.379 200.839,87.337 208.603,93.345 211.963 C 95.447 213.139,98.411 214.852,101.873 216.893 C 103.046 217.585,104.150 218.150,104.326 218.150 C 104.502 218.150,104.928 218.462,105.272 218.842 C 105.616 219.222,106.077 219.533,106.296 219.533 C 106.515 219.533,107.221 219.922,107.865 220.398 C 108.509 220.873,109.310 221.262,109.644 221.262 C 109.978 221.262,110.375 221.479,110.527 221.743 C 110.679 222.008,111.348 222.483,112.014 222.799 C 113.463 223.487,115.104 224.399,116.291 225.177 C 116.768 225.489,117.985 225.842,118.994 225.961 C 127.037 226.904,129.039 217.295,121.555 213.672 C 120.683 213.250,119.880 212.760,119.771 212.584 C 119.662 212.407,119.077 212.037,118.472 211.761 C 117.867 211.486,116.750 210.870,115.990 210.393 C 114.647 209.552,113.630 208.977,110.849 207.490 C 110.113 207.096,109.258 206.563,108.947 206.306 C 108.637 206.049,107.995 205.645,107.519 205.409 C 107.044 205.173,106.033 204.599,105.272 204.134 C 104.512 203.670,103.423 203.069,102.852 202.799 C 102.282 202.529,101.441 201.983,100.984 201.586 C 100.527 201.189,99.915 200.864,99.624 200.864 C 99.332 200.864,98.738 200.530,98.303 200.122 C 97.499 199.366,93.491 198.900,91.789 199.364 M268.971 209.498 C 268.496 209.875,267.985 210.187,267.837 210.191 C 267.596 210.198,264.897 211.876,261.347 214.226 C 260.671 214.673,259.956 215.039,259.758 215.039 C 259.560 215.039,259.117 215.350,258.773 215.730 C 258.429 216.111,258.010 216.422,257.844 216.422 C 257.576 216.422,255.043 217.986,251.321 220.449 C 250.645 220.896,249.978 221.262,249.838 221.262 C 249.698 221.262,249.162 221.550,248.646 221.902 C 247.645 222.587,243.312 225.377,241.314 226.625 C 234.922 230.613,234.265 231.378,235.085 233.863 C 235.686 235.685,239.668 236.027,241.155 234.384 C 241.491 234.012,241.926 233.708,242.120 233.708 C 242.314 233.708,243.573 232.982,244.918 232.095 C 246.263 231.209,247.917 230.120,248.592 229.675 C 249.268 229.231,250.007 228.868,250.235 228.868 C 250.462 228.868,250.648 228.738,250.648 228.580 C 250.648 228.422,251.076 228.083,251.599 227.825 C 252.458 227.403,255.343 225.605,258.618 223.452 C 259.294 223.008,260.009 222.645,260.207 222.645 C 260.405 222.645,260.849 222.334,261.193 221.953 C 261.537 221.573,261.977 221.262,262.172 221.262 C 262.366 221.262,263.548 220.587,264.797 219.761 C 266.047 218.936,267.926 217.735,268.971 217.093 C 270.017 216.451,270.951 215.826,271.046 215.703 C 271.141 215.581,271.701 215.234,272.291 214.932 C 274.301 213.903,275.149 211.704,274.183 210.026 C 273.401 208.668,270.402 208.364,268.971 209.498 M262.748 226.853 C 261.350 227.505,258.349 229.383,257.908 229.882 C 257.813 229.990,257.191 230.350,256.525 230.682 C 255.860 231.014,254.149 232.059,252.723 233.005 C 251.296 233.951,249.808 234.870,249.415 235.048 C 248.761 235.344,246.464 236.786,245.635 237.420 C 245.445 237.566,243.734 238.613,241.832 239.747 C 234.745 243.975,233.897 244.990,235.187 247.695 C 236.194 249.807,240.982 249.155,243.086 246.620 C 243.299 246.364,243.668 246.154,243.907 246.154 C 244.145 246.154,244.522 245.935,244.745 245.667 C 244.967 245.399,245.647 244.925,246.256 244.613 C 246.865 244.300,248.064 243.588,248.920 243.030 C 249.775 242.473,250.864 241.823,251.340 241.586 C 251.815 241.349,253.141 240.530,254.287 239.765 C 256.648 238.189,257.242 237.811,258.946 236.800 C 268.528 231.114,269.888 229.223,266.215 226.691 C 265.127 225.941,264.657 225.963,262.748 226.853 " stroke="none" fill="#fbfafc" fill-rule="evenodd"></path><path id="path1" d="M98.876 0.322 C 98.876 0.500,98.578 0.740,98.213 0.855 C 97.772 0.995,97.474 1.515,97.324 2.401 C 97.170 3.312,96.887 3.791,96.432 3.910 C 95.912 4.045,95.765 4.392,95.765 5.475 C 95.765 6.655,95.647 6.883,94.987 6.977 C 94.559 7.038,94.190 7.282,94.166 7.519 C 94.142 7.757,94.103 8.089,94.080 8.257 C 94.056 8.425,93.725 8.644,93.345 8.743 C 92.795 8.887,92.653 9.215,92.653 10.339 C 92.653 11.497,92.535 11.755,91.999 11.755 C 91.254 11.755,90.925 12.398,90.925 13.857 C 90.925 14.636,90.767 14.866,90.233 14.866 C 89.644 14.866,89.542 15.097,89.542 16.422 C 89.542 17.753,89.441 17.978,88.842 17.978 C 88.413 17.978,88.014 18.313,87.813 18.842 C 87.633 19.317,87.247 19.706,86.958 19.706 C 86.573 19.706,86.430 20.080,86.430 21.089 C 86.430 22.063,86.283 22.472,85.932 22.472 C 85.287 22.472,84.961 23.024,84.716 24.534 C 84.592 25.295,84.323 25.756,84.005 25.756 C 83.650 25.756,83.459 26.202,83.387 27.204 C 83.300 28.392,83.145 28.671,82.522 28.760 C 82.054 28.826,81.723 29.152,81.657 29.610 C 81.599 30.019,81.249 30.432,80.879 30.529 C 80.354 30.666,80.207 31.009,80.207 32.096 C 80.207 33.275,80.089 33.504,79.430 33.597 C 78.783 33.689,78.634 33.956,78.545 35.177 C 78.459 36.365,78.310 36.646,77.768 36.646 C 77.202 36.646,77.096 36.892,77.096 38.202 C 77.096 39.482,76.983 39.758,76.460 39.758 C 76.110 39.758,75.647 40.147,75.430 40.622 C 75.214 41.098,74.800 41.487,74.510 41.487 C 74.118 41.487,73.984 41.879,73.984 43.032 C 73.984 44.181,73.866 44.531,73.521 44.399 C 73.266 44.301,72.859 44.461,72.615 44.755 C 72.371 45.049,72.248 45.290,72.343 45.290 C 72.437 45.290,72.411 45.795,72.284 46.413 C 72.152 47.062,71.842 47.537,71.550 47.537 C 71.273 47.537,70.996 47.887,70.935 48.315 C 70.864 48.815,70.586 49.092,70.157 49.092 C 69.735 49.092,69.474 49.346,69.447 49.784 C 69.423 50.164,69.365 50.631,69.317 50.821 C 69.270 51.011,69.211 51.400,69.188 51.685 C 69.164 51.971,68.833 52.204,68.453 52.204 C 67.865 52.204,67.761 52.434,67.761 53.736 C 67.761 55.061,67.657 55.282,66.984 55.378 C 66.337 55.470,66.188 55.736,66.099 56.958 C 66.013 58.146,65.864 58.427,65.322 58.427 C 64.836 58.427,64.650 58.666,64.650 59.291 C 64.650 59.907,64.463 60.156,63.999 60.156 C 63.335 60.156,62.935 61.027,62.926 62.489 C 62.923 63.035,62.715 63.267,62.230 63.267 C 61.653 63.267,61.538 63.498,61.538 64.659 C 61.538 65.825,61.398 66.103,60.674 66.379 C 59.982 66.642,59.810 66.946,59.810 67.902 C 59.810 68.794,59.634 69.153,59.118 69.317 C 58.738 69.438,58.427 69.819,58.427 70.164 C 58.427 70.510,58.120 70.873,57.745 70.971 C 57.261 71.097,56.998 71.560,56.837 72.567 C 56.665 73.641,56.453 73.984,55.963 73.984 C 55.428 73.984,55.315 74.250,55.315 75.516 C 55.315 76.841,55.211 77.063,54.538 77.158 C 54.038 77.229,53.720 77.547,53.649 78.047 C 53.578 78.547,53.300 78.825,52.871 78.825 C 52.312 78.825,52.204 79.073,52.204 80.356 C 52.204 81.681,52.099 81.903,51.426 81.998 C 50.779 82.090,50.630 82.357,50.542 83.578 C 50.456 84.766,50.307 85.048,49.764 85.048 C 49.199 85.048,49.092 85.293,49.092 86.603 C 49.092 88.032,49.022 88.159,48.228 88.159 C 47.612 88.159,47.364 88.346,47.364 88.810 C 47.364 89.171,47.055 89.542,46.672 89.642 C 46.123 89.786,45.981 90.114,45.981 91.238 C 45.981 92.423,45.868 92.653,45.290 92.653 C 44.909 92.653,44.574 92.848,44.545 93.086 C 44.516 93.323,44.457 93.673,44.412 93.863 C 44.368 94.054,44.314 94.559,44.292 94.987 C 44.265 95.521,44.036 95.765,43.561 95.765 C 42.974 95.765,42.869 95.995,42.869 97.297 C 42.869 98.622,42.765 98.843,42.092 98.939 C 41.592 99.010,41.274 99.327,41.203 99.827 C 41.132 100.327,40.854 100.605,40.425 100.605 C 39.866 100.605,39.758 100.854,39.758 102.137 C 39.758 103.462,39.653 103.683,38.980 103.779 C 38.333 103.871,38.184 104.137,38.096 105.359 C 38.010 106.547,37.861 106.828,37.318 106.828 C 36.753 106.828,36.646 107.074,36.646 108.384 C 36.646 109.813,36.576 109.939,35.782 109.939 C 35.166 109.939,34.918 110.127,34.918 110.591 C 34.918 110.951,34.609 111.322,34.226 111.423 C 33.680 111.566,33.535 111.894,33.535 112.995 C 33.535 114.174,33.417 114.403,32.757 114.496 C 32.114 114.588,31.961 114.855,31.875 116.040 C 31.796 117.119,31.603 117.518,31.097 117.650 C 30.700 117.754,30.424 118.124,30.424 118.550 C 30.424 119.029,30.203 119.274,29.772 119.274 C 29.109 119.274,28.708 120.145,28.700 121.608 C 28.696 122.153,28.489 122.385,28.003 122.385 C 27.416 122.385,27.312 122.616,27.312 123.917 C 27.312 125.242,27.207 125.464,26.534 125.559 C 25.887 125.651,25.738 125.918,25.650 127.139 C 25.564 128.327,25.415 128.608,24.872 128.608 C 24.431 128.608,24.201 128.846,24.201 129.300 C 24.201 129.680,23.973 129.991,23.694 129.991 C 23.065 129.991,22.472 131.052,22.472 132.175 C 22.472 132.731,22.234 133.084,21.780 133.203 C 21.234 133.346,21.089 133.675,21.089 134.775 C 21.089 135.955,20.971 136.183,20.311 136.277 C 19.665 136.369,19.515 136.635,19.427 137.857 C 19.341 139.044,19.192 139.326,18.649 139.326 C 18.163 139.326,17.978 139.565,17.978 140.190 C 17.978 140.971,17.822 141.110,17.040 141.029 C 16.696 140.993,16.302 142.094,16.273 143.175 C 16.257 143.782,16.019 144.145,15.557 144.266 C 15.008 144.410,14.866 144.738,14.866 145.862 C 14.866 147.141,14.783 147.277,14.002 147.277 C 13.208 147.277,13.137 147.404,13.137 148.833 C 13.137 150.158,13.035 150.389,12.446 150.389 C 11.985 150.389,11.755 150.619,11.755 151.080 C 11.755 151.461,11.527 151.772,11.248 151.772 C 10.611 151.772,10.026 152.837,10.026 153.996 C 10.026 154.653,9.846 154.883,9.334 154.883 C 8.745 154.883,8.643 155.114,8.643 156.439 C 8.643 157.759,8.539 157.995,7.958 157.995 C 7.523 157.995,7.197 158.298,7.065 158.826 C 6.950 159.284,6.558 159.736,6.194 159.831 C 5.680 159.966,5.532 160.316,5.532 161.396 C 5.532 162.575,5.413 162.804,4.754 162.897 C 3.983 163.007,3.920 163.152,3.843 164.996 C 3.813 165.703,3.626 165.946,3.111 165.946 C 2.522 165.946,2.420 166.177,2.420 167.502 C 2.420 168.931,2.350 169.058,1.556 169.058 C 0.922 169.058,0.691 169.242,0.691 169.749 C 0.691 170.130,0.536 170.441,0.346 170.441 C 0.148 170.441,0.000 171.478,0.000 172.861 C 0.000 174.192,0.146 175.281,0.325 175.281 C 0.504 175.281,0.698 175.864,0.757 176.577 C 0.836 177.530,1.070 177.964,1.642 178.215 C 2.070 178.403,2.420 178.831,2.420 179.166 C 2.420 179.545,2.682 179.775,3.111 179.775 C 3.701 179.775,3.803 180.006,3.803 181.331 C 3.803 182.760,3.873 182.887,4.667 182.887 C 5.461 182.887,5.532 183.014,5.532 184.443 C 5.532 185.768,5.634 185.998,6.223 185.998 C 6.756 185.998,6.914 186.229,6.914 187.007 C 6.914 188.466,7.243 189.110,7.989 189.110 C 8.456 189.110,8.643 189.357,8.643 189.974 C 8.643 190.599,8.829 190.838,9.315 190.838 C 9.858 190.838,10.007 191.120,10.092 192.308 C 10.181 193.529,10.330 193.796,10.977 193.887 C 11.636 193.981,11.755 194.210,11.755 195.389 C 11.755 196.490,11.899 196.818,12.446 196.961 C 12.900 197.080,13.137 197.433,13.137 197.989 C 13.137 199.112,13.731 200.173,14.360 200.173 C 14.638 200.173,14.866 200.484,14.866 200.864 C 14.866 201.318,15.097 201.556,15.538 201.556 C 16.081 201.556,16.230 201.837,16.315 203.025 C 16.404 204.247,16.553 204.513,17.200 204.605 C 17.873 204.700,17.978 204.922,17.978 206.247 C 17.978 207.548,18.082 207.779,18.669 207.779 C 19.154 207.779,19.362 208.011,19.365 208.557 C 19.374 210.019,19.775 210.890,20.438 210.890 C 20.902 210.890,21.089 211.139,21.089 211.755 C 21.089 212.380,21.275 212.619,21.761 212.619 C 22.304 212.619,22.453 212.900,22.538 214.088 C 22.627 215.310,22.776 215.576,23.423 215.668 C 24.076 215.761,24.201 215.992,24.201 217.114 C 24.201 218.146,24.358 218.499,24.892 218.669 C 25.272 218.790,25.583 219.189,25.583 219.557 C 25.583 220.039,25.824 220.225,26.448 220.225 C 27.242 220.225,27.312 220.351,27.312 221.780 C 27.312 223.106,27.414 223.336,28.003 223.336 C 28.532 223.336,28.705 223.581,28.738 224.373 C 28.814 226.186,28.853 226.273,29.646 226.385 C 30.305 226.479,30.424 226.707,30.424 227.887 C 30.424 228.974,30.570 229.317,31.096 229.454 C 31.465 229.551,31.815 229.964,31.873 230.372 C 31.940 230.837,32.270 231.156,32.757 231.225 C 33.430 231.321,33.535 231.542,33.535 232.868 C 33.535 234.169,33.639 234.399,34.226 234.399 C 34.701 234.399,34.930 234.643,34.958 235.177 C 34.980 235.605,35.034 236.111,35.078 236.301 C 35.122 236.491,35.182 236.841,35.211 237.079 C 35.240 237.316,35.575 237.511,35.955 237.511 C 36.534 237.511,36.646 237.741,36.646 238.926 C 36.646 240.051,36.789 240.378,37.338 240.522 C 37.721 240.622,38.029 240.994,38.029 241.354 C 38.029 241.818,38.278 242.005,38.894 242.005 C 39.688 242.005,39.758 242.132,39.758 243.561 C 39.758 244.871,39.864 245.117,40.430 245.117 C 40.972 245.117,41.121 245.398,41.207 246.586 C 41.296 247.807,41.445 248.074,42.092 248.166 C 42.765 248.261,42.869 248.483,42.869 249.808 C 42.869 251.080,42.980 251.340,43.523 251.340 C 43.933 251.340,44.259 251.663,44.394 252.204 C 44.534 252.762,44.854 253.068,45.296 253.068 C 45.877 253.068,45.981 253.304,45.981 254.624 C 45.981 255.949,46.083 256.180,46.672 256.180 C 47.184 256.180,47.364 256.410,47.364 257.067 C 47.364 258.226,47.949 259.291,48.586 259.291 C 48.896 259.291,49.092 259.627,49.092 260.156 C 49.092 260.789,49.277 261.020,49.784 261.020 C 50.317 261.020,50.475 261.250,50.475 262.029 C 50.475 263.487,50.804 264.131,51.550 264.131 C 52.081 264.131,52.204 264.387,52.204 265.491 C 52.204 266.517,52.363 266.901,52.853 267.056 C 53.285 267.194,53.575 267.721,53.721 268.636 C 53.892 269.702,54.094 270.009,54.628 270.009 C 55.131 270.009,55.315 270.241,55.315 270.873 C 55.315 271.507,55.500 271.737,56.007 271.737 C 56.535 271.737,56.709 271.982,56.742 272.774 C 56.817 274.587,56.856 274.674,57.649 274.786 C 58.322 274.882,58.427 275.103,58.427 276.429 C 58.427 277.730,58.531 277.960,59.118 277.960 C 59.499 277.960,59.822 278.155,59.836 278.392 C 59.939 280.071,60.377 281.072,61.009 281.072 C 61.316 281.072,61.538 281.376,61.538 281.796 C 61.538 282.229,61.816 282.592,62.230 282.700 C 62.714 282.827,62.921 283.172,62.921 283.850 C 62.921 285.269,63.256 285.912,63.996 285.912 C 64.527 285.912,64.650 286.168,64.650 287.271 C 64.650 288.308,64.807 288.681,65.313 288.842 C 65.758 288.983,66.053 289.504,66.208 290.421 C 66.383 291.457,66.600 291.789,67.100 291.789 C 67.575 291.789,67.761 292.033,67.761 292.653 C 67.761 293.279,67.947 293.518,68.433 293.518 C 68.976 293.518,69.125 293.799,69.211 294.987 C 69.299 296.208,69.448 296.475,70.095 296.567 C 70.755 296.660,70.873 296.889,70.873 298.069 C 70.873 299.156,71.020 299.498,71.545 299.635 C 71.915 299.732,72.265 300.145,72.323 300.554 C 72.389 301.019,72.720 301.338,73.207 301.407 C 73.866 301.501,73.984 301.729,73.984 302.909 C 73.984 304.009,74.129 304.338,74.676 304.481 C 75.161 304.607,75.367 304.952,75.367 305.634 C 75.367 306.580,76.128 307.692,76.775 307.692 C 76.951 307.692,77.096 308.315,77.096 309.075 C 77.096 310.211,77.215 310.458,77.763 310.458 C 78.192 310.458,78.470 310.736,78.541 311.236 C 78.612 311.736,78.930 312.053,79.430 312.124 C 80.103 312.220,80.207 312.441,80.207 313.766 C 80.207 315.068,80.311 315.298,80.899 315.298 C 81.432 315.298,81.590 315.529,81.590 316.307 C 81.590 317.766,81.919 318.410,82.664 318.410 C 83.200 318.410,83.319 318.667,83.319 319.825 C 83.319 320.949,83.461 321.277,84.010 321.421 C 84.391 321.520,84.721 321.739,84.745 321.907 C 84.769 322.075,84.808 322.407,84.831 322.645 C 84.855 322.882,85.225 323.127,85.653 323.187 C 86.312 323.281,86.430 323.510,86.430 324.689 C 86.430 325.790,86.575 326.118,87.122 326.261 C 87.732 326.421,87.993 326.988,87.850 327.845 C 87.758 328.395,88.543 329.473,89.036 329.473 C 89.314 329.473,89.542 329.784,89.542 330.164 C 89.542 330.618,89.772 330.856,90.213 330.856 C 90.756 330.856,90.905 331.137,90.991 332.325 C 91.080 333.546,91.229 333.813,91.876 333.905 C 92.549 334.000,92.653 334.222,92.653 335.547 C 92.653 336.817,92.765 337.079,93.305 337.079 C 93.968 337.079,94.368 337.950,94.377 339.412 C 94.381 339.958,94.588 340.190,95.073 340.190 C 95.581 340.190,95.765 340.421,95.765 341.054 C 95.765 341.688,95.949 341.919,96.456 341.919 C 96.990 341.919,97.148 342.149,97.148 342.928 C 97.148 344.386,97.477 345.030,98.222 345.030 C 98.582 345.030,98.876 345.186,98.876 345.376 C 98.876 345.606,132.815 345.722,200.000 345.722 C 262.146 345.722,301.124 345.598,301.124 345.400 C 301.124 345.223,301.474 345.029,301.901 344.968 C 302.388 344.899,302.719 344.580,302.785 344.115 C 302.843 343.706,303.193 343.293,303.563 343.196 C 304.091 343.058,304.235 342.716,304.235 341.605 C 304.235 340.447,304.354 340.190,304.890 340.190 C 305.635 340.190,305.964 339.546,305.964 338.088 C 305.964 337.309,306.122 337.079,306.655 337.079 C 307.244 337.079,307.347 336.848,307.347 335.523 C 307.347 334.094,307.417 333.967,308.211 333.967 C 308.858 333.967,309.075 333.785,309.075 333.243 C 309.075 332.810,309.353 332.447,309.767 332.339 C 310.308 332.197,310.458 331.867,310.458 330.815 C 310.458 329.729,310.583 329.473,311.113 329.473 C 311.858 329.473,312.187 328.829,312.187 327.370 C 312.187 326.592,312.345 326.361,312.878 326.361 C 313.385 326.361,313.570 326.131,313.570 325.497 C 313.570 324.872,313.755 324.633,314.240 324.633 C 314.769 324.633,314.959 324.306,315.143 323.077 C 315.325 321.865,315.521 321.521,316.029 321.521 C 316.570 321.521,316.681 321.260,316.681 319.989 C 316.681 318.664,316.786 318.443,317.459 318.347 C 318.106 318.255,318.255 317.989,318.343 316.768 C 318.429 315.580,318.578 315.298,319.121 315.298 C 319.607 315.298,319.793 315.059,319.793 314.434 C 319.793 313.813,319.979 313.570,320.454 313.570 C 320.954 313.570,321.171 313.238,321.346 312.201 C 321.501 311.285,321.796 310.763,322.241 310.622 C 322.744 310.462,322.904 310.089,322.904 309.076 C 322.904 307.954,323.029 307.723,323.682 307.630 C 324.329 307.538,324.478 307.272,324.566 306.050 C 324.652 304.862,324.801 304.581,325.344 304.581 C 325.830 304.581,326.016 304.342,326.016 303.717 C 326.016 303.092,326.201 302.852,326.686 302.852 C 327.215 302.852,327.405 302.525,327.589 301.296 C 327.771 300.085,327.967 299.741,328.475 299.741 C 329.016 299.741,329.127 299.479,329.127 298.209 C 329.127 296.884,329.232 296.662,329.905 296.567 C 330.552 296.475,330.701 296.208,330.789 294.987 C 330.875 293.799,331.024 293.518,331.567 293.518 C 332.053 293.518,332.239 293.279,332.239 292.653 C 332.239 292.021,332.423 291.789,332.926 291.789 C 333.458 291.789,333.662 291.483,333.830 290.436 C 333.977 289.515,334.254 289.029,334.698 288.913 C 335.201 288.781,335.350 288.424,335.350 287.351 C 335.350 286.172,335.468 285.943,336.128 285.849 C 336.615 285.780,336.945 285.461,337.012 284.996 C 337.070 284.588,337.420 284.175,337.790 284.078 C 338.317 283.940,338.462 283.598,338.462 282.487 C 338.462 281.329,338.580 281.072,339.116 281.072 C 339.861 281.072,340.190 280.428,340.190 278.969 C 340.190 278.191,340.348 277.960,340.882 277.960 C 341.469 277.960,341.573 277.730,341.573 276.429 C 341.573 275.103,341.678 274.882,342.351 274.786 C 342.851 274.715,343.168 274.398,343.239 273.898 C 343.310 273.398,343.588 273.120,344.017 273.120 C 344.558 273.120,344.685 272.874,344.685 271.819 C 344.685 270.802,344.854 270.444,345.462 270.177 C 346.028 269.929,346.269 269.492,346.345 268.575 C 346.421 267.669,346.640 267.264,347.123 267.138 C 347.649 267.000,347.796 266.658,347.796 265.571 C 347.796 264.391,347.914 264.163,348.574 264.069 C 349.061 264.000,349.391 263.681,349.458 263.216 C 349.516 262.807,349.866 262.394,350.236 262.298 C 350.761 262.160,350.908 261.818,350.908 260.731 C 350.908 259.551,351.026 259.323,351.685 259.229 C 352.332 259.137,352.481 258.871,352.570 257.649 C 352.656 256.461,352.805 256.180,353.347 256.180 C 353.913 256.180,354.019 255.934,354.019 254.624 C 354.019 253.195,354.089 253.068,354.883 253.068 C 355.575 253.068,355.748 252.895,355.748 252.204 C 355.748 251.570,355.932 251.340,356.439 251.340 C 357.028 251.340,357.131 251.109,357.131 249.784 C 357.131 248.355,357.201 248.228,357.995 248.228 C 358.789 248.228,358.859 248.101,358.859 246.672 C 358.859 245.347,358.962 245.117,359.551 245.117 C 360.012 245.117,360.242 244.886,360.242 244.425 C 360.242 244.045,360.470 243.734,360.748 243.734 C 361.377 243.734,361.971 242.673,361.971 241.550 C 361.971 240.994,362.208 240.641,362.662 240.522 C 363.209 240.379,363.354 240.051,363.354 238.950 C 363.354 237.771,363.472 237.542,364.131 237.448 C 364.778 237.357,364.927 237.090,365.016 235.869 C 365.102 234.681,365.251 234.399,365.793 234.399 C 366.279 234.399,366.465 234.160,366.465 233.535 C 366.465 232.919,366.652 232.671,367.116 232.671 C 367.779 232.671,368.180 231.799,368.189 230.337 C 368.192 229.791,368.400 229.559,368.885 229.559 C 369.474 229.559,369.576 229.329,369.576 228.003 C 369.576 226.574,369.647 226.448,370.441 226.448 C 371.235 226.448,371.305 226.321,371.305 224.892 C 371.305 223.567,371.408 223.336,371.997 223.336 C 372.458 223.336,372.688 223.106,372.688 222.645 C 372.688 222.264,372.916 221.953,373.194 221.953 C 373.831 221.953,374.417 220.888,374.417 219.729 C 374.417 219.072,374.596 218.842,375.108 218.842 C 375.695 218.842,375.799 218.611,375.799 217.310 C 375.799 215.985,375.904 215.764,376.577 215.668 C 377.064 215.599,377.395 215.280,377.461 214.815 C 377.519 214.406,377.869 213.993,378.239 213.896 C 378.764 213.759,378.911 213.417,378.911 212.330 C 378.911 211.150,379.029 210.922,379.689 210.828 C 380.335 210.736,380.485 210.469,380.573 209.248 C 380.659 208.060,380.808 207.779,381.351 207.779 C 381.916 207.779,382.022 207.533,382.022 206.223 C 382.022 204.794,382.093 204.667,382.887 204.667 C 383.511 204.667,383.751 204.481,383.751 203.999 C 383.751 203.632,384.062 203.232,384.443 203.111 C 384.980 202.941,385.134 202.588,385.134 201.532 C 385.134 200.429,385.257 200.173,385.788 200.173 C 386.534 200.173,386.863 199.529,386.863 198.070 C 386.863 197.292,387.021 197.061,387.554 197.061 C 388.141 197.061,388.245 196.831,388.245 195.530 C 388.245 194.204,388.350 193.983,389.023 193.887 C 389.510 193.818,389.841 193.499,389.907 193.034 C 389.965 192.626,390.315 192.213,390.685 192.116 C 391.210 191.979,391.357 191.636,391.357 190.549 C 391.357 189.370,391.475 189.141,392.135 189.047 C 392.781 188.956,392.931 188.689,393.019 187.468 C 393.105 186.280,393.254 185.998,393.797 185.998 C 394.362 185.998,394.468 185.752,394.468 184.443 C 394.468 183.014,394.539 182.887,395.333 182.887 C 395.957 182.887,396.197 182.701,396.197 182.219 C 396.197 181.851,396.508 181.452,396.889 181.331 C 397.423 181.161,397.580 180.808,397.580 179.776 C 397.580 178.654,397.704 178.423,398.358 178.330 C 399.004 178.238,399.154 177.972,399.242 176.750 C 399.300 175.942,399.495 175.281,399.674 175.281 C 399.853 175.281,400.000 174.192,400.000 172.861 C 400.000 171.478,399.852 170.441,399.654 170.441 C 399.464 170.441,399.309 169.985,399.309 169.428 C 399.309 168.448,398.558 167.329,397.901 167.329 C 397.724 167.329,397.580 167.018,397.580 166.638 C 397.580 166.184,397.349 165.946,396.908 165.946 C 396.365 165.946,396.216 165.665,396.131 164.477 C 396.042 163.256,395.893 162.989,395.246 162.897 C 394.573 162.802,394.468 162.580,394.468 161.255 C 394.468 159.954,394.364 159.723,393.777 159.723 C 393.244 159.723,393.086 159.493,393.086 158.715 C 393.086 157.256,392.757 156.612,392.011 156.612 C 391.544 156.612,391.357 156.365,391.357 155.748 C 391.357 155.122,391.171 154.883,390.685 154.883 C 390.142 154.883,389.993 154.602,389.908 153.414 C 389.819 152.193,389.670 151.926,389.023 151.834 C 388.370 151.741,388.245 151.510,388.245 150.388 C 388.245 149.356,388.088 149.003,387.554 148.833 C 387.174 148.712,386.863 148.313,386.863 147.946 C 386.863 147.463,386.622 147.277,385.998 147.277 C 385.204 147.277,385.134 147.151,385.134 145.722 C 385.134 144.412,385.028 144.166,384.462 144.166 C 383.919 144.166,383.770 143.884,383.685 142.697 C 383.596 141.475,383.447 141.209,382.800 141.117 C 382.141 141.023,382.022 140.795,382.022 139.615 C 382.022 138.528,381.876 138.186,381.350 138.048 C 380.981 137.952,380.631 137.538,380.573 137.130 C 380.506 136.665,380.176 136.346,379.689 136.277 C 379.016 136.181,378.911 135.960,378.911 134.635 C 378.911 133.333,378.807 133.103,378.220 133.103 C 377.686 133.103,377.528 132.872,377.528 132.094 C 377.528 130.635,377.199 129.991,376.454 129.991 C 375.923 129.991,375.799 129.735,375.799 128.632 C 375.799 127.576,375.645 127.223,375.108 127.053 C 374.728 126.932,374.417 126.533,374.417 126.165 C 374.417 125.683,374.176 125.497,373.552 125.497 C 372.758 125.497,372.688 125.370,372.688 123.941 C 372.688 122.631,372.582 122.385,372.016 122.385 C 371.474 122.385,371.324 122.104,371.239 120.916 C 371.150 119.695,371.001 119.428,370.354 119.336 C 369.791 119.256,369.576 118.994,369.576 118.386 C 369.576 117.784,369.386 117.545,368.905 117.545 C 368.362 117.545,368.213 117.264,368.127 116.076 C 368.039 114.855,367.890 114.588,367.243 114.496 C 366.570 114.401,366.465 114.179,366.465 112.854 C 366.465 111.553,366.361 111.322,365.774 111.322 C 365.262 111.322,365.082 111.092,365.082 110.435 C 365.082 109.276,364.497 108.211,363.860 108.211 C 363.581 108.211,363.354 107.900,363.354 107.519 C 363.354 107.058,363.123 106.828,362.662 106.828 C 362.073 106.828,361.971 106.598,361.971 105.272 C 361.971 103.843,361.900 103.717,361.106 103.717 C 360.312 103.717,360.242 103.590,360.242 102.161 C 360.242 100.835,360.140 100.605,359.551 100.605 C 359.065 100.605,358.858 100.373,358.854 99.827 C 358.846 98.365,358.445 97.494,357.782 97.494 C 357.318 97.494,357.131 97.245,357.131 96.629 C 357.131 96.004,356.945 95.765,356.459 95.765 C 355.916 95.765,355.767 95.483,355.681 94.296 C 355.593 93.074,355.444 92.808,354.797 92.716 C 354.137 92.622,354.019 92.394,354.019 91.214 C 354.019 90.114,353.875 89.785,353.328 89.642 C 352.874 89.523,352.636 89.171,352.636 88.615 C 352.636 87.491,352.043 86.430,351.414 86.430 C 351.135 86.430,350.908 86.119,350.908 85.739 C 350.908 85.285,350.677 85.048,350.236 85.048 C 349.693 85.048,349.544 84.766,349.458 83.578 C 349.370 82.357,349.221 82.090,348.574 81.998 C 347.901 81.903,347.796 81.681,347.796 80.356 C 347.796 79.073,347.688 78.825,347.129 78.825 C 346.700 78.825,346.422 78.547,346.351 78.047 C 346.280 77.547,345.962 77.229,345.462 77.158 C 344.789 77.063,344.685 76.841,344.685 75.516 C 344.685 74.215,344.580 73.984,343.993 73.984 C 343.417 73.984,343.302 73.754,343.302 72.608 C 343.302 71.428,343.178 71.201,342.437 71.015 C 341.696 70.829,341.573 70.602,341.573 69.420 C 341.573 68.333,341.427 68.004,340.882 67.862 C 340.501 67.762,340.190 67.405,340.190 67.067 C 340.190 66.701,339.842 66.366,339.326 66.237 C 338.590 66.052,338.462 65.820,338.462 64.684 C 338.462 63.654,338.308 63.308,337.793 63.173 C 337.306 63.045,337.095 62.637,337.015 61.663 C 336.927 60.583,336.758 60.307,336.128 60.218 C 335.455 60.122,335.350 59.901,335.350 58.576 C 335.350 57.293,335.242 57.044,334.683 57.044 C 334.254 57.044,333.976 56.766,333.905 56.266 C 333.834 55.766,333.516 55.449,333.016 55.378 C 332.343 55.282,332.239 55.061,332.239 53.736 C 332.239 52.434,332.135 52.204,331.547 52.204 C 331.014 52.204,330.856 51.973,330.856 51.195 C 330.856 49.736,330.527 49.092,329.782 49.092 C 329.246 49.092,329.127 48.835,329.127 47.677 C 329.127 46.566,328.983 46.224,328.455 46.086 C 328.085 45.990,327.735 45.576,327.677 45.168 C 327.611 44.703,327.280 44.384,326.793 44.315 C 326.134 44.221,326.016 43.993,326.016 42.813 C 326.016 41.730,325.868 41.383,325.349 41.248 C 324.892 41.128,324.610 40.648,324.454 39.724 C 324.282 38.706,324.064 38.375,323.565 38.375 C 323.090 38.375,322.904 38.131,322.904 37.511 C 322.904 36.886,322.718 36.646,322.232 36.646 C 321.690 36.646,321.541 36.365,321.455 35.177 C 321.366 33.956,321.217 33.689,320.570 33.597 C 319.897 33.502,319.793 33.280,319.793 31.955 C 319.793 30.685,319.681 30.424,319.140 30.424 C 318.632 30.424,318.437 30.079,318.255 28.868 C 318.071 27.639,317.881 27.312,317.351 27.312 C 316.902 27.312,316.681 27.074,316.681 26.588 C 316.681 26.162,316.405 25.792,316.008 25.688 C 315.501 25.556,315.309 25.157,315.230 24.079 C 315.143 22.893,314.990 22.626,314.347 22.534 C 313.694 22.442,313.570 22.210,313.570 21.088 C 313.570 20.075,313.409 19.702,312.906 19.542 C 312.466 19.402,312.167 18.883,312.017 17.997 C 311.863 17.086,311.580 16.607,311.125 16.488 C 310.734 16.386,310.458 16.014,310.458 15.590 C 310.458 15.104,310.238 14.866,309.787 14.866 C 309.244 14.866,309.095 14.585,309.009 13.397 C 308.920 12.175,308.771 11.909,308.124 11.817 C 307.451 11.721,307.347 11.500,307.347 10.175 C 307.347 8.904,307.235 8.643,306.694 8.643 C 306.186 8.643,305.991 8.299,305.809 7.087 C 305.625 5.859,305.435 5.532,304.905 5.532 C 304.421 5.532,304.235 5.292,304.235 4.667 C 304.235 4.033,304.051 3.803,303.544 3.803 C 303.010 3.803,302.852 3.572,302.852 2.794 C 302.852 1.335,302.523 0.691,301.778 0.691 C 301.418 0.691,301.124 0.536,301.124 0.346 C 301.124 0.116,267.185 0.000,200.000 0.000 C 137.686 0.000,98.876 0.124,98.876 0.322 M164.718 50.791 C 164.825 50.965,165.545 51.213,166.318 51.344 C 167.091 51.475,167.804 51.793,167.904 52.052 C 168.003 52.311,168.420 52.627,168.831 52.755 C 169.241 52.882,169.965 53.256,170.441 53.585 C 170.916 53.915,172.394 54.768,173.725 55.481 C 175.056 56.194,176.223 56.876,176.318 56.997 C 176.413 57.118,177.035 57.492,177.701 57.829 C 178.366 58.166,179.533 58.814,180.294 59.269 C 181.054 59.725,182.299 60.425,183.060 60.826 C 183.820 61.226,184.754 61.747,185.134 61.983 C 185.514 62.218,186.992 63.089,188.418 63.919 C 195.185 67.853,196.461 69.939,194.708 74.197 C 192.442 79.705,188.940 79.218,176.394 71.653 C 175.687 71.227,174.564 70.626,173.898 70.318 C 173.232 70.010,172.610 69.648,172.515 69.513 C 172.338 69.261,168.760 67.199,164.538 64.915 C 157.467 61.090,155.647 57.536,158.578 53.274 C 159.947 51.283,164.007 49.641,164.718 50.791 M146.163 80.640 C 148.684 82.018,156.072 86.208,157.440 87.035 C 163.126 90.475,162.223 97.224,155.790 99.364 C 155.085 99.599,151.971 98.447,149.137 96.903 C 144.904 94.597,141.886 92.831,141.462 92.413 C 141.211 92.165,140.804 91.962,140.559 91.962 C 138.886 91.962,135.913 87.972,135.884 85.690 C 135.819 80.453,141.086 77.864,146.163 80.640 M225.407 84.821 C 225.976 85.105,226.948 85.448,227.568 85.584 C 228.188 85.720,229.521 86.316,230.530 86.909 C 231.539 87.501,232.784 88.201,233.296 88.463 C 233.808 88.725,234.538 89.207,234.918 89.534 C 235.298 89.861,236.543 90.651,237.684 91.290 C 238.825 91.928,239.914 92.577,240.104 92.731 C 240.934 93.405,243.586 95.061,243.843 95.067 C 243.999 95.071,244.636 95.462,245.259 95.938 C 245.882 96.413,246.521 96.802,246.678 96.802 C 246.835 96.802,247.249 97.061,247.598 97.376 C 248.267 97.981,248.673 98.239,250.884 99.456 C 251.635 99.870,252.453 100.453,252.702 100.753 C 252.950 101.052,253.328 101.297,253.543 101.299 C 253.757 101.300,254.944 101.999,256.180 102.852 C 257.416 103.706,258.602 104.405,258.817 104.406 C 259.031 104.407,259.410 104.653,259.658 104.952 C 259.906 105.251,260.724 105.834,261.476 106.248 C 263.514 107.371,264.249 107.801,264.823 108.207 C 265.108 108.408,265.876 108.919,266.529 109.343 C 267.182 109.766,268.115 110.380,268.603 110.708 C 269.091 111.035,270.112 111.639,270.873 112.051 C 271.634 112.462,272.334 112.894,272.429 113.012 C 272.733 113.389,276.266 115.471,276.600 115.471 C 276.778 115.471,276.923 115.616,276.923 115.793 C 276.923 115.969,278.051 116.753,279.430 117.534 C 280.808 118.315,283.103 119.724,284.529 120.666 C 285.955 121.608,287.609 122.652,288.204 122.987 C 288.798 123.322,290.163 124.179,291.235 124.892 C 292.308 125.605,293.314 126.188,293.471 126.188 C 293.628 126.188,294.038 126.500,294.382 126.880 C 294.726 127.260,295.205 127.571,295.446 127.571 C 295.687 127.571,296.347 127.960,296.912 128.436 C 297.477 128.911,298.016 129.300,298.111 129.300 C 298.494 129.300,301.814 132.847,302.561 134.054 C 305.304 138.491,305.315 138.687,305.189 180.640 C 305.090 213.691,305.023 217.427,304.510 218.727 C 304.197 219.519,303.832 220.919,303.699 221.838 C 303.336 224.355,300.052 231.979,299.331 231.979 C 299.176 231.979,299.049 232.205,299.049 232.480 C 299.049 233.763,293.601 239.542,289.906 242.178 C 289.373 242.558,288.528 243.198,288.029 243.600 C 287.530 244.002,286.792 244.434,286.390 244.560 C 285.987 244.686,285.379 245.096,285.040 245.471 C 284.700 245.847,284.284 246.154,284.116 246.154 C 283.947 246.154,283.388 246.441,282.873 246.791 C 282.358 247.142,281.314 247.816,280.553 248.290 C 279.793 248.764,278.042 249.878,276.664 250.764 C 275.285 251.651,273.029 253.102,271.651 253.989 C 270.272 254.876,268.600 255.942,267.934 256.357 C 267.269 256.772,265.811 257.719,264.694 258.461 C 261.484 260.594,260.904 260.966,259.957 261.506 C 259.226 261.922,256.759 263.524,253.760 265.530 C 253.475 265.720,252.697 266.215,252.031 266.629 C 248.360 268.914,247.082 269.663,246.857 269.663 C 246.719 269.663,246.325 269.974,245.981 270.354 C 245.637 270.735,245.157 271.046,244.915 271.046 C 244.673 271.046,244.261 271.259,244.001 271.520 C 243.740 271.780,243.057 272.237,242.482 272.534 C 241.907 272.831,241.234 273.318,240.987 273.616 C 240.740 273.914,240.257 274.157,239.913 274.157 C 239.570 274.157,239.054 274.392,238.767 274.679 C 238.480 274.966,237.575 275.508,236.755 275.885 C 235.935 276.261,235.030 276.712,234.745 276.886 C 233.808 277.461,230.002 278.997,229.516 278.998 C 229.255 278.998,228.245 279.300,227.273 279.670 C 223.765 281.003,213.205 280.936,210.094 279.561 C 209.486 279.292,208.250 278.880,207.347 278.644 C 206.443 278.409,205.704 278.099,205.704 277.956 C 205.704 277.813,205.014 277.523,204.169 277.310 C 203.325 277.097,202.534 276.761,202.411 276.563 C 202.289 276.365,201.579 275.959,200.835 275.661 C 200.090 275.363,199.481 274.991,199.481 274.835 C 199.481 274.678,199.137 274.440,198.715 274.306 C 198.293 274.173,196.428 273.073,194.569 271.863 C 192.710 270.653,191.052 269.663,190.883 269.663 C 190.715 269.663,190.374 269.418,190.126 269.119 C 189.878 268.820,189.120 268.274,188.441 267.905 C 187.763 267.537,186.903 267.043,186.531 266.807 C 184.219 265.344,182.312 264.087,181.951 263.787 C 181.721 263.596,181.452 263.440,181.352 263.440 C 181.253 263.440,180.293 262.857,179.220 262.143 C 178.147 261.430,177.010 260.691,176.694 260.501 C 176.378 260.311,175.192 259.536,174.058 258.778 C 172.924 258.020,171.579 257.164,171.068 256.876 C 170.557 256.588,169.235 255.743,168.129 254.998 C 167.024 254.253,164.952 252.894,163.526 251.979 C 162.100 251.064,160.768 250.177,160.566 250.010 C 160.364 249.842,159.819 249.505,159.356 249.260 C 158.893 249.016,158.436 248.706,158.341 248.570 C 158.245 248.435,157.638 248.053,156.990 247.721 C 156.342 247.389,155.642 246.972,155.434 246.794 C 155.226 246.616,154.201 245.933,153.155 245.278 C 152.109 244.622,151.020 243.924,150.735 243.728 C 150.449 243.531,149.808 243.102,149.309 242.774 C 147.063 241.299,146.297 240.702,144.562 239.074 C 141.788 236.472,136.909 230.051,136.904 228.996 C 136.904 228.830,136.515 227.930,136.040 226.994 C 135.565 226.059,135.177 225.079,135.177 224.816 C 135.177 224.554,134.926 223.854,134.619 223.260 C 133.485 221.067,133.348 216.787,133.208 179.257 C 133.061 139.841,133.134 137.673,134.656 135.869 C 134.897 135.583,135.335 134.874,135.629 134.291 C 136.533 132.506,139.228 129.772,141.634 128.201 C 143.989 126.663,144.189 126.538,146.240 125.307 C 146.906 124.907,148.403 123.948,149.568 123.174 C 150.733 122.401,151.996 121.670,152.375 121.549 C 152.754 121.429,153.342 121.023,153.681 120.648 C 154.021 120.273,154.484 119.965,154.710 119.965 C 154.937 119.965,155.403 119.654,155.748 119.274 C 156.092 118.894,156.505 118.583,156.665 118.583 C 156.826 118.583,159.719 116.830,163.094 114.688 C 166.469 112.546,169.659 110.604,170.182 110.374 C 170.704 110.143,171.132 109.814,171.132 109.643 C 171.132 109.472,171.599 109.139,172.169 108.902 C 172.740 108.666,173.207 108.351,173.207 108.203 C 173.207 108.054,173.634 107.761,174.157 107.551 C 174.680 107.340,175.808 106.703,176.664 106.135 C 177.519 105.566,178.686 104.861,179.257 104.567 C 180.250 104.055,181.953 102.921,183.389 101.816 C 183.761 101.530,184.205 101.296,184.377 101.296 C 184.548 101.296,185.151 100.908,185.716 100.432 C 186.281 99.957,186.940 99.568,187.181 99.568 C 187.422 99.568,187.901 99.257,188.245 98.876 C 188.590 98.496,189.006 98.185,189.170 98.185 C 189.334 98.185,190.982 97.195,192.833 95.985 C 194.683 94.776,196.586 93.586,197.061 93.341 C 197.537 93.096,198.003 92.789,198.099 92.658 C 198.194 92.528,199.283 91.841,200.519 91.132 C 201.755 90.423,203.466 89.394,204.322 88.844 C 206.409 87.503,210.669 85.393,211.290 85.393 C 211.564 85.393,211.948 85.234,212.142 85.040 C 213.236 83.947,223.321 83.780,225.407 84.821 M96.866 95.425 C 97.306 95.618,98.289 96.138,99.049 96.580 C 99.810 97.021,101.132 97.770,101.988 98.244 C 103.447 99.052,104.248 99.511,107.692 101.509 C 108.453 101.951,109.542 102.561,110.112 102.865 C 110.683 103.169,111.772 103.793,112.532 104.252 C 113.293 104.710,114.460 105.360,115.125 105.697 C 115.791 106.034,116.545 106.508,116.802 106.751 C 117.059 106.994,117.759 107.428,118.358 107.714 C 118.957 108.001,120.069 108.613,120.830 109.074 C 121.590 109.535,122.602 110.141,123.077 110.420 C 127.649 113.109,126.882 120.390,121.885 121.736 C 120.277 122.169,117.362 121.870,116.271 121.161 C 115.855 120.891,115.000 120.377,114.370 120.019 C 113.739 119.661,112.264 118.803,111.091 118.111 C 109.918 117.420,108.810 116.854,108.627 116.854 C 108.445 116.854,108.100 116.619,107.862 116.331 C 107.623 116.044,106.787 115.494,106.004 115.109 C 104.476 114.358,102.979 113.523,100.778 112.192 C 100.017 111.732,99.006 111.160,98.531 110.921 C 98.055 110.681,96.772 109.903,95.678 109.192 C 94.585 108.480,93.158 107.645,92.507 107.336 C 84.761 103.660,89.033 91.985,96.866 95.425 M213.998 97.782 C 212.951 98.289,211.198 99.287,210.102 100.000 C 209.007 100.713,208.020 101.296,207.908 101.296 C 207.797 101.296,207.243 101.685,206.679 102.161 C 206.114 102.636,205.454 103.025,205.213 103.025 C 204.972 103.025,204.493 103.336,204.149 103.717 C 203.804 104.097,203.337 104.408,203.111 104.408 C 202.884 104.408,202.375 104.680,201.980 105.013 C 201.585 105.346,200.748 105.929,200.122 106.309 C 199.495 106.690,198.433 107.341,197.762 107.756 C 197.092 108.171,195.998 108.837,195.333 109.235 C 194.667 109.633,193.656 110.261,193.086 110.631 C 192.515 111.001,191.476 111.616,190.775 111.999 C 190.075 112.382,189.399 112.863,189.273 113.067 C 189.146 113.272,188.708 113.588,188.298 113.771 C 187.889 113.953,186.854 114.563,185.998 115.127 C 185.143 115.690,184.054 116.342,183.578 116.576 C 183.103 116.809,182.274 117.356,181.737 117.791 C 181.199 118.226,180.589 118.583,180.381 118.583 C 180.173 118.583,179.717 118.841,179.368 119.157 C 178.699 119.762,178.293 120.019,176.083 121.237 C 175.331 121.651,174.513 122.234,174.265 122.533 C 174.016 122.832,173.672 123.077,173.499 123.077 C 173.326 123.077,172.122 123.777,170.823 124.633 C 169.524 125.488,168.346 126.188,168.205 126.188 C 168.063 126.188,167.485 126.577,166.921 127.053 C 166.356 127.528,165.696 127.917,165.455 127.917 C 165.214 127.917,164.735 128.228,164.391 128.608 C 164.047 128.989,163.559 129.300,163.308 129.300 C 161.970 129.300,161.490 131.846,162.741 132.307 C 163.078 132.432,164.443 133.230,165.774 134.081 C 169.112 136.216,172.576 138.409,173.253 138.814 C 173.900 139.202,177.418 141.525,178.811 142.484 C 180.128 143.391,182.912 143.365,183.751 142.437 C 184.095 142.057,184.519 141.746,184.692 141.746 C 184.865 141.746,185.517 141.357,186.140 140.882 C 186.764 140.406,187.429 140.017,187.619 140.017 C 187.810 140.017,188.247 139.706,188.591 139.326 C 188.935 138.946,189.345 138.634,189.502 138.634 C 189.659 138.634,190.669 138.051,191.747 137.338 C 193.604 136.109,194.607 135.483,197.407 133.808 C 198.073 133.409,199.084 132.781,199.654 132.411 C 200.225 132.042,201.246 131.435,201.925 131.064 C 202.603 130.692,203.361 130.143,203.609 129.844 C 203.857 129.545,204.251 129.300,204.483 129.300 C 204.716 129.300,205.187 128.989,205.532 128.608 C 205.876 128.228,206.328 127.912,206.536 127.907 C 206.744 127.901,208.081 127.124,209.507 126.179 C 210.933 125.234,212.295 124.461,212.532 124.461 C 212.770 124.460,212.965 124.331,212.965 124.173 C 212.965 124.014,213.392 123.668,213.915 123.403 C 214.438 123.138,215.306 122.567,215.843 122.135 C 216.381 121.702,217.018 121.348,217.259 121.348 C 217.500 121.348,217.979 121.037,218.323 120.657 C 218.667 120.277,219.098 119.965,219.281 119.965 C 219.464 119.965,220.645 119.292,221.907 118.469 C 227.888 114.568,229.213 113.742,229.494 113.742 C 229.661 113.742,230.079 113.431,230.424 113.051 C 230.768 112.671,231.205 112.360,231.395 112.360 C 231.585 112.360,232.251 111.971,232.874 111.495 C 233.498 111.020,234.093 110.631,234.197 110.631 C 234.614 110.631,238.202 108.169,238.202 107.883 C 238.202 107.714,238.296 107.331,238.411 107.032 C 238.542 106.689,238.383 106.399,237.979 106.247 C 237.626 106.114,236.502 105.452,235.479 104.775 C 233.175 103.248,232.907 103.081,230.769 101.839 C 229.818 101.286,228.807 100.641,228.522 100.406 C 224.416 97.016,217.985 95.855,213.998 97.782 M249.754 115.812 C 249.289 116.277,245.440 118.583,245.128 118.583 C 244.991 118.583,244.597 118.894,244.252 119.274 C 243.908 119.654,243.490 119.965,243.323 119.965 C 243.157 119.965,241.897 120.691,240.525 121.577 C 239.152 122.464,237.252 123.684,236.301 124.289 C 235.350 124.895,233.212 126.270,231.550 127.345 C 229.888 128.420,228.390 129.300,228.222 129.300 C 228.053 129.300,227.714 129.542,227.468 129.838 C 227.222 130.135,226.542 130.602,225.957 130.877 C 225.371 131.151,224.238 131.804,223.439 132.326 C 221.706 133.459,217.567 136.082,216.595 136.663 C 216.214 136.891,215.408 137.427,214.803 137.856 C 214.197 138.284,213.590 138.634,213.452 138.634 C 213.315 138.634,212.177 139.312,210.923 140.141 C 208.820 141.531,204.573 144.237,203.238 145.037 C 202.927 145.224,201.822 145.959,200.782 146.672 C 199.742 147.385,198.737 147.969,198.548 147.969 C 198.360 147.969,197.937 148.266,197.609 148.629 C 197.280 148.992,196.576 149.469,196.044 149.689 C 194.627 150.276,194.012 151.787,194.939 152.402 C 195.326 152.659,195.985 153.167,196.405 153.530 C 196.824 153.894,197.326 154.192,197.521 154.192 C 197.827 154.192,200.548 155.889,203.703 158.046 C 204.218 158.398,204.762 158.686,204.913 158.687 C 205.063 158.687,205.638 159.076,206.190 159.551 C 206.743 160.026,207.321 160.415,207.475 160.415 C 207.977 160.415,214.466 165.803,216.582 167.977 C 219.126 170.590,218.562 170.692,222.585 166.897 C 225.733 163.927,226.847 162.953,228.928 161.352 C 230.242 160.342,232.104 159.075,232.844 158.688 C 233.224 158.489,234.235 157.873,235.091 157.319 C 235.946 156.764,237.658 155.730,238.894 155.022 C 240.130 154.313,241.219 153.621,241.314 153.485 C 241.409 153.348,242.051 152.946,242.741 152.590 C 243.431 152.235,244.840 151.400,245.873 150.735 C 246.905 150.069,247.992 149.369,248.288 149.179 C 248.584 148.989,249.706 148.250,250.781 147.537 C 251.856 146.824,252.864 146.240,253.021 146.240 C 253.178 146.240,253.588 145.929,253.933 145.549 C 254.277 145.169,254.744 144.857,254.970 144.857 C 255.197 144.857,255.706 144.585,256.101 144.252 C 256.497 143.920,257.259 143.380,257.796 143.052 C 258.333 142.725,259.084 142.260,259.464 142.018 C 263.939 139.179,264.823 138.634,264.963 138.634 C 265.052 138.634,266.147 137.934,267.397 137.079 C 268.647 136.223,269.739 135.523,269.824 135.523 C 269.909 135.523,270.504 135.173,271.148 134.745 C 271.791 134.317,273.184 133.426,274.243 132.765 C 276.106 131.601,276.153 131.534,275.713 130.683 C 275.281 129.848,272.186 127.571,271.483 127.571 C 271.302 127.571,270.871 127.260,270.527 126.880 C 270.183 126.500,269.711 126.188,269.479 126.188 C 269.246 126.188,268.855 125.946,268.609 125.650 C 268.363 125.354,267.683 124.879,267.098 124.594 C 265.327 123.734,263.964 122.922,262.938 122.115 C 262.402 121.693,261.776 121.348,261.545 121.348 C 261.315 121.348,260.845 121.037,260.501 120.657 C 260.157 120.277,259.685 119.965,259.453 119.965 C 259.220 119.965,258.827 119.721,258.579 119.422 C 258.331 119.122,257.513 118.539,256.761 118.125 C 254.550 116.908,254.144 116.650,253.476 116.045 C 252.778 115.414,250.307 115.259,249.754 115.812 M146.686 140.449 C 145.559 141.925,145.537 142.756,145.662 178.911 C 145.807 220.746,145.624 218.169,148.900 224.546 C 149.991 226.670,153.031 229.861,155.575 231.551 C 156.621 232.246,157.632 232.940,157.822 233.093 C 158.658 233.767,160.817 235.091,161.079 235.091 C 161.238 235.091,161.570 235.335,161.819 235.635 C 162.067 235.934,162.825 236.483,163.503 236.854 C 164.181 237.226,165.135 237.798,165.623 238.126 C 166.111 238.453,167.045 239.067,167.698 239.490 C 168.351 239.914,169.118 240.421,169.404 240.617 C 169.689 240.813,170.778 241.516,171.824 242.178 C 172.869 242.840,173.959 243.537,174.244 243.726 C 175.589 244.617,180.129 247.535,181.677 248.503 C 182.627 249.098,183.639 249.805,183.924 250.073 C 184.209 250.341,184.831 250.676,185.307 250.817 C 185.782 250.958,186.482 251.337,186.863 251.660 C 187.487 252.189,190.768 254.365,193.950 256.360 C 197.144 258.363,198.717 259.334,199.827 259.988 C 200.493 260.379,201.659 261.078,202.420 261.541 C 203.181 262.003,204.425 262.706,205.186 263.104 C 205.946 263.501,207.560 264.421,208.772 265.148 C 210.483 266.174,211.178 266.415,211.883 266.226 L 212.792 265.983 212.891 226.941 L 212.990 187.900 212.238 185.307 C 211.183 181.672,210.074 179.708,207.640 177.162 C 205.338 174.757,200.940 171.132,200.322 171.132 C 200.109 171.132,199.653 170.821,199.309 170.441 C 198.964 170.061,198.541 169.749,198.368 169.749 C 198.194 169.749,197.542 169.360,196.919 168.885 C 196.296 168.410,195.683 168.021,195.558 168.021 C 195.432 168.021,194.328 167.321,193.104 166.465 C 191.880 165.609,190.798 164.909,190.701 164.909 C 190.603 164.909,189.933 164.517,189.212 164.039 C 188.490 163.560,187.666 163.014,187.381 162.826 C 186.364 162.155,183.290 160.223,181.345 159.032 C 180.258 158.366,178.876 157.475,178.275 157.051 C 177.674 156.628,176.793 156.085,176.318 155.845 C 175.567 155.465,174.524 154.820,172.515 153.490 C 169.732 151.648,166.965 149.947,166.092 149.541 C 165.506 149.269,164.826 148.804,164.580 148.507 C 164.334 148.211,163.950 147.969,163.727 147.969 C 163.504 147.969,163.017 147.734,162.646 147.446 C 161.831 146.816,158.954 144.998,155.402 142.870 C 151.351 140.443,147.507 139.375,146.686 140.449 M287.232 140.356 C 286.722 140.510,285.949 140.886,285.513 141.191 C 285.077 141.496,284.463 141.746,284.149 141.746 C 283.834 141.746,283.373 141.991,283.125 142.290 C 282.877 142.589,282.119 143.135,281.441 143.503 C 279.881 144.350,279.344 144.679,276.552 146.493 C 275.302 147.305,274.115 147.969,273.915 147.969 C 273.715 147.969,273.363 148.195,273.134 148.470 C 272.794 148.881,269.895 150.706,268.445 151.424 C 268.251 151.520,267.162 152.206,266.025 152.948 C 264.889 153.690,263.414 154.635,262.748 155.048 C 262.083 155.462,260.585 156.433,259.421 157.206 C 258.256 157.980,256.993 158.711,256.614 158.831 C 256.235 158.951,255.647 159.357,255.307 159.732 C 254.968 160.108,254.535 160.415,254.347 160.415 C 254.158 160.415,253.153 160.998,252.113 161.711 C 251.073 162.424,249.968 163.159,249.657 163.345 C 238.190 170.189,230.994 175.526,228.636 178.935 C 225.203 183.899,225.297 182.513,225.398 226.610 C 225.493 268.202,225.439 267.270,227.667 265.736 C 228.042 265.478,228.971 265.070,229.732 264.828 C 230.493 264.587,231.348 264.206,231.634 263.982 C 231.919 263.757,232.541 263.385,233.016 263.156 C 233.492 262.926,234.581 262.276,235.436 261.711 C 236.292 261.147,237.226 260.576,237.511 260.443 C 237.796 260.309,238.955 259.572,240.087 258.803 C 241.219 258.035,242.565 257.169,243.077 256.879 C 243.590 256.590,244.686 255.892,245.514 255.329 C 246.341 254.765,247.436 254.065,247.947 253.773 C 248.457 253.480,249.702 252.695,250.713 252.027 C 251.723 251.359,252.799 250.659,253.103 250.471 C 253.628 250.147,254.345 249.679,258.463 246.969 C 259.433 246.331,260.406 245.808,260.624 245.808 C 260.842 245.808,261.020 245.679,261.020 245.521 C 261.020 245.363,261.448 245.015,261.971 244.748 C 262.494 244.481,263.699 243.710,264.650 243.034 C 265.601 242.359,267.527 241.112,268.931 240.263 C 270.335 239.415,271.891 238.453,272.388 238.126 C 272.886 237.798,273.838 237.204,274.503 236.806 C 277.481 235.024,278.351 234.475,280.590 232.969 C 282.667 231.572,285.688 228.873,286.787 227.433 C 287.600 226.367,289.369 223.632,289.369 223.440 C 289.369 223.326,289.739 222.439,290.191 221.469 C 292.525 216.459,292.483 217.257,292.482 177.938 C 292.481 141.285,292.488 141.505,291.128 140.460 C 290.510 139.986,288.626 139.936,287.232 140.356 M286.880 151.150 C 287.546 151.816,287.453 165.522,286.773 166.885 C 286.280 167.874,284.779 169.092,282.759 170.143 C 281.782 170.651,279.988 171.696,277.787 173.039 C 277.027 173.503,275.821 174.144,275.108 174.462 C 274.395 174.780,273.812 175.172,273.812 175.333 C 273.812 175.495,273.345 175.627,272.774 175.627 L 271.737 175.627 271.737 167.691 C 271.737 157.904,271.453 158.601,276.642 155.654 C 278.895 154.374,281.319 152.986,282.029 152.569 C 282.738 152.152,283.708 151.585,284.183 151.310 C 285.273 150.677,286.344 150.614,286.880 151.150 M104.463 155.363 C 106.253 156.348,114.055 160.809,115.414 161.625 C 119.619 164.150,120.389 166.270,118.488 170.088 C 115.726 175.636,113.660 175.315,99.618 167.156 C 94.472 164.166,93.310 162.052,94.607 158.036 C 95.904 154.020,100.001 152.909,104.463 155.363 M273.788 195.991 C 275.295 198.108,274.585 199.875,271.382 201.975 C 268.175 204.078,265.471 205.704,265.180 205.704 C 265.043 205.704,264.648 206.016,264.304 206.396 C 263.960 206.776,263.481 207.087,263.240 207.087 C 262.999 207.087,262.339 207.476,261.774 207.952 C 261.209 208.427,260.648 208.816,260.527 208.816 C 260.405 208.816,259.243 209.516,257.945 210.372 C 256.646 211.227,255.430 211.927,255.244 211.927 C 255.057 211.927,254.622 212.239,254.278 212.619 C 253.934 212.999,253.526 213.310,253.372 213.310 C 253.218 213.310,252.348 213.777,251.438 214.347 C 249.643 215.472,249.501 215.564,247.191 217.102 C 246.335 217.672,245.492 218.141,245.317 218.144 C 245.142 218.148,244.725 218.398,244.390 218.701 C 243.758 219.273,243.149 219.633,239.609 221.530 L 237.496 222.662 236.319 221.724 C 234.642 220.385,234.355 216.422,235.935 216.422 C 236.172 216.422,236.648 216.111,236.992 215.730 C 237.336 215.350,237.815 215.039,238.056 215.039 C 238.298 215.039,238.957 214.650,239.522 214.175 C 240.087 213.699,240.648 213.310,240.770 213.310 C 240.978 213.310,244.879 210.868,246.918 209.462 C 247.433 209.107,247.955 208.816,248.078 208.816 C 248.201 208.816,248.763 208.427,249.328 207.952 C 249.893 207.476,250.558 207.087,250.805 207.087 C 251.053 207.087,251.456 206.845,251.702 206.549 C 251.948 206.253,252.628 205.780,253.214 205.499 C 254.563 204.852,256.273 203.808,258.679 202.161 C 259.720 201.448,260.732 200.864,260.927 200.864 C 261.122 200.864,261.482 200.622,261.728 200.326 C 261.974 200.030,262.654 199.562,263.240 199.288 C 263.825 199.013,265.004 198.327,265.860 197.765 C 266.716 197.202,267.902 196.518,268.497 196.245 C 269.092 195.972,269.684 195.578,269.814 195.368 C 270.347 194.506,273.030 194.927,273.788 195.991 M98.303 200.122 C 98.738 200.530,99.332 200.864,99.624 200.864 C 99.915 200.864,100.527 201.189,100.984 201.586 C 101.441 201.983,102.282 202.529,102.852 202.799 C 103.423 203.069,104.512 203.670,105.272 204.134 C 106.033 204.599,107.044 205.173,107.519 205.409 C 107.995 205.645,108.637 206.049,108.947 206.306 C 109.258 206.563,110.113 207.096,110.849 207.490 C 113.630 208.977,114.647 209.552,115.990 210.393 C 116.750 210.870,117.867 211.486,118.472 211.761 C 119.077 212.037,119.662 212.407,119.771 212.584 C 119.880 212.760,120.683 213.250,121.555 213.672 C 129.039 217.295,127.037 226.904,118.994 225.961 C 117.985 225.842,116.768 225.489,116.291 225.177 C 115.104 224.399,113.463 223.487,112.014 222.799 C 111.348 222.483,110.679 222.008,110.527 221.743 C 110.375 221.479,109.978 221.262,109.644 221.262 C 109.310 221.262,108.509 220.873,107.865 220.398 C 107.221 219.922,106.515 219.533,106.296 219.533 C 106.077 219.533,105.616 219.222,105.272 218.842 C 104.928 218.462,104.502 218.150,104.326 218.150 C 104.150 218.150,103.046 217.585,101.873 216.893 C 98.411 214.852,95.447 213.139,93.345 211.963 C 87.972 208.958,86.586 204.110,90.087 200.573 C 91.754 198.889,96.702 198.617,98.303 200.122 M274.183 210.026 C 275.149 211.704,274.301 213.903,272.291 214.932 C 271.701 215.234,271.141 215.581,271.046 215.703 C 270.951 215.826,270.017 216.451,268.971 217.093 C 267.926 217.735,266.047 218.936,264.797 219.761 C 263.548 220.587,262.366 221.262,262.172 221.262 C 261.977 221.262,261.537 221.573,261.193 221.953 C 260.849 222.334,260.405 222.645,260.207 222.645 C 260.009 222.645,259.294 223.008,258.618 223.452 C 255.343 225.605,252.458 227.403,251.599 227.825 C 251.076 228.083,250.648 228.422,250.648 228.580 C 250.648 228.738,250.462 228.868,250.235 228.868 C 250.007 228.868,249.268 229.231,248.592 229.675 C 247.917 230.120,246.263 231.209,244.918 232.095 C 243.573 232.982,242.314 233.708,242.120 233.708 C 241.926 233.708,241.491 234.012,241.155 234.384 C 239.668 236.027,235.686 235.685,235.085 233.863 C 234.265 231.378,234.922 230.613,241.314 226.625 C 243.312 225.377,247.645 222.587,248.646 221.902 C 249.162 221.550,249.698 221.262,249.838 221.262 C 249.978 221.262,250.645 220.896,251.321 220.449 C 255.043 217.986,257.576 216.422,257.844 216.422 C 258.010 216.422,258.429 216.111,258.773 215.730 C 259.117 215.350,259.560 215.039,259.758 215.039 C 259.956 215.039,260.671 214.673,261.347 214.226 C 264.897 211.876,267.596 210.198,267.837 210.191 C 267.985 210.187,268.496 209.875,268.971 209.498 C 270.402 208.364,273.401 208.668,274.183 210.026 M266.215 226.691 C 269.888 229.223,268.528 231.114,258.946 236.800 C 257.242 237.811,256.648 238.189,254.287 239.765 C 253.141 240.530,251.815 241.349,251.340 241.586 C 250.864 241.823,249.775 242.473,248.920 243.030 C 248.064 243.588,246.865 244.300,246.256 244.613 C 245.647 244.925,244.967 245.399,244.745 245.667 C 244.522 245.935,244.145 246.154,243.907 246.154 C 243.668 246.154,243.299 246.364,243.086 246.620 C 240.982 249.155,236.194 249.807,235.187 247.695 C 233.897 244.990,234.745 243.975,241.832 239.747 C 243.734 238.613,245.445 237.566,245.635 237.420 C 246.464 236.786,248.761 235.344,249.415 235.048 C 249.808 234.870,251.296 233.951,252.723 233.005 C 254.149 232.059,255.860 231.014,256.525 230.682 C 257.191 230.350,257.813 229.990,257.908 229.882 C 259.929 227.595,264.808 225.721,266.215 226.691 " stroke="none" fill="#d464fc" fill-rule="evenodd"></path></g></svg>